{
.appVersion = "3151";
.formatVersion = 3;
customParameters = (
{
name = vendorID;
value = COMM;
},
{
name = panose;
value = (
2,
13,
8,
4,
3,
5,
2,
12,
2,
3
);
},
{
name = unicodeRanges;
value = (
0,
1,
2
);
},
{
name = codePageRanges;
value = (
"1252",
"1250",
"1254",
"1257",
"bit 29"
);
},
{
name = fsType;
value = (
2
);
},
{
name = glyphOrder;
value = (
.notdef,
Eth,
eth,
Lslash,
lslash,
Scaron,
scaron,
Yacute,
yacute,
Thorn,
thorn,
Zcaron,
zcaron,
onehalf,
onequarter,
onesuperior,
threequarters,
threesuperior,
twosuperior,
brokenbar,
minus,
multiply,
space,
exclam,
quotedbl,
numbersign,
dollar,
percent,
ampersand,
quotesingle,
parenleft,
parenright,
asterisk,
plus,
comma,
hyphen,
period,
slash,
zero,
one,
two,
three,
four,
five,
six,
seven,
eight,
nine,
colon,
semicolon,
less,
equal,
greater,
question,
at,
A,
B,
C,
D,
E,
F,
G,
H,
I,
J,
K,
L,
M,
N,
O,
P,
Q,
R,
S,
T,
U,
V,
W,
X,
Y,
Z,
bracketleft,
backslash,
bracketright,
asciicircum,
underscore,
grave,
a,
b,
c,
d,
e,
f,
g,
h,
i,
j,
k,
l,
m,
n,
o,
p,
q,
r,
s,
t,
u,
v,
w,
x,
y,
z,
braceleft,
bar,
braceright,
asciitilde,
Adieresis,
Aring,
Ccedilla,
Eacute,
Ntilde,
Odieresis,
Udieresis,
aacute,
agrave,
acircumflex,
adieresis,
atilde,
aring,
ccedilla,
eacute,
egrave,
ecircumflex,
edieresis,
iacute,
igrave,
icircumflex,
idieresis,
ntilde,
oacute,
ograve,
ocircumflex,
odieresis,
otilde,
uacute,
ugrave,
ucircumflex,
udieresis,
dagger,
degree,
cent,
sterling,
section,
bullet,
paragraph,
germandbls,
registered,
copyright,
trademark,
acute,
dieresis,
notequal,
AE,
Oslash,
infinity,
plusminus,
lessequal,
greaterequal,
yen,
mu,
partialdiff,
summation,
product,
pi,
integral,
ordfeminine,
ordmasculine,
Omega,
ae,
oslash,
questiondown,
exclamdown,
logicalnot,
radical,
florin,
approxequal,
Delta,
guillemotleft,
guillemotright,
ellipsis,
uni00A0,
Agrave,
Atilde,
Otilde,
OE,
oe,
endash,
emdash,
quotedblleft,
quotedblright,
quoteleft,
quoteright,
divide,
lozenge,
ydieresis,
Ydieresis,
fraction,
Euro,
guilsinglleft,

glyphs = (
{
glyphname = Eth;
kernLeft = Eth;
kernRight = Eth;
layers = (
{
hints = (
{
horizontal = 1;
place = (0, 148);
place = (0, 148);
type = Stem;
},
{
horizontal = 1;
place = (297, 134);
place = (297, 134);
type = Stem;
},
{
horizontal = 1;
place = (568, 147);
place = (568, 147);
type = Stem;
},
{
place = (527, 178);
place = (527, 178);
type = Stem;
}
);
layerId = m01;
shapes = (
{
closed = 1;
nodes = (
(9,0,l),
(321,0,ls),
(437,0,o),
(536,40,o),
(601,109,cs),
(669,182,o),
(705,281,o),
(705,410,cs),
(705,607,o),
(584,715,o),
(403,715,cs),
(147,715,l),
(92,431,l),
(38,431,l),
(13,297,l),
(67,297,l)
);
},
{
closed = 1;
nodes = (
(212,148,l),
(241,297,l),
(393,297,l),
(418,431,l),
(267,431,l),
(293,568,l),
(376,568,ls),
(475,568,o),
(527,510,o),
(527,401,cs),
(527,248,o),
(453,148,o),
(321,148,cs)
);
}
);
width = 700;
}
);
note = Eth;
unicode = 208;
},
{
glyphname = eth;
kernLeft = eth;
kernRight = eth;
layers = (
{
hints = (
{
horizontal = 1;
place = (-16, 114);
place = (-16, 114);
type = Stem;
},
{
horizontal = 1;
place = (408, 108);
place = (408, 108);
type = Stem;
},
{
horizontal = 1;
place = (580, 135);
place = (580, 135);
type = Stem;
},
{
place = (13, 160);
place = (13, 160);
type = Stem;
},
{
place = (392, 163);
place = (392, 163);
type = Stem;
},
{
horizontal = 1;
place = (626, 89);
place = (626, 89);
type = Stem;
}
);
layerId = m01;
shapes = (
{
closed = 1;
nodes = (
(158,592,l),
(174,537,l),
(312,580,l),
(342,545,o),
(367,507,o),
(384,469,c),
(382,469,l),
(355,499,o),
(319,516,o),
(271,516,cs),
(115,516,o),
(14,382,o),
(13,222,cs),
(13,69,o),
(116,-16,o),
(262,-16,cs),
(452,-16,o),
(555,135,o),
(555,337,cs),
(555,460,o),
(511,555,o),
(453,624,c),
(528,648,l),
(513,703,l),
(408,670,l),
(389,687,o),
(370,702,o),
(351,715,c),
(160,715,l),
(196,689,o),
(234,659,o),
(268,626,c)
);
},
{
closed = 1;
nodes = (
(173,297,o),
(208,408,o),
(300,408,cs),
(366,408,o),
(392,357,o),
(392,300,cs),
(392,213,o),
(355,98,o),
(262,98,cs),
(196,98,o),
(173,152,o),
(173,212,cs)
);
}
);
width = 570;
}
);
note = eth;
unicode = 240;
},
{
glyphname = Lslash;
layers = (
{
hints = (
{
horizontal = 1;
place = (0, 149);
place = (0, 149);
type = Stem;
},
{
horizontal = 1;
place = (513, -20);
target = down;
type = TopGhost;
},
{
horizontal = 1;
place = (715, -20);
target = down;
type = TopGhost;
},
{
place = (-18, 535);
place = (-18, 535);
type = Stem;
}
);
layerId = m01;
shapes = (
{
closed = 1;
nodes = (
(-18,188,l),
(48,217,l),
(6,0,l),
(488,0,l),
(517,149,l),
(209,149,l),
(238,300,l),
(446,391,l),
(470,513,l),
(261,422,l),
(318,715,l),
(144,715,l),
(71,339,l),
(6,311,l)
);
}
);
width = 556;
}
);
note = Lslash;
unicode = 321;
},
{
glyphname = lslash;
layers = (
{
hints = (
{
horizontal = 1;
place = (0, 21);
target = up;
type = BottomGhost;
},
{
horizontal = 1;
place = (715, -20);
target = down;
type = TopGhost;
},
{
place = (-10, 335);
place = (-10, 335);
type = Stem;
}
);
layerId = m01;
shapes = (
{
closed = 1;
nodes = (
(-10,196,l),
(50,233,l),
(5,0,l),
(168,0,l),
(235,348,l),
(302,390,l),
(325,510,l),
(258,468,l),
(306,715,l),
(143,715,l),
(73,353,l),
(14,316,l)
);
}
);
width = 276;
}
);
note = lslash;
unicode = 322;
},
{
glyphname = Scaron;
kernLeft = Scaron;
kernRight = Scaron;
layers = (
{
hints = (
{
horizontal = 1;
place = (-17, 139);
place = (-17, 139);
type = Stem;
},
{
horizontal = 1;
place = (595, 133);
place = (595, 133);
type = Stem;
},
{
place = (71, 168);
place = (71, 168);
type = Stem;
},
{
place = (421, 178);
place = (421, 178);
type = Stem;
},
{
horizontal = 1;
place = (750, 125);
place = (750, 125);
type = Stem;
}
);
layerId = m01;
shapes = (
{
closed = 1;
nodes = (
(463,-17,o),
(599,62,o),
(599,224,cs),
(599,342,o),
(513,393,o),
(392,435,cs),
(278,474,o),
(239,484,o),
(239,527,cs),
(240,577,o),
(294,595,o),
(339,595,cs),
(410,595,o),
(451,564,o),
(450,508,c),
(620,508,l),
(627,674,o),
(484,728,o),
(345,728,cs),
(186,728,o),
(71,650,o),
(71,502,cs),
(71,386,o),
(152,340,o),
(280,295,cs),
(378,260,o),
(421,241,o),
(421,199,cs),
(421,141,o),
(365,122,o),
(306,122,cs),
(227,122,o),
(170,151,o),
(172,225,c),
(-3,225,l),
(-9,45,o),
(145,-17,o),
(301,-17,cs)
);
},
{
closed = 1;
nodes = (
(293,750,l),
(448,750,l),
(573,875,l),
(431,875,l),
(378,820,l),
(376,820,l),
(340,875,l),
(209,875,l)
);
}
);
width = 627;
}
);
note = Scaron;
unicode = 352;
},
{
glyphname = scaron;
kernLeft = scaron;
kernRight = scaron;
layers = (
{
hints = (
{
horizontal = 1;
place = (-16, 107);
place = (-16, 107);
type = Stem;
},
{
horizontal = 1;
place = (423, 104);
place = (423, 104);
type = Stem;
},
{
horizontal = 1;
place = (571, 138);
place = (571, 138);
type = Stem;
},
{
place = (37, 148);
place = (37, 148);
type = Stem;
},
{
place = (303, 151);
place = (303, 151);
type = Stem;
},
{
horizontal = 1;
place = (363, 164);
place = (363, 164);
type = Stem;
}
);
layerId = m01;
shapes = (
{
closed = 1;
nodes = (
(199,571,l),
(353,571,l),
(480,709,l),
(339,709,l),
(284,643,l),
(282,643,l),
(248,709,l),
(116,709,l)
);
},
{
closed = 1;
nodes = (
(368,-16,o),
(454,47,o),
(454,166,cs),
(454,262,o),
(376,297,o),
(296,320,cs),
(224,340,o),
(185,350,o),
(185,380,cs),
(185,411,o),
(219,423,o),
(252,423,cs),
(298,423,o),
(325,399,o),
(329,363,c),
(476,363,l),
(469,479,o),
(371,527,o),
(258,527,cs),
(131,527,o),
(37,467,o),
(37,356,cs),
(37,265,o),
(103,230,o),
(189,205,cs),
(257,185,o),
(303,176,o),
(303,140,cs),
(303,105,o),
(274,91,o),
(232,91,cs),
(169,91,o),
(145,124,o),
(142,166,c),
(-10,166,l),
(-5,38,o),
(109,-16,o),
(229,-16,cs)
);
}
);
width = 491;
}
);
note = scaron;
unicode = 353;
},
{
glyphname = Yacute;
kernLeft = Yacute;
kernRight = Yacute;
layers = (
{
hints = (
{
horizontal = 1;
place = (0, 21);
target = up;
type = BottomGhost;
},
{
horizontal = 1;
place = (715, -20);
target = down;
type = TopGhost;
},
{
horizontal = 1;
place = (750, 130);
place = (750, 130);
type = Stem;
},
{
place = (86, 643);
place = (86, 643);
type = Stem;
}
);
layerId = m01;
shapes = (
{
closed = 1;
nodes = (
(180,0,l),
(355,0,l),
(405,261,l),
(729,715,l),
(540,715,l),
(416,531,ls),
(383,481,o),
(348,422,o),
(348,422,c),
(346,422,l),
(346,422,o),
(335,484,o),
(321,533,cs),
(269,715,l),
(86,715,l),
(231,267,l)
);
},
{
closed = 1;
nodes = (
(341,750,l),
(463,750,l),
(584,880,l),
(403,880,l)
);
}
);
width = 639;
}
);
note = Yacute;
unicode = 221;
},
{
glyphname = yacute;
kernLeft = yacute;
kernRight = yacute;
layers = (
{
hints = (
{
horizontal = 1;
place = (-169, 126);
place = (-169, 126);
type = Stem;
},
{
horizontal = 1;
place = (512, -20);
target = down;
type = TopGhost;
},
{
horizontal = 1;
place = (572, 148);
place = (572, 148);
type = Stem;
},
{
place = (-15, 584);
place = (-15, 584);
type = Stem;
}
);
layerId = m01;
shapes = (
{
closed = 1;
nodes = (
(-15,-169,l),
(93,-169,ls),
(193,-169,o),
(249,-125,o),
(299,-26,cs),
(569,512,l),
(408,512,l),
(307,293,ls),
(283,242,o),
(257,172,o),
(257,172,c),
(255,172,l),
(255,172,o),
(249,246,o),
(243,296,cs),
(215,512,l),
(48,512,l),
(126,118,ls),
(134,80,o),
(139,50,o),
(139,30,cs),
(139,-22,o),
(109,-43,o),
(64,-43,cs),
(10,-43,l)
);
},
{
closed = 1;
nodes = (
(252,572,l),
(375,572,l),
(513,720,l),
(328,720,l)
);
}
);
width = 521;
}
);
note = yacute;
unicode = 253;
},
{
glyphname = Thorn;
kernRight = Thorn;
layers = (
{
hints = (
{
horizontal = 1;
place = (0, 21);
target = up;
type = BottomGhost;
},
{
horizontal = 1;
place = (140, 139);
place = (140, 139);
type = Stem;
},
{
horizontal = 1;
place = (469, 147);
place = (469, 147);
type = Stem;
},
{
horizontal = 1;
place = (715, -20);
target = down;
type = TopGhost;
},
{
place = (470, 176);
place = (470, 176);
type = Stem;
}
);
layerId = m01;
shapes = (
{
closed = 1;
nodes = (
(-2,0,l),
(175,0,l),
(202,140,l),
(372,140,ls),
(532,140,o),
(646,238,o),
(646,399,cs),
(646,466,o),
(622,518,o),
(584,555,cs),
(544,594,o),
(484,616,o),
(398,616,cs),
(294,616,l),
(313,715,l),
(136,715,l)
);
},
{
closed = 1;
nodes = (
(229,279,l),
(266,469,l),
(382,469,ls),
(440,469,o),
(470,441,o),
(470,388,cs),
(470,314,o),
(417,279,o),
(358,279,cs)
);
}
);
width = 637;
}
);
note = Thorn;
unicode = 222;
},
{
glyphname = thorn;
kernRight = thorn;
layers = (
{
hints = (
{
horizontal = 1;
place = (-169, 21);
target = up;
type = BottomGhost;
},
{
horizontal = 1;
place = (-16, 125);
place = (-16, 125);
type = Stem;
},
{
horizontal = 1;
place = (401, 126);
place = (401, 126);
type = Stem;
},
{
horizontal = 1;
place = (715, -20);
target = down;
type = TopGhost;
},
{
place = (401, 164);
place = (401, 164);
type = Stem;
}
);
layerId = m01;
shapes = (
{
closed = 1;
nodes = (
(-45,-169,l),
(115,-169,l),
(161,65,l),
(163,65,l),
(190,12,o),
(246,-16,o),
(311,-16,cs),
(486,-16,o),
(565,153,o),
(565,304,cs),
(565,431,o),
(501,527,o),
(387,527,cs),
(320,527,o),
(275,497,o),
(239,457,c),
(236,457,l),
(286,715,l),
(126,715,l)
);
},
{
closed = 1;
nodes = (
(214,109,o),
(188,162,o),
(188,217,cs),
(188,299,o),
(233,401,o),
(316,401,cs),
(380,401,o),
(401,348,o),
(401,295,cs),
(401,210,o),
(369,109,o),
(280,109,cs)
);
}
);
width = 578;
}
);
note = thorn;
unicode = 254;
},
{
glyphname = Zcaron;
kernLeft = Zcaron;
kernRight = Zcaron;
layers = (
{
hints = (
{
horizontal = 1;
place = (0, 147);
place = (0, 147);
type = Stem;
},
{
horizontal = 1;
place = (570, 145);
place = (570, 145);
type = Stem;
},
{
horizontal = 1;
place = (750, 125);
place = (750, 125);
type = Stem;
},
{
place = (-26, 706);
place = (-26, 706);
type = Stem;
}
);
layerId = m01;
shapes = (
{
closed = 1;
nodes = (
(338,750,l),
(493,750,l),
(618,875,l),
(476,875,l),
(423,820,l),
(421,820,l),
(385,875,l),
(254,875,l)
);
},
{
closed = 1;
nodes = (
(-26,0,l),
(554,0,l),
(582,147,l),
(299,147,ls),
(277,147,o),
(223,146,o),
(223,146,c),
(223,149,l),
(223,149,o),
(279,199,o),
(298,219,cs),
(654,580,l),
(680,715,l),
(137,715,l),
(109,570,l),
(360,570,ls),
(379,570,o),
(430,571,o),
(430,571,c),
(430,568,l),
(430,568,o),
(381,522,o),
(367,508,cs),
(0,137,l)
);
}
);
width = 629;
}
);
note = Zcaron;
unicode = 381;
},
{
glyphname = zcaron;
kernLeft = zcaron;
kernRight = zcaron;
layers = (
{
hints = (
{
horizontal = 1;
place = (0, 123);
place = (0, 123);
type = Stem;
},
{
horizontal = 1;
place = (390, 122);
place = (390, 122);
type = Stem;
},
{
horizontal = 1;
place = (571, 138);
place = (571, 138);
type = Stem;
},
{
place = (-29, 534);
place = (-29, 534);
type = Stem;
}
);
layerId = m01;
shapes = (
{
closed = 1;
nodes = (
(224,571,l),
(378,571,l),
(505,709,l),
(364,709,l),
(309,643,l),
(307,643,l),
(273,709,l),
(141,709,l)
);
},
{
closed = 1;
nodes = (
(-29,0,l),
(415,0,l),
(439,123,l),
(258,123,ls),
(235,123,o),
(188,122,o),
(188,122,c),
(188,125,l),
(188,125,o),
(226,156,o),
(254,183,cs),
(475,394,l),
(497,512,l),
(87,512,l),
(63,390,l),
(217,390,ls),
(233,390,o),
(280,391,o),
(280,391,c),
(280,388,l),
(280,388,o),
(242,356,o),
(227,341,cs),
(-7,118,l)
);
}
);
width = 483;
}
);
note = zcaron;
unicode = 382;
},
{
glyphname = onehalf;
layers = (
{
hints = (
{
horizontal = 1;
place = (0, 91);
place = (0, 91);
type = Stem;
},
{
horizontal = 1;
place = (316, 89);
place = (316, 89);
type = Stem;
},
{
horizontal = 1;
place = (553, 80);
place = (553, 80);
type = Stem;
},
{
horizontal = 1;
place = (719, -20);
target = down;
type = TopGhost;
},
{
place = (682, 115);
place = (682, 115);
type = Stem;
},
{
horizontal = 1;
place = (715, -20);
target = down;
type = TopGhost;
}
);
layerId = m01;
shapes = (
{
closed = 1;
nodes = (
(747,0,l),
(765,91,l),
(593,91,l),
(623,117,o),
(679,136,o),
(724,168,cs),
(764,195,o),
(797,231,o),
(797,288,cs),
(797,368,o),
(726,405,o),
(652,405,cs),
(557,405,o),
(481,351,o),
(466,246,c),
(575,246,l),
(584,290,o),
(608,316,o),
(641,316,cs),
(666,316,o),
(682,302,o),
(682,278,cs),
(682,248,o),
(665,234,o),
(638,218,cs),
(599,196,o),
(555,176,o),
(508,142,cs),
(466,112,o),
(429,72,o),
(417,0,c)
);
},
{
closed = 1;
nodes = (
(33,0,l),
(134,0,l),
(766,715,l),
(666,715,l)
);
},
{
closed = 1;
nodes = (
(115,318,l),
(234,318,l),
(312,719,l),
(218,719,l),
(197,662,o),
(151,636,o),
(87,633,c),
(72,553,l),
(161,553,l)
);
}
);
width = 823;
}
);
note = onehalf;
unicode = 189;
},
{
glyphname = onequarter;
layers = (
{
hints = (
{
horizontal = 1;
place = (0, 164);
place = (0, 164);
type = Stem;
},
{
horizontal = 1;
place = (287, 114);
place = (287, 114);
type = Stem;
},
{
horizontal = 1;
place = (553, 80);
place = (553, 80);
type = Stem;
},
{
horizontal = 1;
place = (719, -20);
target = down;
type = TopGhost;
},
{
place = (38, 733);
place = (38, 733);
type = Stem;
},
{
horizontal = 1;
place = (84, 80);
place = (84, 80);
type = Stem;
},
{
horizontal = 1;
place = (715, -20);
target = down;
type = TopGhost;
}
);
layerId = m01;
shapes = (
{
closed = 1;
nodes = (
(552,0,l),
(665,0,l),
(681,84,l),
(739,84,l),
(755,164,l),
(697,164,l),
(743,401,l),
(627,401,l),
(397,177,l),
(379,84,l),
(568,84,l)
);
},
{
closed = 1;
nodes = (
(38,0,l),
(139,0,l),
(771,715,l),
(671,715,l)
);
},
{
closed = 1;
nodes = (
(115,318,l),
(234,318,l),
(312,719,l),
(218,719,l),
(197,662,o),
(151,636,o),
(87,633,c),
(72,553,l),
(161,553,l)
);
},
{
closed = 1;
nodes = (
(483,166,l),
(607,287,l),
(608,287,l),
(584,164,l),
(483,164,l)
);
}
);
width = 786;
}
);
note = onequarter;
unicode = 188;
},
{
glyphname = onesuperior;
layers = (
{
hints = (
{
horizontal = 1;
place = (523, 80);
place = (523, 80);
type = Stem;
},
{
horizontal = 1;
place = (689, -20);
target = down;
type = TopGhost;
},
{
place = (66, 241);
place = (66, 241);
type = Stem;
}
);
layerId = m01;
shapes = (
{
closed = 1;
nodes = (
(109,288,l),
(229,288,l),
(307,689,l),
(213,689,l),
(191,632,o),
(146,606,o),
(82,603,c),
(66,523,l),
(155,523,l)
);
}
);
width = 269;
}
);
note = onesuperior;
unicode = 185;
},
{
glyphname = threequarters;
layers = (
{
hints = (
{
horizontal = 1;
place = (0, 164);
place = (0, 164);
type = Stem;
},
{
horizontal = 1;
place = (287, 114);
place = (287, 114);
type = Stem;
},
{
horizontal = 1;
place = (523, -20);
target = down;
type = TopGhost;
},
{
horizontal = 1;
place = (642, 81);
place = (642, 81);
type = Stem;
},
{
place = (53, 110);
place = (53, 110);
type = Stem;
},
{
place = (278, 115);
place = (278, 115);
type = Stem;
},
{
horizontal = 1;
place = (84, 80);
place = (84, 80);
type = Stem;
},
{
horizontal = 1;
place = (309, 83);
place = (309, 83);
type = Stem;
},
{
place = (297, 111);
place = (297, 111);
type = Stem;
},
{
horizontal = 1;
place = (591, 132);
place = (591, 132);
type = Stem;
},
{
horizontal = 1;
place = (486, 74);
place = (486, 74);
type = Stem;
},
{
horizontal = 1;
place = (715, -20);
target = down;
type = TopGhost;
}
);
layerId = m01;
shapes = (
{
closed = 1;
nodes = (
(620,0,l),
(733,0,l),
(749,84,l),
(807,84,l),
(823,164,l),
(765,164,l),
(811,401,l),
(695,401,l),
(465,177,l),
(447,84,l),
(636,84,l)
);
},
{
closed = 1;
nodes = (
(306,309,o),
(393,351,o),
(393,440,cs),
(393,481,o),
(368,509,o),
(337,523,c),
(337,524,l),
(377,538,o),
(407,570,o),
(408,613,cs),
(408,686,o),
(340,723,o),
(260,723,cs),
(164,723,o),
(97,668,o),
(83,591,c),
(190,591,l),
(197,619,o),
(217,642,o),
(251,642,cs),
(276,642,o),
(297,630,o),
(297,603,cs),
(297,574,o),
(272,560,o),
(239,560,cs),
(213,560,l),
(198,486,l),
(222,486,ls),
(259,486,o),
(278,471,o),
(278,442,cs),
(278,410,o),
(254,392,o),
(222,392,cs),
(182,392,o),
(163,416,o),
(163,453,c),
(53,453,l),
(51,357,o),
(127,309,o),
(221,309,cs)
);
},
{
closed = 1;
nodes = (
(115,0,l),
(216,0,l),
(848,715,l),
(748,715,l)
);
},
{
closed = 1;
nodes = (
(551,166,l),
(675,287,l),
(676,287,l),
(652,164,l),
(551,164,l)
);
}
);
width = 854;
}
);
note = threequarters;
unicode = 190;
},
{
glyphname = threesuperior;
layers = (
{
hints = (
{
horizontal = 1;
place = (279, 83);
place = (279, 83);
type = Stem;
},
{
horizontal = 1;
place = (456, 74);
place = (456, 74);
type = Stem;
},
{
horizontal = 1;
place = (612, 81);
place = (612, 81);
type = Stem;
},
{
place = (44, 110);
place = (44, 110);
type = Stem;
},
{
place = (269, 115);
place = (269, 115);
type = Stem;
},
{
place = (288, 111);
place = (288, 111);
type = Stem;
},
{
horizontal = 1;
place = (561, 132);
place = (561, 132);
type = Stem;
}
);
layerId = m01;
shapes = (
{
closed = 1;
nodes = (
(297,279,o),
(384,321,o),
(384,410,cs),
(384,451,o),
(359,479,o),
(328,493,c),
(328,494,l),
(368,508,o),
(398,540,o),
(399,583,cs),
(399,656,o),
(331,693,o),
(251,693,cs),
(155,693,o),
(88,638,o),
(74,561,c),
(181,561,l),
(188,589,o),
(208,612,o),
(242,612,cs),
(267,612,o),
(288,600,o),
(288,573,cs),
(288,544,o),
(263,530,o),
(230,530,cs),
(204,530,l),
(189,456,l),
(213,456,ls),
(250,456,o),
(269,441,o),
(269,412,cs),
(269,380,o),
(245,362,o),
(213,362,cs),
(173,362,o),
(154,386,o),
(154,423,c),
(44,423,l),
(42,327,o),
(118,279,o),
(212,279,cs)
);
}
);
width = 387;
}
);
note = threesuperior;
unicode = 179;
},
{
glyphname = twosuperior;
layers = (
{
hints = (
{
horizontal = 1;
place = (288, 91);
place = (288, 91);
type = Stem;
},
{
horizontal = 1;
place = (604, 89);
place = (604, 89);
type = Stem;
},
{
place = (293, 115);
place = (293, 115);
type = Stem;
}
);
layerId = m01;
shapes = (
{
closed = 1;
nodes = (
(358,288,l),
(376,379,l),
(204,379,l),
(233,405,o),
(289,424,o),
(335,456,cs),
(374,483,o),
(408,519,o),
(408,576,cs),
(408,656,o),
(337,693,o),
(262,693,cs),
(168,693,o),
(92,639,o),
(76,534,c),
(186,534,l),
(195,578,o),
(219,604,o),
(251,604,cs),
(277,604,o),
(293,590,o),
(293,566,cs),
(293,536,o),
(275,522,o),
(248,506,cs),
(210,484,o),
(165,464,o),
(119,430,cs),
(76,400,o),
(40,360,o),
(28,288,c)
);
}
);
width = 381;
}
);
note = twosuperior;
unicode = 178;
},
{
glyphname = brokenbar;
layers = (
{
hints = (
{
horizontal = 1;
place = (-138, 892);
place = (-138, 892);
type = Stem;
},
{
place = (86, 98);
place = (86, 98);
type = Stem;
}
);
layerId = m01;
shapes = (
{
closed = 1;
nodes = (
(86,-138,l),
(184,-138,l),
(184,245,l),
(86,245,l)
);
},
{
closed = 1;
nodes = (
(86,384,l),
(184,384,l),
(184,754,l),
(86,754,l)
);
}
);
width = 230;
}
);
note = brokenbar;
unicode = 166;
},
{
glyphname = minus;
kernLeft = minus;
kernRight = minus;
layers = (
{
hints = (
{
horizontal = 1;
place = (265, 129);
place = (265, 129);
type = Stem;
},
{
place = (40, 504);
place = (40, 504);
type = Stem;
}
);
layerId = m01;
shapes = (
{
closed = 1;
nodes = (
(40,265,l),
(519,265,l),
(544,394,l),
(66,394,l)
);
}
);
width = 557;
}
);
note = minus;
unicode = 8722;
},
{
glyphname = multiply;
layers = (
{
hints = (
{
horizontal = 1;
place = (82, 487);
place = (82, 487);
type = Stem;
},
{
place = (26, 525);
place = (26, 525);
type = Stem;
}
);
layerId = m01;
shapes = (
{
closed = 1;
nodes = (
(108,82,l),
(277,233,l),
(398,83,l),
(499,171,l),
(377,323,l),
(551,479,l),
(468,569,l),
(300,418,l),
(179,569,l),
(78,482,l),
(200,329,l),
(26,173,l)
);
}
);
width = 557;
}
);
note = multiply;
unicode = 215;
},
{
glyphname = exclam;
kernLeft = exclam;
layers = (
{
hints = (
{
horizontal = 1;
place = (0, 168);
place = (0, 168);
type = Stem;
},
{
horizontal = 1;
place = (715, -20);
target = down;
type = TopGhost;
},
{
place = (-4, 305);
place = (-4, 305);
type = Stem;
}
);
layerId = m01;
shapes = (
{
closed = 1;
nodes = (
(82,234,l),
(164,234,l),
(267,538,l),
(301,715,l),
(135,715,l),
(103,549,l)
);
},
{
closed = 1;
nodes = (
(-4,0,l),
(164,0,l),
(197,168,l),
(29,168,l)
);
}
);
width = 260;
}
);
note = exclam;
unicode = 33;
},
{
glyphname = quotedbl;
kernLeft = quotedbl;
kernRight = quotedbl;
layers = (
{
hints = (
{
horizontal = 1;
place = (446, 269);
place = (446, 269);
type = Stem;
},
{
place = (76, 390);
place = (76, 390);
type = Stem;
}
);
layerId = m01;
shapes = (
{
closed = 1;
nodes = (
(76,446,l),
(216,446,l),
(267,715,l),
(128,715,l)
);
},
{
closed = 1;
nodes = (
(276,446,l),
(415,446,l),
(466,715,l),
(327,715,l)
);
}
);
width = 418;
}
);
note = quotedbl;
unicode = 34;
},
{
glyphname = numbersign;
layers = (
{
hints = (
{
horizontal = 1;
place = (0, 21);
target = up;
type = BottomGhost;
},
{
horizontal = 1;
place = (173, 125);
place = (173, 125);
type = Stem;
},
{
horizontal = 1;
place = (399, 126);
place = (399, 126);
type = Stem;
},
{
horizontal = 1;
place = (686, -20);
target = down;
type = TopGhost;
},
{
place = (14, 588);
place = (14, 588);
type = Stem;
}
);
layerId = m01;
shapes = (
{
closed = 1;
nodes = (
(58,0,l),
(161,0,l),
(208,173,l),
(310,173,l),
(262,0,l),
(364,0,l),
(412,173,l),
(502,173,l),
(538,298,l),
(447,298,l),
(475,399,l),
(566,399,l),
(602,525,l),
(510,525,l),
(555,686,l),
(452,686,l),
(407,525,l),
(306,525,l),
(351,686,l),
(249,686,l),
(204,525,l),
(113,525,l),
(77,399,l),
(168,399,l),
(141,298,l),
(50,298,l),
(14,173,l),
(106,173,l)
);
},
{
closed = 1;
nodes = (
(243,298,l),
(271,399,l),
(372,399,l),
(345,298,l)
);
}
);
width = 579;
}
);
note = numbersign;
unicode = 35;
},
{
glyphname = dollar;
layers = (
{
hints = (
{
horizontal = 1;
place = (-14, 129);
place = (-14, 129);
type = Stem;
},
{
horizontal = 1;
place = (485, 214);
place = (485, 214);
type = Stem;
},
{
place = (77, 160);
place = (77, 160);
type = Stem;
},
{
place = (401, 165);
place = (401, 165);
type = Stem;
},
{
horizontal = 1;
place = (-9, 21);
target = up;
type = BottomGhost;
},
{
place = (451, 156);
place = (451, 156);
type = Stem;
},
{
horizontal = 1;
place = (574, 125);
place = (574, 125);
type = Stem;
},
{
place = (1, 164);
place = (1, 164);
type = Stem;
}
);
layerId = m01;
shapes = (
{
closed = 1;
nodes = (
(284,-14,ls),
(437,-14,o),
(566,56,o),
(566,210,cs),
(566,316,o),
(494,370,o),
(362,421,c),
(390,566,l),
(427,554,o),
(450,527,o),
(451,485,c),
(607,485,l),
(609,617,o),
(521,677,o),
(415,694,c),
(428,760,l),
(368,760,l),
(356,699,l),
(346,699,ls),
(191,700,o),
(77,625,o),
(77,486,cs),
(77,380,o),
(144,337,o),
(275,283,c),
(244,119,l),
(191,130,o),
(162,164,o),
(165,221,c),
(1,221,l),
(-7,79,o),
(89,8,o),
(219,-9,c),
(201,-103,l),
(261,-103,l),
(278,-14,l)
);
},
{
closed = 1;
nodes = (
(401,138,o),
(354,118,o),
(303,115,c),
(331,260,l),
(389,235,o),
(401,219,o),
(401,188,cs)
);
},
{
closed = 1;
nodes = (
(237,557,o),
(290,573,o),
(332,574,c),
(306,443,l),
(250,467,o),
(236,481,o),
(237,509,cs)
);
}
);
width = 602;
}
);
note = dollar;
unicode = 36;
},
{
glyphname = percent;
kernLeft = percent;
layers = (
{
hints = (
{
horizontal = 1;
place = (-17, 86);
place = (-17, 86);
type = Stem;
},
{
horizontal = 1;
place = (299, 86);
place = (299, 86);
type = Stem;
},
{
horizontal = 1;
place = (615, 85);
place = (615, 85);
type = Stem;
},
{
place = (59, 119);
place = (59, 119);
type = Stem;
},
{
place = (305, 119);
place = (305, 119);
type = Stem;
},
{
place = (698, 120);
place = (698, 120);
type = Stem;
},
{
horizontal = 1;
place = (0, 21);
target = up;
type = BottomGhost;
},
{
horizontal = 1;
place = (686, -20);
target = down;
type = TopGhost;
},
{
place = (453, 118);
place = (453, 118);
type = Stem;
}
);
layerId = m01;
shapes = (
{
closed = 1;
nodes = (
(186,385,o),
(178,421,o),
(178,455,cs),
(178,517,o),
(201,615,o),
(258,615,cs),
(293,615,o),
(305,583,o),
(305,547,cs),
(305,484,o),
(283,385,o),
(226,385,cs)
);
},
{
closed = 1;
nodes = (
(347,299,o),
(424,409,o),
(424,535,cs),
(424,635,o),
(360,700,o),
(262,700,cs),
(138,700,o),
(59,590,o),
(59,464,cs),
(59,369,o),
(120,299,o),
(221,299,cs)
);
},
{
closed = 1;
nodes = (
(138,0,l),
(233,0,l),
(740,686,l),
(645,686,l)
);
},
{
closed = 1;
nodes = (
(579,69,o),
(571,106,o),
(571,139,cs),
(571,201,o),
(594,300,o),
(651,300,cs),
(687,300,o),
(698,267,o),
(698,231,cs),
(698,168,o),
(676,69,o),
(619,69,cs)
);
},
{
closed = 1;
nodes = (
(741,-17,o),
(818,94,o),
(818,220,cs),
(818,319,o),
(754,384,o),
(655,384,cs),
(531,384,o),
(453,274,o),
(453,148,cs),
(453,53,o),
(514,-17,o),
(614,-17,cs)
);
}
);
width = 846;
}
);
note = percent;
unicode = 37;
},
{
glyphname = ampersand;
kernLeft = ampersand;
kernRight = ampersand;
layers = (
{
hints = (
{
horizontal = 1;
place = (-12, 128);
place = (-12, 128);
type = Stem;
},
{
horizontal = 1;
place = (604, 115);
place = (604, 115);
type = Stem;
},
{
place = (10, 166);
place = (10, 166);
type = Stem;
},
{
place = (425, 144);
place = (425, 144);
type = Stem;
},
{
horizontal = 1;
place = (0, 21);
target = up;
type = BottomGhost;
},
{
horizontal = 1;
place = (0, 139);
place = (0, 139);
type = Stem;
},
{
place = (167, 152);
place = (167, 152);
type = Stem;
}
);
layerId = m01;
shapes = (
{
closed = 1;
nodes = (
(318,-12,o),
(376,11,o),
(420,41,c),
(444,0,l),
(634,0,l),
(549,139,l),
(600,199,o),
(641,271,o),
(662,358,c),
(522,358,l),
(511,319,o),
(495,283,o),
(478,256,c),
(410,370,l),
(503,407,o),
(569,463,o),
(569,553,cs),
(569,670,o),
(472,719,o),
(374,719,cs),
(260,719,o),
(167,649,o),
(167,536,cs),
(167,489,o),
(181,448,o),
(203,414,c),
(100,378,o),
(10,308,o),
(10,188,cs),
(10,46,o),
(123,-12,o),
(246,-12,cs)
);
},
{
closed = 1;
nodes = (
(210,116,o),
(175,149,o),
(176,204,cs),
(177,259,o),
(217,295,o),
(261,313,c),
(359,147,l),
(333,129,o),
(303,116,o),
(267,116,cs)
);
},
{
closed = 1;
nodes = (
(332,480,o),
(319,508,o),
(319,538,cs),
(319,577,o),
(341,604,o),
(374,604,cs),
(410,604,o),
(425,576,o),
(425,547,cs),
(425,500,o),
(388,473,o),
(352,456,c)
);
}
);
width = 681;
}
);
note = ampersand;
unicode = 38;
},
{
glyphname = quotesingle;
kernLeft = quotedbl;
kernRight = quotedbl;
layers = (
{
hints = (
{
horizontal = 1;
place = (446, 269);
place = (446, 269);
type = Stem;
},
{
place = (76, 191);
place = (76, 191);
type = Stem;
}
);
layerId = m01;
shapes = (
{
closed = 1;
nodes = (
(76,446,l),
(216,446,l),
(267,715,l),
(128,715,l)
);
}
);
width = 219;
}
);
note = quotesingle;
unicode = 39;
},
{
glyphname = parenleft;
kernRight = parenleft;
layers = (
{
hints = (
{
horizontal = 1;
place = (-138, 892);
place = (-138, 892);
type = Stem;
},
{
place = (49, 154);
place = (49, 154);
type = Stem;
}
);
layerId = m01;
shapes = (
{
closed = 1;
nodes = (
(243,-138,l),
(220,-59,o),
(203,31,o),
(203,141,cs),
(203,372,o),
(293,578,o),
(424,754,c),
(282,754,l),
(141,597,o),
(49,398,o),
(49,157,cs),
(49,44,o),
(75,-56,o),
(112,-138,c)
);
}
);
width = 335;
}
);
note = parenleft;
unicode = 40;
},
{
glyphname = parenright;
kernLeft = parenright;
layers = (
{
hints = (
{
horizontal = 1;
place = (-138, 892);
place = (-138, 892);
type = Stem;
},
{
place = (151, 154);
place = (151, 154);
type = Stem;
}
);
layerId = m01;
shapes = (
{
closed = 1;
nodes = (
(73,-138,l),
(213,20,o),
(305,219,o),
(305,460,cs),
(305,573,o),
(279,672,o),
(243,754,c),
(111,754,l),
(135,676,o),
(151,586,o),
(151,476,cs),
(151,245,o),
(62,39,o),
(-70,-138,c)
);
}
);
width = 335;
}
);
note = parenright;
unicode = 41;
},
{
glyphname = asterisk;
kernLeft = asterisk;
kernRight = asterisk;
layers = (
{
hints = (
{
horizontal = 1;
place = (715, -20);
target = down;
type = TopGhost;
},
{
place = (84, 371);
place = (84, 371);
type = Stem;
}
);
layerId = m01;
shapes = (
{
closed = 1;
nodes = (
(308,352,l),
(389,400,l),
(332,502,l),
(455,534,l),
(438,617,l),
(323,586,l),
(347,715,l),
(255,715,l),
(231,589,l),
(126,636,l),
(84,556,l),
(189,510,l),
(98,414,l),
(160,357,l),
(252,457,l)
);
}
);
width = 428;
}
);
note = asterisk;
unicode = 42;
},
{
glyphname = plus;
kernLeft = minus;
kernRight = minus;
layers = (
{
hints = (
{
horizontal = 1;
place = (265, 129);
place = (265, 129);
type = Stem;
},
{
place = (40, 504);
place = (40, 504);
type = Stem;
}
);
layerId = m01;
shapes = (
{
closed = 1;
nodes = (
(175,79,l),
(312,79,l),
(348,265,l),
(519,265,l),
(544,394,l),
(373,394,l),
(409,579,l),
(271,579,l),
(236,394,l),
(66,394,l),
(40,265,l),
(211,265,l)
);
}
);
width = 557;
}
);
note = plus;
unicode = 43;
},
{
glyphname = comma;
kernLeft = comma;
kernRight = comma;
layers = (
{
hints = (
{
horizontal = 1;
place = (0, 168);
place = (0, 168);
type = Stem;
},
{
place = (-52, 234);
place = (-52, 234);
type = Stem;
}
);
layerId = m01;
shapes = (
{
closed = 1;
nodes = (
(-52,-179,l),
(6,-174,o),
(53,-157,o),
(86,-125,cs),
(118,-95,o),
(139,-51,o),
(151,11,cs),
(182,168,l),
(14,168,l),
(-19,0,l),
(59,0,l),
(49,-65,o),
(15,-97,o),
(-39,-109,c)
);
}
);
width = 231;
}
);
note = comma;
unicode = 44;
},
{
glyphname = hyphen;
kernLeft = hyphen;
kernRight = hyphen;
layers = (
{
hints = (
{
horizontal = 1;
place = (183, 137);
place = (183, 137);
type = Stem;
},
{
place = (16, 294);
place = (16, 294);
type = Stem;
}
);
layerId = m01;
shapes = (
{
closed = 1;
nodes = (
(16,183,l),
(284,183,l),
(310,320,l),
(43,320,l)
);
}
);
width = 330;
}
);
note = hyphen;
unicode = 45;
},
{
glyphname = period;
kernLeft = comma;
kernRight = comma;
layers = (
{
hints = (
{
horizontal = 1;
place = (0, 168);
place = (0, 168);
type = Stem;
},
{
place = (-19, 201);
place = (-19, 201);
type = Stem;
}
);
layerId = m01;
shapes = (
{
closed = 1;
nodes = (
(-19,0,l),
(149,0,l),
(182,168,l),
(14,168,l)
);
}
);
width = 231;
}
);
note = period;
unicode = 46;
},
{
glyphname = slash;
kernLeft = slash;
kernRight = slash;
layers = (
{
hints = (
{
horizontal = 1;
place = (0, 21);
target = up;
type = BottomGhost;
},
{
horizontal = 1;
place = (715, -20);
target = down;
type = TopGhost;
},
{
place = (-39, 540);
place = (-39, 540);
type = Stem;
}
);
layerId = m01;
shapes = (
{
closed = 1;
nodes = (
(-39,0,l),
(105,0,l),
(501,715,l),
(358,715,l)
);
}
);
width = 430;
}
);
note = slash;
unicode = 47;
},
{
glyphname = zero;
kernLeft = zero;
kernRight = zero;
layers = (
{
hints = (
{
horizontal = 1;
place = (-16, 131);
place = (-16, 131);
type = Stem;
},
{
horizontal = 1;
place = (570, 130);
place = (570, 130);
type = Stem;
},
{
place = (33, 169);
place = (33, 169);
type = Stem;
},
{
place = (473, 169);
place = (473, 169);
type = Stem;
}
);
layerId = m01;
shapes = (
{
closed = 1;
nodes = (
(222,115,o),
(202,185,o),
(202,258,cs),
(202,366,o),
(242,570,o),
(371,570,cs),
(454,570,o),
(473,495,o),
(473,424,cs),
(473,311,o),
(434,115,o),
(306,115,cs)
);
},
{
closed = 1;
nodes = (
(531,-16,o),
(642,201,o),
(642,412,cs),
(642,591,o),
(538,700,o),
(378,700,cs),
(156,700,o),
(33,485,o),
(33,273,cs),
(33,95,o),
(137,-16,o),
(302,-16,cs)
);
}
);
width = 643;
}
);
note = zero;
unicode = 48;
},
{
glyphname = one;
kernLeft = one;
kernRight = one;
layers = (
{
hints = (
{
horizontal = 1;
place = (0, 21);
target = up;
type = BottomGhost;
},
{
horizontal = 1;
place = (438, 114);
place = (438, 114);
type = Stem;
},
{
horizontal = 1;
place = (691, -20);
target = down;
type = TopGhost;
},
{
place = (52, 360);
place = (52, 360);
type = Stem;
}
);
layerId = m01;
shapes = (
{
closed = 1;
nodes = (
(112,0,l),
(278,0,l),
(412,691,l),
(281,691,l),
(245,593,o),
(173,555,o),
(74,552,c),
(52,438,l),
(196,438,l)
);
}
);
width = 391;
}
);
note = one;
unicode = 49;
},
{
glyphname = two;
kernLeft = two;
kernRight = two;
layers = (
{
hints = (
{
horizontal = 1;
place = (0, 138);
place = (0, 138);
type = Stem;
},
{
horizontal = 1;
place = (564, 135);
place = (564, 135);
type = Stem;
},
{
place = (412, 169);
place = (412, 169);
type = Stem;
}
);
layerId = m01;
shapes = (
{
closed = 1;
nodes = (
(490,0,l),
(516,138,l),
(216,138,l),
(216,139,l),
(266,187,o),
(349,223,o),
(423,269,cs),
(508,320,o),
(581,382,o),
(581,500,cs),
(581,635,o),
(473,699,o),
(348,699,cs),
(254,699,o),
(179,664,o),
(134,613,cs),
(93,569,o),
(70,516,o),
(59,431,c),
(216,431,l),
(224,480,o),
(238,510,o),
(259,533,cs),
(280,553,o),
(306,564,o),
(337,564,cs),
(386,564,o),
(412,534,o),
(412,488,cs),
(412,441,o),
(389,408,o),
(339,375,cs),
(286,339,o),
(207,299,o),
(133,246,cs),
(55,192,o),
(-7,127,o),
(-29,0,c)
);
}
);
width = 571;
}
);
note = two;
unicode = 50;
},
{
glyphname = three;
kernLeft = three;
kernRight = three;
layers = (
{
hints = (
{
horizontal = 1;
place = (-16, 128);
place = (-16, 128);
type = Stem;
},
{
horizontal = 1;
place = (299, 116);
place = (299, 116);
type = Stem;
},
{
horizontal = 1;
place = (574, 125);
place = (574, 125);
type = Stem;
},
{
place = (12, 159);
place = (12, 159);
type = Stem;
},
{
place = (391, 168);
place = (391, 168);
type = Stem;
},
{
place = (420, 164);
place = (420, 164);
type = Stem;
}
);
layerId = m01;
shapes = (
{
closed = 1;
nodes = (
(434,-16,o),
(559,68,o),
(559,210,cs),
(559,291,o),
(512,336,o),
(459,356,c),
(459,358,l),
(537,384,o),
(584,439,o),
(584,518,cs),
(584,642,o),
(472,699,o),
(343,699,cs),
(188,699,o),
(80,607,o),
(62,468,c),
(220,468,l),
(231,530,o),
(268,574,o),
(336,574,cs),
(388,574,o),
(420,544,o),
(420,500,cs),
(420,439,o),
(370,415,o),
(315,415,cs),
(271,415,l),
(249,299,l),
(278,299,ls),
(353,299,o),
(391,266,o),
(391,211,cs),
(391,150,o),
(346,112,o),
(284,112,cs),
(199,112,o),
(168,166,o),
(171,237,c),
(12,237,l),
(0,78,o),
(112,-16,o),
(282,-16,cs)
);
}
);
width = 589;
}
);
note = three;
unicode = 51;
},
{
glyphname = four;
kernLeft = four;
kernRight = four;
layers = (
{
hints = (
{
horizontal = 1;
place = (0, 21);
target = up;
type = BottomGhost;
},
{
horizontal = 1;
place = (153, 127);
place = (153, 127);
type = Stem;
},
{
horizontal = 1;
place = (692, -20);
target = down;
type = TopGhost;
},
{
place = (-1, 598);
place = (-1, 598);
type = Stem;
}
);
layerId = m01;
shapes = (
{
closed = 1;
nodes = (
(285,0,l),
(445,0,l),
(474,153,l),
(572,153,l),
(597,280,l),
(499,280,l),
(579,692,l),
(417,692,l),
(30,307,l),
(-1,153,l),
(314,153,l)
);
},
{
closed = 1;
nodes = (
(156,280,l),
(156,282,l),
(381,509,l),
(383,509,l),
(339,280,l)
);
}
);
width = 610;
}
);
note = four;
unicode = 52;
},
{
glyphname = five;
kernLeft = five;
kernRight = five;
layers = (
{
hints = (
{
horizontal = 1;
place = (-16, 134);
place = (-16, 134);
type = Stem;
},
{
horizontal = 1;
place = (349, 120);
place = (349, 120);
type = Stem;
},
{
horizontal = 1;
place = (550, 135);
place = (550, 135);
type = Stem;
},
{
place = (394, 170);
place = (394, 170);
type = Stem;
},
{
horizontal = 1;
place = (306, 119);
place = (306, 119);
type = Stem;
}
);
layerId = m01;
shapes = (
{
closed = 1;
nodes = (
(441,-16,o),
(564,95,o),
(564,260,cs),
(564,389,o),
(483,469,o),
(360,469,cs),
(298,469,o),
(252,449,o),
(225,425,c),
(222,425,l),
(260,550,l),
(570,550,l),
(596,685,l),
(158,685,l),
(46,306,l),
(198,306,l),
(221,332,o),
(255,349,o),
(295,349,cs),
(360,349,o),
(394,307,o),
(394,248,cs),
(394,170,o),
(342,118,o),
(272,118,cs),
(209,118,o),
(168,153,o),
(164,205,c),
(1,205,l),
(6,50,o),
(128,-16,o),
(268,-16,cs)
);
}
);
width = 588;
}
);
note = five;
unicode = 53;
},
{
glyphname = six;
kernLeft = six;
kernRight = six;
layers = (
{
hints = (
{
horizontal = 1;
place = (-16, 125);
place = (-16, 125);
type = Stem;
},
{
horizontal = 1;
place = (348, 123);
place = (348, 123);
type = Stem;
},
{
horizontal = 1;
place = (580, 119);
place = (580, 119);
type = Stem;
},
{
place = (31, 159);
place = (31, 159);
type = Stem;
},
{
place = (423, 159);
place = (423, 159);
type = Stem;
}
);
layerId = m01;
shapes = (
{
closed = 1;
nodes = (
(458,-15,o),
(582,93,o),
(582,256,cs),
(583,392,o),
(482,471,o),
(374,471,cs),
(306,471,o),
(255,444,o),
(217,405,c),
(215,405,l),
(242,511,o),
(295,580,o),
(372,580,cs),
(420,580,o),
(450,557,o),
(454,516,c),
(612,516,l),
(601,650,o),
(498,699,o),
(382,699,cs),
(295,699,o),
(225,670,o),
(170,619,cs),
(74,531,o),
(31,380,o),
(31,258,cs),
(30,83,o),
(135,-16,o),
(296,-16,cs)
);
},
{
closed = 1;
nodes = (
(231,109,o),
(190,152,o),
(190,215,cs),
(190,295,o),
(248,348,o),
(319,348,cs),
(386,348,o),
(423,303,o),
(423,243,cs),
(423,161,o),
(367,109,o),
(295,109,cs)
);
}
);
width = 603;
}
);
note = six;
unicode = 54;
},
{
glyphname = seven;
kernLeft = seven;
kernRight = seven;
layers = (
{
hints = (
{
horizontal = 1;
place = (0, 21);
target = up;
type = BottomGhost;
},
{
horizontal = 1;
place = (543, 142);
place = (543, 142);
type = Stem;
},
{
place = (71, 528);
place = (71, 528);
type = Stem;
}
);
layerId = m01;
shapes = (
{
closed = 1;
nodes = (
(245,0,l),
(294,235,o),
(432,435,o),
(574,557,c),
(599,685,l),
(100,685,l),
(73,543,l),
(392,543,l),
(392,541,l),
(278,441,o),
(124,247,o),
(71,0,c)
);
}
);
width = 536;
}
);
note = seven;
unicode = 55;
},
{
glyphname = eight;
kernLeft = eight;
kernRight = eight;
layers = (
{
hints = (
{
horizontal = 1;
place = (-16, 124);
place = (-16, 124);
type = Stem;
},
{
horizontal = 1;
place = (310, 106);
place = (310, 106);
type = Stem;
},
{
horizontal = 1;
place = (583, 116);
place = (583, 116);
type = Stem;
},
{
place = (7, 166);
place = (7, 166);
type = Stem;
},
{
place = (408, 164);
place = (408, 164);
type = Stem;
},
{
place = (88, 154);
place = (88, 154);
type = Stem;
},
{
place = (442, 156);
place = (442, 156);
type = Stem;
}
);
layerId = m01;
shapes = (
{
closed = 1;
nodes = (
(432,-16,o),
(572,58,o),
(572,212,cs),
(572,275,o),
(542,330,o),
(484,358,c),
(484,361,l),
(556,393,o),
(598,445,o),
(598,519,cs),
(598,647,o),
(472,699,o),
(351,699,cs),
(214,699,o),
(88,626,o),
(88,495,cs),
(88,446,o),
(109,401,o),
(155,374,c),
(155,371,l),
(67,342,o),
(7,284,o),
(7,185,cs),
(6,39,o),
(152,-16,o),
(281,-16,cs)
);
},
{
closed = 1;
nodes = (
(222,108,o),
(173,141,o),
(173,201,cs),
(173,275,o),
(237,310,o),
(297,310,cs),
(359,310,o),
(407,278,o),
(408,218,cs),
(408,146,o),
(351,109,o),
(287,108,cs)
);
},
{
closed = 1;
nodes = (
(282,416,o),
(241,440,o),
(242,494,cs),
(242,556,o),
(295,583,o),
(348,583,cs),
(402,583,o),
(441,554,o),
(442,504,cs),
(442,441,o),
(393,416,o),
(338,416,cs)
);
}
);
width = 599;
}
);
note = eight;
unicode = 56;
},
{
glyphname = nine;
kernLeft = nine;
kernRight = nine;
layers = (
{
hints = (
{
horizontal = 1;
place = (-16, 120);
place = (-16, 120);
type = Stem;
},
{
horizontal = 1;
place = (213, 124);
place = (213, 124);
type = Stem;
},
{
horizontal = 1;
place = (575, 124);
place = (575, 124);
type = Stem;
},
{
place = (53, 162);
place = (53, 162);
type = Stem;
},
{
place = (450, 158);
place = (450, 158);
type = Stem;
}
);
layerId = m01;
shapes = (
{
closed = 1;
nodes = (
(356,-16,o),
(431,14,o),
(486,71,cs),
(571,159,o),
(608,299,o),
(608,431,cs),
(608,611,o),
(500,699,o),
(343,699,cs),
(183,699,o),
(53,591,o),
(53,422,cs),
(53,289,o),
(151,213,o),
(268,213,cs),
(335,213,o),
(384,243,o),
(422,279,c),
(424,279,l),
(398,166,o),
(351,104,o),
(268,104,cs),
(217,104,o),
(185,131,o),
(180,170,c),
(20,170,l),
(30,35,o),
(142,-16,o),
(260,-16,cs)
);
},
{
closed = 1;
nodes = (
(255,337,o),
(214,378,o),
(215,441,cs),
(215,521,o),
(270,575,o),
(343,575,cs),
(410,575,o),
(450,531,o),
(450,468,cs),
(450,386,o),
(392,337,o),
(321,337,cs)
);
}
);
width = 607;
}
);
note = nine;
unicode = 57;
},
{
glyphname = colon;
kernLeft = colon;
kernRight = colon;
layers = (
{
hints = (
{
horizontal = 1;
place = (0, 168);
place = (0, 168);
type = Stem;
},
{
horizontal = 1;
place = (310, 168);
place = (310, 168);
type = Stem;
},
{
place = (-16, 261);
place = (-16, 261);
type = Stem;
}
);
layerId = m01;
shapes = (
{
closed = 1;
nodes = (
(-16,0,l),
(152,0,l),
(185,168,l),
(17,168,l)
);
},
{
closed = 1;
nodes = (
(45,310,l),
(212,310,l),
(245,478,l),
(77,478,l)
);
}
);
width = 237;
}
);
note = colon;
unicode = 58;
},
{
glyphname = semicolon;
kernLeft = colon;
kernRight = colon;
layers = (
{
hints = (
{
horizontal = 1;
place = (0, 168);
place = (0, 168);
type = Stem;
},
{
horizontal = 1;
place = (310, 168);
place = (310, 168);
type = Stem;
},
{
place = (-49, 294);
place = (-49, 294);
type = Stem;
}
);
layerId = m01;
shapes = (
{
closed = 1;
nodes = (
(-49,-179,l),
(9,-174,o),
(56,-157,o),
(89,-125,cs),
(121,-95,o),
(142,-51,o),
(154,11,cs),
(185,168,l),
(17,168,l),
(-16,0,l),
(62,0,l),
(52,-65,o),
(18,-97,o),
(-36,-109,c)
);
},
{
closed = 1;
nodes = (
(45,310,l),
(212,310,l),
(245,478,l),
(77,478,l)
);
}
);
width = 237;
}
);
note = semicolon;
unicode = 59;
},
{
glyphname = less;
layers = (
{
hints = (
{
horizontal = 1;
place = (63, 491);
place = (63, 491);
type = Stem;
},
{
place = (40, 465);
place = (40, 465);
type = Stem;
}
);
layerId = m01;
shapes = (
{
closed = 1;
nodes = (
(410,63,l),
(438,210,l),
(271,278,ls),
(234,293,o),
(183,309,o),
(183,309,c),
(183,311,l),
(183,311,o),
(242,328,o),
(284,343,cs),
(477,410,l),
(505,554,l),
(69,394,l),
(40,247,l)
);
}
);
width = 494;
}
);
note = less;
unicode = 60;
},
{
glyphname = equal;
layers = (
{
hints = (
{
horizontal = 1;
place = (141, 125);
place = (141, 125);
type = Stem;
},
{
horizontal = 1;
place = (353, 125);
place = (353, 125);
type = Stem;
},
{
place = (24, 527);
place = (24, 527);
type = Stem;
}
);
layerId = m01;
shapes = (
{
closed = 1;
nodes = (
(24,141,l),
(486,141,l),
(510,266,l),
(49,266,l)
);
},
{
closed = 1;
nodes = (
(65,353,l),
(527,353,l),
(551,478,l),
(90,478,l)
);
}
);
width = 554;
}
);
note = equal;
unicode = 61;
},
{
glyphname = greater;
layers = (
{
hints = (
{
horizontal = 1;
place = (64, 490);
place = (64, 490);
type = Stem;
},
{
place = (8, 465);
place = (8, 465);
type = Stem;
}
);
layerId = m01;
shapes = (
{
closed = 1;
nodes = (
(8,64,l),
(444,224,l),
(473,370,l),
(103,554,l),
(75,408,l),
(242,339,ls),
(279,324,o),
(330,308,o),
(330,308,c),
(330,306,l),
(330,306,o),
(271,290,o),
(229,275,cs),
(36,207,l)
);
}
);
width = 494;
}
);
note = greater;
unicode = 62;
},
{
glyphname = question;
kernLeft = question;
layers = (
{
hints = (
{
horizontal = 1;
place = (0, 168);
place = (0, 168);
type = Stem;
},
{
horizontal = 1;
place = (594, 134);
place = (594, 134);
type = Stem;
},
{
place = (407, 169);
place = (407, 169);
type = Stem;
}
);
layerId = m01;
shapes = (
{
closed = 1;
nodes = (
(325,234,l),
(330,263,o),
(338,282,o),
(357,298,cs),
(376,314,o),
(404,327,o),
(453,354,cs),
(533,398,o),
(576,456,o),
(576,542,cs),
(576,679,o),
(456,728,o),
(342,728,cs),
(191,728,o),
(81,645,o),
(55,490,c),
(216,490,l),
(228,561,o),
(274,594,o),
(329,594,cs),
(376,594,o),
(407,571,o),
(407,526,cs),
(407,462,o),
(333,439,o),
(283,405,cs),
(230,369,o),
(201,338,o),
(181,234,c)
);
},
{
closed = 1;
nodes = (
(122,0,l),
(290,0,l),
(323,168,l),
(155,168,l)
);
}
);
width = 544;
}
);
note = question;
unicode = 63;
},
{
glyphname = at;
kernLeft = at;
kernRight = at;
layers = (
{
hints = (
{
horizontal = 1;
place = (-109, 85);
place = (-109, 85);
type = Stem;
},
{
horizontal = 1;
place = (78, 86);
place = (78, 86);
type = Stem;
},
{
horizontal = 1;
place = (412, 106);
place = (412, 106);
type = Stem;
},
{
horizontal = 1;
place = (628, 86);
place = (628, 86);
type = Stem;
},
{
place = (38, 101);
place = (38, 101);
type = Stem;
},
{
place = (228, 144);
place = (228, 144);
type = Stem;
},
{
place = (528, 111);
place = (528, 111);
type = Stem;
},
{
place = (787, 97);
place = (787, 97);
type = Stem;
},
{
horizontal = 1;
place = (81, 107);
place = (81, 107);
type = Stem;
}
);
layerId = m01;
shapes = (
{
closed = 1;
nodes = (
(512,-109,o),
(585,-96,o),
(649,-66,c),
(620,13,l),
(566,-9,o),
(503,-24,o),
(438,-24,cs),
(243,-24,o),
(139,96,o),
(139,267,cs),
(139,494,o),
(297,628,o),
(488,628,cs),
(665,628,o),
(787,537,o),
(787,352,cs),
(787,269,o),
(757,164,o),
(674,164,cs),
(641,164,o),
(632,188,o),
(643,236,cs),
(704,507,l),
(567,507,l),
(554,446,l),
(552,446,l),
(535,491,o),
(501,518,o),
(444,518,cs),
(300,518,o),
(228,377,o),
(228,254,cs),
(228,146,o),
(283,81,o),
(379,81,cs),
(433,81,o),
(480,110,o),
(514,159,c),
(516,159,l),
(533,106,o),
(581,78,o),
(656,78,cs),
(817,78,o),
(884,225,o),
(884,355,cs),
(884,586,o),
(705,714,o),
(490,714,cs),
(229,714,o),
(38,521,o),
(38,266,cs),
(38,31,o),
(203,-109,o),
(433,-109,cs)
);
},
{
closed = 1;
nodes = (
(391,188,o),
(372,220,o),
(372,261,cs),
(372,330,o),
(402,412,o),
(471,412,cs),
(508,412,o),
(528,381,o),
(528,337,cs),
(528,271,o),
(497,188,o),
(428,188,cs)
);
}
);
width = 899;
}
);
note = at;
unicode = 64;
},
{
glyphname = A;
kernLeft = A;
kernRight = A;
layers = (
{
hints = (
{
horizontal = 1;
place = (0, 21);
target = up;
type = BottomGhost;
},
{
horizontal = 1;
place = (130, 126);
place = (130, 126);
type = Stem;
},
{
horizontal = 1;
place = (715, -20);
target = down;
type = TopGhost;
},
{
place = (-52, 681);
place = (-52, 681);
type = Stem;
}
);
layerId = m01;
shapes = (
{
closed = 1;
nodes = (
(-52,0,l),
(125,0,l),
(188,130,l),
(430,130,l),
(448,0,l),
(629,0,l),
(504,715,l),
(326,715,l)
);
},
{
closed = 1;
nodes = (
(334,429,ls),
(351,465,o),
(379,531,o),
(379,531,c),
(381,531,l),
(381,531,o),
(386,466,o),
(391,428,cs),
(414,256,l),
(250,256,l)
);
}
);
width = 676;
}
);
note = A;
unicode = 65;
},
{
glyphname = B;
layers = (
{
hints = (
{
horizontal = 1;
place = (0, 141);
place = (0, 141);
type = Stem;
},
{
horizontal = 1;
place = (312, 119);
place = (312, 119);
type = Stem;
},
{
horizontal = 1;
place = (577, 138);
place = (577, 138);
type = Stem;
},
{
place = (464, 171);
place = (464, 171);
type = Stem;
},
{
place = (490, 169);
place = (490, 169);
type = Stem;
}
);
layerId = m01;
shapes = (
{
closed = 1;
nodes = (
(-2,0,l),
(361,0,ls),
(446,0,o),
(503,21,o),
(551,59,cs),
(608,103,o),
(635,166,o),
(635,231,cs),
(635,305,o),
(597,354,o),
(534,377,c),
(534,380,l),
(611,405,o),
(659,462,o),
(659,541,cs),
(659,600,o),
(635,643,o),
(600,671,cs),
(564,699,o),
(511,715,o),
(442,715,cs),
(136,715,l)
);
},
{
closed = 1;
nodes = (
(198,141,l),
(231,312,l),
(378,312,ls),
(428,312,o),
(464,286,o),
(464,235,cs),
(464,170,o),
(418,141,o),
(356,141,cs)
);
},
{
closed = 1;
nodes = (
(254,431,l),
(282,577,l),
(417,577,ls),
(465,577,o),
(490,551,o),
(490,513,cs),
(490,449,o),
(441,431,o),
(396,431,cs)
);
}
);
width = 657;
}
);
note = B;
unicode = 66;
},
{
glyphname = C;
kernLeft = C;
kernRight = C;
layers = (
{
hints = (
{
horizontal = 1;
place = (-16, 144);
place = (-16, 144);
type = Stem;
},
{
horizontal = 1;
place = (583, 146);
place = (583, 146);
type = Stem;
},
{
place = (32, 178);
place = (32, 178);
type = Stem;
}
);
layerId = m01;
shapes = (
{
closed = 1;
nodes = (
(429,-16,o),
(498,4,o),
(558,49,cs),
(617,94,o),
(658,162,o),
(677,248,c),
(502,248,l),
(481,171,o),
(426,128,o),
(351,128,cs),
(246,128,o),
(210,209,o),
(210,299,cs),
(210,432,o),
(270,583,o),
(410,583,cs),
(488,583,o),
(526,541,o),
(530,469,c),
(704,469,l),
(699,559,o),
(669,628,o),
(612,672,cs),
(564,710,o),
(499,729,o),
(417,729,cs),
(178,729,o),
(32,519,o),
(32,295,cs),
(32,102,o),
(152,-16,o),
(345,-16,cs)
);
}
);
width = 690;
}
);
note = C;
unicode = 67;
},
{
glyphname = D;
kernRight = Eth;
layers = (
{
hints = (
{
horizontal = 1;
place = (0, 148);
place = (0, 148);
type = Stem;
},
{
horizontal = 1;
place = (568, 147);
place = (568, 147);
type = Stem;
},
{
place = (516, 178);
place = (516, 178);
type = Stem;
}
);
layerId = m01;
shapes = (
{
closed = 1;
nodes = (
(-2,0,l),
(310,0,ls),
(426,0,o),
(525,40,o),
(590,109,cs),
(658,182,o),
(694,281,o),
(694,410,cs),
(694,607,o),
(573,715,o),
(392,715,cs),
(136,715,l)
);
},
{
closed = 1;
nodes = (
(201,148,l),
(282,568,l),
(365,568,ls),
(464,568,o),
(516,510,o),
(516,401,cs),
(516,248,o),
(442,148,o),
(310,148,cs)
);
}
);
width = 689;
}
);
note = D;
unicode = 68;
},
{
glyphname = E;
kernRight = E;
layers = (
{
hints = (
{
horizontal = 1;
place = (0, 149);
place = (0, 149);
type = Stem;
},
{
horizontal = 1;
place = (304, 136);
place = (304, 136);
type = Stem;
},
{
horizontal = 1;
place = (571, 144);
place = (571, 144);
type = Stem;
},
{
place = (-2, 657);
place = (-2, 657);
type = Stem;
}
);
layerId = m01;
shapes = (
{
closed = 1;
nodes = (
(-2,0,l),
(528,0,l),
(557,149,l),
(201,149,l),
(231,304,l),
(528,304,l),
(554,440,l),
(258,440,l),
(283,571,l),
(627,571,l),
(655,715,l),
(136,715,l)
);
}
);
width = 608;
}
);
note = E;
unicode = 69;
},
{
glyphname = F;
kernRight = F;
layers = (
{
hints = (
{
horizontal = 1;
place = (0, 21);
target = up;
type = BottomGhost;
},
{
horizontal = 1;
place = (279, 142);
place = (279, 142);
type = Stem;
},
{
horizontal = 1;
place = (567, 148);
place = (567, 148);
type = Stem;
},
{
place = (-2, 651);
place = (-2, 651);
type = Stem;
}
);
layerId = m01;
shapes = (
{
closed = 1;
nodes = (
(-2,0,l),
(173,0,l),
(226,279,l),
(515,279,l),
(543,421,l),
(254,421,l),
(282,567,l),
(621,567,l),
(649,715,l),
(136,715,l)
);
}
);
width = 582;
}
);
note = F;
unicode = 70;
},
{
glyphname = G;
kernLeft = C;
kernRight = G;
layers = (
{
hints = (
{
horizontal = 1;
place = (-16, 142);
place = (-16, 142);
type = Stem;
},
{
horizontal = 1;
place = (255, 129);
place = (255, 129);
type = Stem;
},
{
horizontal = 1;
place = (584, 145);
place = (584, 145);
type = Stem;
},
{
place = (31, 179);
place = (31, 179);
type = Stem;
},
{
horizontal = 1;
place = (0, 21);
target = up;
type = BottomGhost;
}
);
layerId = m01;
shapes = (
{
closed = 1;
nodes = (
(403,-16,o),
(475,21,o),
(518,80,c),
(520,80,l),
(515,0,l),
(637,0,l),
(711,384,l),
(418,384,l),
(393,255,l),
(524,255,l),
(507,176,o),
(448,126,o),
(361,126,cs),
(255,126,o),
(210,193,o),
(210,297,cs),
(210,440,o),
(280,584,o),
(419,584,cs),
(491,584,o),
(536,545,o),
(543,481,c),
(714,481,l),
(707,655,o),
(579,728,o),
(427,729,cs),
(182,729,o),
(31,514,o),
(31,293,cs),
(31,203,o),
(55,133,o),
(97,82,cs),
(149,19,o),
(216,-16,o),
(320,-16,cs)
);
}
);
width = 720;
}
);
note = G;
unicode = 71;
},
{
glyphname = H;
layers = (
{
hints = (
{
horizontal = 1;
place = (0, 21);
target = up;
type = BottomGhost;
},
{
horizontal = 1;
place = (299, 144);
place = (299, 144);
type = Stem;
},
{
horizontal = 1;
place = (715, -20);
target = down;
type = TopGhost;
},
{
place = (-2, 724);
place = (-2, 724);
type = Stem;
}
);
layerId = m01;
shapes = (
{
closed = 1;
nodes = (
(-2,0,l),
(173,0,l),
(230,299,l),
(467,299,l),
(410,0,l),
(584,0,l),
(722,715,l),
(548,715,l),
(495,443,l),
(258,443,l),
(311,715,l),
(136,715,l)
);
}
);
width = 682;
}
);
note = H;
unicode = 72;
},
{
glyphname = I;
layers = (
{
hints = (
{
horizontal = 1;
place = (0, 21);
target = up;
type = BottomGhost;
},
{
horizontal = 1;
place = (715, -20);
target = down;
type = TopGhost;
},
{
place = (-2, 313);
place = (-2, 313);
type = Stem;
}
);
layerId = m01;
shapes = (
{
closed = 1;
nodes = (
(-2,0,l),
(173,0,l),
(311,715,l),
(137,715,l)
);
}
);
width = 272;
}
);
note = I;
unicode = 73;
},
{
glyphname = J;
kernLeft = J;
kernRight = J;
layers = (
{
hints = (
{
horizontal = 1;
place = (-13, 145);
place = (-13, 145);
type = Stem;
},
{
horizontal = 1;
place = (715, -20);
target = down;
type = TopGhost;
},
{
place = (-2, 161);
place = (-2, 161);
type = Stem;
}
);
layerId = m01;
shapes = (
{
closed = 1;
nodes = (
(308,-13,o),
(368,13,o),
(411,54,cs),
(449,90,o),
(469,136,o),
(480,194,cs),
(580,715,l),
(407,715,l),
(309,211,ls),
(300,162,o),
(278,132,o),
(228,132,cs),
(171,132,o),
(151,166,o),
(162,223,cs),
(173,278,l),
(14,278,l),
(4,230,ls),
(-30,60,o),
(79,-13,o),
(222,-13,cs)
);
}
);
width = 534;
}
);
note = J;
unicode = 74;
},
{
glyphname = K;
kernRight = K;
layers = (
{
hints = (
{
horizontal = 1;
place = (0, 21);
target = up;
type = BottomGhost;
},
{
horizontal = 1;
place = (715, -20);
target = down;
type = TopGhost;
},
{
place = (-2, 749);
place = (-2, 749);
type = Stem;
}
);
layerId = m01;
shapes = (
{
closed = 1;
nodes = (
(441,0,l),
(632,0,l),
(433,428,l),
(747,715,l),
(540,715,l),
(260,451,l),
(311,715,l),
(136,715,l),
(-2,0,l),
(173,0,l),
(220,243,l),
(298,314,l)
);
}
);
width = 675;
}
);
note = K;
unicode = 75;
},
{
glyphname = L;
kernRight = L;
layers = (
{
hints = (
{
horizontal = 1;
place = (0, 149);
place = (0, 149);
type = Stem;
},
{
horizontal = 1;
place = (715, -20);
target = down;
type = TopGhost;
},
{
place = (-2, 511);
place = (-2, 511);
type = Stem;
}
);
layerId = m01;
shapes = (
{
closed = 1;
nodes = (
(-2,0,l),
(481,0,l),
(509,149,l),
(201,149,l),
(311,715,l),
(136,715,l)
);
}
);
width = 546;
}
);
note = L;
unicode = 76;
},
{
glyphname = M;
layers = (
{
hints = (
{
horizontal = 1;
place = (0, 21);
target = up;
type = BottomGhost;
},
{
horizontal = 1;
place = (715, -20);
target = down;
type = TopGhost;
},
{
place = (-2, 860);
place = (-2, 860);
type = Stem;
}
);
layerId = m01;
shapes = (
{
closed = 1;
nodes = (
(-2,0,l),
(154,0,l),
(222,354,ls),
(231,401,o),
(249,504,o),
(249,504,c),
(251,504,l),
(251,504,o),
(255,401,o),
(258,361,cs),
(286,0,l),
(430,0,l),
(595,360,ls),
(620,414,o),
(659,504,o),
(659,504,c),
(661,504,l),
(661,504,o),
(639,409,o),
(628,353,cs),
(560,0,l),
(720,0,l),
(858,715,l),
(618,715,l),
(478,412,ls),
(440,330,o),
(404,237,o),
(404,237,c),
(403,237,l),
(403,237,o),
(397,343,o),
(391,424,cs),
(368,715,l),
(136,715,l)
);
}
);
width = 821;
}
);
note = M;
unicode = 77;
},
{
glyphname = N;
layers = (
{
hints = (
{
horizontal = 1;
place = (0, 21);
target = up;
type = BottomGhost;
},
{
horizontal = 1;
place = (715, -20);
target = down;
type = TopGhost;
},
{
place = (-2, 729);
place = (-2, 729);
type = Stem;
}
);
layerId = m01;
shapes = (
{
closed = 1;
nodes = (
(-2,0,l),
(167,0,l),
(255,455,l),
(257,455,l),
(257,455,o),
(274,390,o),
(292,341,cs),
(414,0,l),
(589,0,l),
(727,715,l),
(558,715,l),
(470,263,l),
(468,263,l),
(468,263,o),
(456,309,o),
(436,364,cs),
(311,715,l),
(136,715,l)
);
}
);
width = 687;
}
);
note = N;
unicode = 78;
},
{
glyphname = O;
kernLeft = C;
kernRight = O;
layers = (
{
hints = (
{
horizontal = 1;
place = (-17, 143);
place = (-17, 143);
type = Stem;
},
{
horizontal = 1;
place = (587, 142);
place = (587, 142);
type = Stem;
},
{
place = (32, 177);
place = (32, 177);
type = Stem;
},
{
place = (556, 177);
place = (556, 177);
type = Stem;
}
);
layerId = m01;
shapes = (
{
closed = 1;
nodes = (
(251,126,o),
(209,203,o),
(209,297,cs),
(209,427,o),
(266,586,o),
(408,587,cs),
(514,587,o),
(556,509,o),
(556,409,cs),
(556,281,o),
(501,126,o),
(359,126,cs)
);
},
{
closed = 1;
nodes = (
(592,-16,o),
(733,184,o),
(733,411,cs),
(733,610,o),
(607,729,o),
(416,729,cs),
(178,729,o),
(33,527,o),
(32,295,cs),
(31,93,o),
(169,-17,o),
(354,-17,cs)
);
}
);
width = 727;
}
);
note = O;
unicode = 79;
},
{
glyphname = P;
kernRight = P;
layers = (
{
hints = (
{
horizontal = 1;
place = (0, 21);
target = up;
type = BottomGhost;
},
{
horizontal = 1;
place = (239, 139);
place = (239, 139);
type = Stem;
},
{
horizontal = 1;
place = (567, 148);
place = (567, 148);
type = Stem;
},
{
place = (489, 176);
place = (489, 176);
type = Stem;
}
);
layerId = m01;
shapes = (
{
closed = 1;
nodes = (
(-2,0,l),
(175,0,l),
(221,239,l),
(392,239,ls),
(552,239,o),
(665,337,o),
(665,498,cs),
(665,561,o),
(646,610,o),
(612,646,cs),
(571,690,o),
(509,715,o),
(417,715,cs),
(136,715,l)
);
},
{
closed = 1;
nodes = (
(248,378,l),
(285,567,l),
(401,567,ls),
(459,567,o),
(489,539,o),
(489,486,cs),
(489,412,o),
(436,378,o),
(377,378,cs)
);
}
);
width = 638;
}
);
note = P;
unicode = 80;
},
{
glyphname = Q;
kernLeft = C;
kernRight = Q;
layers = (
{
hints = (
{
horizontal = 1;
place = (-17, 142);
place = (-17, 142);
type = Stem;
},
{
horizontal = 1;
place = (587, 142);
place = (587, 142);
type = Stem;
},
{
place = (32, 177);
place = (32, 177);
type = Stem;
},
{
place = (556, 177);
place = (556, 177);
type = Stem;
}
);
layerId = m01;
shapes = (
{
closed = 1;
nodes = (
(598,-55,l),
(686,32,l),
(620,97,l),
(693,177,o),
(733,290,o),
(733,411,cs),
(733,610,o),
(607,729,o),
(414,729,cs),
(176,729,o),
(33,527,o),
(32,295,cs),
(31,93,o),
(169,-17,o),
(354,-17,cs),
(416,-16,o),
(472,-2,o),
(521,22,c)
);
},
{
closed = 1;
nodes = (
(251,125,o),
(209,203,o),
(209,297,cs),
(209,427,o),
(266,586,o),
(408,587,cs),
(514,587,o),
(556,509,o),
(556,409,cs),
(556,334,o),
(543,260,o),
(510,207,c),
(435,282,l),
(346,197,l),
(411,131,l),
(395,127,o),
(378,125,o),
(359,125,cs)
);
}
);
width = 727;
}
);
note = Q;
unicode = 81;
},
{
glyphname = R;
kernRight = R;
layers = (
{
hints = (
{
horizontal = 1;
place = (0, 9);
place = (0, 9);
type = Stem;
},
{
horizontal = 1;
place = (269, 129);
place = (269, 129);
type = Stem;
},
{
horizontal = 1;
place = (576, 139);
place = (576, 139);
type = Stem;
},
{
place = (432, 164);
place = (432, 164);
type = Stem;
},
{
place = (492, 175);
place = (492, 175);
type = Stem;
}
);
layerId = m01;
shapes = (
{
closed = 1;
nodes = (
(-2,0,l),
(173,0,l),
(224,269,l),
(334,269,ls),
(404,269,o),
(432,235,o),
(432,174,cs),
(432,134,o),
(428,86,o),
(428,50,cs),
(428,29,o),
(430,9,o),
(437,0,c),
(610,0,l),
(610,9,l),
(601,15,o),
(596,32,o),
(596,57,cs),
(596,103,o),
(601,159,o),
(601,195,cs),
(601,267,o),
(571,310,o),
(516,330,c),
(516,333,l),
(611,361,o),
(667,419,o),
(667,524,cs),
(667,646,o),
(572,715,o),
(432,715,cs),
(136,715,l)
);
},
{
closed = 1;
nodes = (
(284,576,l),
(405,576,ls),
(463,576,o),
(492,547,o),
(492,497,cs),
(492,427,o),
(440,398,o),
(379,398,cs),
(250,398,l)
);
}
);
width = 659;
}
);
note = R;
unicode = 82;
},
{
glyphname = S;
kernLeft = Scaron;
kernRight = Scaron;
layers = (
{
hints = (
{
horizontal = 1;
place = (-17, 139);
place = (-17, 139);
type = Stem;
},
{
horizontal = 1;
place = (595, 133);
place = (595, 133);
type = Stem;
},
{
place = (71, 168);
place = (71, 168);
type = Stem;
},
{
place = (421, 178);
place = (421, 178);
type = Stem;
}
);
layerId = m01;
shapes = (
{
closed = 1;
nodes = (
(463,-17,o),
(599,62,o),
(599,224,cs),
(599,342,o),
(513,393,o),
(392,435,cs),
(278,474,o),
(239,484,o),
(239,527,cs),
(240,577,o),
(294,595,o),
(339,595,cs),
(410,595,o),
(451,564,o),
(450,508,c),
(620,508,l),
(627,674,o),
(484,728,o),
(345,728,cs),
(186,728,o),
(71,650,o),
(71,502,cs),
(71,386,o),
(152,340,o),
(280,295,cs),
(378,260,o),
(421,241,o),
(421,199,cs),
(421,141,o),
(365,122,o),
(306,122,cs),
(227,122,o),
(170,151,o),
(172,225,c),
(-3,225,l),
(-9,45,o),
(145,-17,o),
(301,-17,cs)
);
}
);
width = 627;
}
);
note = S;
unicode = 83;
},
{
glyphname = T;
kernLeft = T;
kernRight = T;
layers = (
{
hints = (
{
horizontal = 1;
place = (0, 21);
target = up;
type = BottomGhost;
},
{
horizontal = 1;
place = (567, 148);
place = (567, 148);
type = Stem;
},
{
place = (75, 606);
place = (75, 606);
type = Stem;
}
);
layerId = m01;
shapes = (
{
closed = 1;
nodes = (
(166,0,l),
(340,0,l),
(450,567,l),
(653,567,l),
(681,715,l),
(103,715,l),
(75,567,l),
(276,567,l)
);
}
);
width = 608;
}
);
note = T;
unicode = 84;
},
{
glyphname = U;
kernLeft = U;
kernRight = U;
layers = (
{
hints = (
{
horizontal = 1;
place = (-13, 141);
place = (-13, 141);
type = Stem;
},
{
horizontal = 1;
place = (715, -20);
target = down;
type = TopGhost;
},
{
place = (38, 175);
place = (38, 175);
type = Stem;
}
);
layerId = m01;
shapes = (
{
closed = 1;
nodes = (
(495,-13,o),
(594,74,o),
(624,231,cs),
(718,715,l),
(544,715,l),
(452,240,ls),
(439,171,o),
(401,128,o),
(324,128,cs),
(234,128,o),
(201,177,o),
(216,256,cs),
(305,715,l),
(131,715,l),
(45,274,ls),
(7,74,o),
(135,-13,o),
(319,-13,cs)
);
}
);
width = 673;
}
);
note = U;
unicode = 85;
},
{
glyphname = V;
kernLeft = V;
kernRight = V;
layers = (
{
hints = (
{
horizontal = 1;
place = (0, 21);
target = up;
type = BottomGhost;
},
{
horizontal = 1;
place = (715, -20);
target = down;
type = TopGhost;
},
{
place = (85, 639);
place = (85, 639);
type = Stem;
}
);
layerId = m01;
shapes = (
{
closed = 1;
nodes = (
(186,0,l),
(366,0,l),
(724,715,l),
(545,715,l),
(371,340,ls),
(345,285,o),
(316,213,o),
(316,213,c),
(314,213,l),
(314,213,o),
(310,286,o),
(304,345,cs),
(264,715,l),
(85,715,l)
);
}
);
width = 635;
}
);
note = V;
unicode = 86;
},
{
glyphname = W;
kernLeft = W;
kernRight = W;
layers = (
{
hints = (
{
horizontal = 1;
place = (0, 21);
target = up;
type = BottomGhost;
},
{
horizontal = 1;
place = (715, -20);
target = down;
type = TopGhost;
},
{
place = (513, 126);
place = (513, 126);
type = Stem;
}
);
layerId = m01;
shapes = (
{
closed = 1;
nodes = (
(149,0,l),
(320,0,l),
(454,344,ls),
(478,405,o),
(502,482,o),
(502,482,c),
(504,482,l),
(504,482,o),
(503,404,o),
(506,344,cs),
(521,0,l),
(692,0,l),
(1005,715,l),
(828,715,l),
(709,417,ls),
(680,344,o),
(642,235,o),
(642,235,c),
(640,235,l),
(640,235,o),
(640,338,o),
(637,411,cs),
(624,715,l),
(463,715,l),
(343,410,ls),
(314,335,o),
(278,235,o),
(278,235,c),
(276,235,l),
(276,235,o),
(278,343,o),
(275,415,cs),
(261,715,l),
(87,715,l)
);
}
);
width = 921;
}
);
note = W;
unicode = 87;
},
{
glyphname = X;
kernLeft = X;
kernRight = X;
layers = (
{
hints = (
{
horizontal = 1;
place = (0, 21);
target = up;
type = BottomGhost;
},
{
horizontal = 1;
place = (715, -20);
target = down;
type = TopGhost;
},
{
place = (-51, 789);
place = (-51, 789);
type = Stem;
}
);
layerId = m01;
shapes = (
{
closed = 1;
nodes = (
(-51,0,l),
(153,0,l),
(334,245,l),
(336,245,l),
(425,0,l),
(624,0,l),
(463,368,l),
(738,715,l),
(542,715,l),
(383,502,l),
(381,502,l),
(298,715,l),
(106,715,l),
(254,382,l)
);
}
);
width = 673;
}
);
note = X;
unicode = 88;
},
{
glyphname = Y;
kernLeft = Yacute;
kernRight = Yacute;
layers = (
{
hints = (
{
horizontal = 1;
place = (0, 21);
target = up;
type = BottomGhost;
},
{
horizontal = 1;
place = (715, -20);
target = down;
type = TopGhost;
},
{
place = (86, 643);
place = (86, 643);
type = Stem;
}
);
layerId = m01;
shapes = (
{
closed = 1;
nodes = (
(180,0,l),
(355,0,l),
(405,261,l),
(729,715,l),
(540,715,l),
(416,531,ls),
(383,481,o),
(348,422,o),
(348,422,c),
(346,422,l),
(346,422,o),
(335,484,o),
(321,533,cs),
(269,715,l),
(86,715,l),
(231,267,l)
);
}
);
width = 639;
}
);
note = Y;
unicode = 89;
},
{
glyphname = Z;
kernLeft = Zcaron;
kernRight = Zcaron;
layers = (
{
hints = (
{
horizontal = 1;
place = (0, 147);
place = (0, 147);
type = Stem;
},
{
horizontal = 1;
place = (570, 145);
place = (570, 145);
type = Stem;
},
{
place = (-26, 706);
place = (-26, 706);
type = Stem;
}
);
layerId = m01;
shapes = (
{
closed = 1;
nodes = (
(-26,0,l),
(554,0,l),
(582,147,l),
(299,147,ls),
(277,147,o),
(223,146,o),
(223,146,c),
(223,149,l),
(223,149,o),
(279,199,o),
(298,219,cs),
(654,580,l),
(680,715,l),
(137,715,l),
(109,570,l),
(360,570,ls),
(379,570,o),
(430,571,o),
(430,571,c),
(430,568,l),
(430,568,o),
(381,522,o),
(367,508,cs),
(0,137,l)
);
}
);
width = 629;
}
);
note = Z;
unicode = 90;
},
{
glyphname = bracketleft;
kernRight = bracketleft;
layers = (
{
hints = (
{
horizontal = 1;
place = (-138, 123);
place = (-138, 123);
type = Stem;
},
{
horizontal = 1;
place = (630, 124);
place = (630, 124);
type = Stem;
},
{
place = (-21, 476);
place = (-21, 476);
type = Stem;
}
);
layerId = m01;
shapes = (
{
closed = 1;
nodes = (
(-21,-138,l),
(282,-138,l),
(306,-15,l),
(155,-15,l),
(280,630,l),
(430,630,l),
(455,754,l),
(153,754,l)
);
}
);
width = 389;
}
);
note = bracketleft;
unicode = 91;
},
{
glyphname = backslash;
kernLeft = backslash;
kernRight = backslash;
layers = (
{
hints = (
{
horizontal = 1;
place = (0, 21);
target = up;
type = BottomGhost;
},
{
horizontal = 1;
place = (715, -20);
target = down;
type = TopGhost;
},
{
place = (86, 280);
place = (86, 280);
type = Stem;
}
);
layerId = m01;
shapes = (
{
closed = 1;
nodes = (
(234,0,l),
(366,0,l),
(218,715,l),
(86,715,l)
);
}
);
width = 418;
}
);
note = backslash;
unicode = 92;
},
{
glyphname = bracketright;
kernLeft = bracketright;
layers = (
{
hints = (
{
horizontal = 1;
place = (-138, 123);
place = (-138, 123);
type = Stem;
},
{
horizontal = 1;
place = (630, 124);
place = (630, 124);
type = Stem;
},
{
place = (-47, 476);
place = (-47, 476);
type = Stem;
}
);
layerId = m01;
shapes = (
{
closed = 1;
nodes = (
(-47,-138,l),
(256,-138,l),
(429,754,l),
(126,754,l),
(102,630,l),
(253,630,l),
(128,-15,l),
(-23,-15,l)
);
}
);
width = 389;
}
);
note = bracketright;
unicode = 93;
},
{
glyphname = asciicircum;
layers = (
{
hints = (
{
horizontal = 1;
place = (425, 290);
place = (425, 290);
type = Stem;
},
{
place = (39, 447);
place = (39, 447);
type = Stem;
},
{
horizontal = 1;
place = (576, 139);
place = (576, 139);
type = Stem;
}
);
layerId = m01;
shapes = (
{
closed = 1;
nodes = (
(39,425,l),
(182,425,l),
(291,576,l),
(292,576,l),
(347,425,l),
(486,425,l),
(371,715,l),
(254,715,l)
);
}
);
width = 458;
}
);
note = asciicircum;
unicode = 94;
},
{
glyphname = underscore;
layers = (
{
hints = (
{
horizontal = 1;
place = (-169, 100);
place = (-169, 100);
type = Stem;
},
{
place = (-85, 447);
place = (-85, 447);
type = Stem;
}
);
layerId = m01;
shapes = (
{
closed = 1;
nodes = (
(-85,-169,l),
(343,-169,l),
(362,-69,l),
(-66,-69,l)
);
}
);
width = 423;
}
);
note = underscore;
unicode = 95;
},
{
glyphname = grave;
layers = (
{
hints = (
{
horizontal = 1;
place = (572, 148);
place = (572, 148);
type = Stem;
},
{
place = (167, 218);
place = (167, 218);
type = Stem;
}
);
layerId = m01;
shapes = (
{
closed = 1;
nodes = (
(264,572,l),
(385,572,l),
(342,720,l),
(167,720,l)
);
}
);
width = 492;
}
);
note = grave;
unicode = 96;
},
{
glyphname = a;
kernLeft = a;
kernRight = a;
layers = (
{
hints = (
{
horizontal = 1;
place = (-13, 104);
place = (-13, 104);
type = Stem;
},
{
horizontal = 1;
place = (417, 109);
place = (417, 109);
type = Stem;
},
{
place = (-6, 155);
place = (-6, 155);
type = Stem;
},
{
place = (297, 154);
place = (297, 154);
type = Stem;
},
{
horizontal = 1;
place = (0, 91);
place = (0, 91);
type = Stem;
},
{
place = (354, 153);
place = (354, 153);
type = Stem;
}
);
layerId = m01;
shapes = (
{
closed = 1;
nodes = (
(215,-13,o),
(261,16,o),
(295,56,c),
(297,56,l),
(297,34,o),
(299,12,o),
(305,0,c),
(459,0,l),
(459,7,l),
(450,18,o),
(448,41,o),
(456,80,cs),
(502,316,ls),
(518,400,o),
(495,454,o),
(453,485,cs),
(413,516,o),
(357,526,o),
(298,526,cs),
(149,526,o),
(69,456,o),
(50,350,c),
(199,350,l),
(210,395,o),
(241,417,o),
(290,417,cs),
(333,417,o),
(354,397,o),
(354,368,cs),
(354,318,o),
(313,312,o),
(212,305,cs),
(87,296,o),
(-6,260,o),
(-6,135,cs),
(-6,39,o),
(66,-13,o),
(155,-13,cs)
);
},
{
closed = 1;
nodes = (
(176,91,o),
(149,109,o),
(149,149,cs),
(149,208,o),
(206,211,o),
(247,218,cs),
(285,224,o),
(311,230,o),
(334,241,c),
(322,178,ls),
(310,122,o),
(270,91,o),
(215,91,cs)
);
}
);
width = 528;
}
);
note = a;
unicode = 97;
},
{
glyphname = b;
kernLeft = b;
kernRight = thorn;
layers = (
{
hints = (
{
horizontal = 1;
place = (-16, 128);
place = (-16, 128);
type = Stem;
},
{
horizontal = 1;
place = (405, 122);
place = (405, 122);
type = Stem;
},
{
horizontal = 1;
place = (715, -20);
target = down;
type = TopGhost;
},
{
place = (400, 162);
place = (400, 162);
type = Stem;
},
{
horizontal = 1;
place = (0, 21);
target = up;
type = BottomGhost;
}
);
layerId = m01;
shapes = (
{
closed = 1;
nodes = (
(483,-16,o),
(562,153,o),
(562,307,cs),
(562,433,o),
(498,527,o),
(384,527,cs),
(322,527,o),
(276,499,o),
(239,457,c),
(236,457,l),
(286,715,l),
(126,715,l),
(-12,0,l),
(142,0,l),
(156,76,l),
(158,76,l),
(186,10,o),
(248,-16,o),
(313,-16,cs)
);
},
{
closed = 1;
nodes = (
(214,112,o),
(190,166,o),
(190,223,cs),
(190,303,o),
(230,405,o),
(318,405,cs),
(382,405,o),
(400,350,o),
(400,297,cs),
(400,215,o),
(368,112,o),
(281,112,cs)
);
}
);
width = 576;
}
);
note = b;
unicode = 98;
},
{
glyphname = c;
kernLeft = c;
kernRight = c;
layers = (
{
hints = (
{
horizontal = 1;
place = (-16, 121);
place = (-16, 121);
type = Stem;
},
{
horizontal = 1;
place = (407, 119);
place = (407, 119);
type = Stem;
},
{
place = (13, 160);
place = (13, 160);
type = Stem;
},
{
place = (374, 154);
place = (374, 154);
type = Stem;
}
);
layerId = m01;
shapes = (
{
closed = 1;
nodes = (
(386,-15,o),
(487,61,o),
(513,194,c),
(360,194,l),
(344,133,o),
(306,105,o),
(260,105,cs),
(196,105,o),
(173,151,o),
(173,208,cs),
(173,294,o),
(211,407,o),
(300,407,cs),
(350,407,o),
(370,375,o),
(374,330,c),
(528,330,l),
(523,468,o),
(427,526,o),
(304,526,cs),
(125,526,o),
(13,379,o),
(13,211,cs),
(13,51,o),
(126,-16,o),
(257,-16,cs)
);
}
);
width = 532;
}
);
note = c;
unicode = 99;
},
{
glyphname = d;
kernLeft = d;
kernRight = d;
layers = (
{
hints = (
{
horizontal = 1;
place = (-16, 126);
place = (-16, 126);
type = Stem;
},
{
horizontal = 1;
place = (405, 122);
place = (405, 122);
type = Stem;
},
{
horizontal = 1;
place = (715, -20);
target = down;
type = TopGhost;
},
{
place = (14, 165);
place = (14, 165);
type = Stem;
},
{
horizontal = 1;
place = (0, 110);
place = (0, 110);
type = Stem;
}
);
layerId = m01;
shapes = (
{
closed = 1;
nodes = (
(268,-16,o),
(317,15,o),
(350,59,c),
(352,59,l),
(341,0,l),
(494,0,l),
(632,715,l),
(472,715,l),
(420,446,l),
(417,446,l),
(389,497,o),
(342,527,o),
(273,527,cs),
(107,527,o),
(14,366,o),
(14,208,cs),
(13,72,o),
(89,-16,o),
(205,-16,cs)
);
},
{
closed = 1;
nodes = (
(200,110,o),
(179,162,o),
(179,220,cs),
(179,301,o),
(216,405,o),
(302,405,cs),
(366,405,o),
(392,351,o),
(392,290,cs),
(392,210,o),
(350,110,o),
(265,110,cs)
);
}
);
width = 582;
}
);
note = d;
unicode = 100;
},
{
glyphname = e;
kernLeft = c;
kernRight = e;
layers = (
{
hints = (
{
horizontal = 1;
place = (-15, 116);
place = (-15, 116);
type = Stem;
},
{
horizontal = 1;
place = (214, 97);
place = (214, 97);
type = Stem;
},
{
horizontal = 1;
place = (412, 115);
place = (412, 115);
type = Stem;
},
{
place = (13, 158);
place = (13, 158);
type = Stem;
},
{
place = (376, 152);
place = (376, 152);
type = Stem;
},
{
horizontal = 1;
place = (-15, 168);
place = (-15, 168);
type = Stem;
}
);
layerId = m01;
shapes = (
{
closed = 1;
nodes = (
(522,214,l),
(541,341,o),
(514,442,o),
(433,493,cs),
(397,515,o),
(355,527,o),
(296,527,cs),
(127,527,o),
(13,382,o),
(13,221,cs),
(13,64,o),
(118,-15,o),
(257,-15,cs),
(389,-15,o),
(478,54,o),
(510,153,c),
(352,153,l),
(336,117,o),
(303,101,o),
(264,101,cs),
(191,101,o),
(172,150,o),
(171,214,c)
);
},
{
closed = 1;
nodes = (
(355,412,o),
(378,366,o),
(376,311,c),
(184,311,l),
(202,374,o),
(243,412,o),
(294,412,cs)
);
}
);
width = 543;
}
);
note = e;
unicode = 101;
},
{
glyphname = f;
kernLeft = f;
kernRight = f;
layers = (
{
hints = (
{
horizontal = 1;
place = (0, 21);
target = up;
type = BottomGhost;
},
{
horizontal = 1;
place = (408, 104);
place = (408, 104);
type = Stem;
},
{
horizontal = 1;
place = (599, 117);
place = (599, 117);
type = Stem;
},
{
place = (25, 390);
place = (25, 390);
type = Stem;
}
);
layerId = m01;
shapes = (
{
closed = 1;
nodes = (
(25,0,l),
(184,0,l),
(263,408,l),
(356,408,l),
(377,512,l),
(283,512,l),
(289,542,ls),
(297,587,o),
(322,599,o),
(361,599,cs),
(371,599,o),
(381,598,o),
(393,597,c),
(415,710,l),
(389,714,o),
(362,716,o),
(333,716,cs),
(281,716,o),
(233,706,o),
(196,678,cs),
(165,654,o),
(144,614,o),
(133,560,cs),
(124,512,l),
(59,512,l),
(39,408,l),
(104,408,l)
);
}
);
width = 341;
}
);
note = f;
unicode = 102;
},
{
glyphname = g;
kernLeft = g;
kernRight = g;
layers = (
{
hints = (
{
horizontal = 1;
place = (-177, 114);
place = (-177, 114);
type = Stem;
},
{
horizontal = 1;
place = (28, 119);
place = (28, 119);
type = Stem;
},
{
horizontal = 1;
place = (406, 121);
place = (406, 121);
type = Stem;
},
{
place = (15, 158);
place = (15, 158);
type = Stem;
},
{
horizontal = 1;
place = (406, 106);
place = (406, 106);
type = Stem;
},
{
horizontal = 1;
place = (-177, 165);
place = (-177, 165);
type = Stem;
}
);
layerId = m01;
shapes = (
{
closed = 1;
nodes = (
(293,-177,o),
(348,-162,o),
(392,-127,cs),
(436,-93,o),
(465,-45,o),
(480,31,cs),
(573,512,l),
(420,512,l),
(408,449,l),
(406,449,l),
(377,502,o),
(325,527,o),
(261,527,cs),
(107,527,o),
(15,379,o),
(15,234,cs),
(15,112,o),
(95,28,o),
(205,28,cs),
(260,29,o),
(297,51,o),
(329,84,c),
(332,84,l),
(322,32,ls),
(311,-26,o),
(282,-63,o),
(223,-63,cs),
(180,-63,o),
(154,-45,o),
(147,-12,c),
(-11,-12,l),
(3,-130,o),
(109,-177,o),
(219,-177,cs)
);
},
{
closed = 1;
nodes = (
(199,147,o),
(173,193,o),
(173,248,cs),
(173,327,o),
(215,406,o),
(292,406,cs),
(351,406,o),
(378,359,o),
(379,303,cs),
(379,227,o),
(335,147,o),
(258,147,cs)
);
}
);
width = 562;
}
);
note = g;
unicode = 103;
},
{
glyphname = h;
kernLeft = b;
kernRight = h;
layers = (
{
hints = (
{
horizontal = 1;
place = (0, 21);
target = up;
type = BottomGhost;
},
{
horizontal = 1;
place = (395, 132);
place = (395, 132);
type = Stem;
},
{
horizontal = 1;
place = (715, -20);
target = down;
type = TopGhost;
},
{
place = (373, 164);
place = (373, 164);
type = Stem;
}
);
layerId = m01;
shapes = (
{
closed = 1;
nodes = (
(-12,0,l),
(148,0,l),
(202,281,ls),
(215,345,o),
(254,395,o),
(310,395,cs),
(363,395,o),
(381,359,o),
(370,303,cs),
(311,0,l),
(471,0,l),
(532,315,ls),
(557,447,o),
(497,527,o),
(394,527,cs),
(321,527,o),
(275,494,o),
(236,442,c),
(233,442,l),
(286,715,l),
(126,715,l)
);
}
);
width = 556;
}
);
note = h;
unicode = 104;
},
{
glyphname = i;
kernLeft = b;
kernRight = d;
layers = (
{
hints = (
{
horizontal = 1;
place = (0, 21);
target = up;
type = BottomGhost;
},
{
horizontal = 1;
place = (512, -20);
target = down;
type = TopGhost;
},
{
horizontal = 1;
place = (583, 132);
place = (583, 132);
type = Stem;
},
{
place = (-12, 298);
place = (-12, 298);
type = Stem;
}
);
layerId = m01;
shapes = (
{
closed = 1;
nodes = (
(-12,0,l),
(148,0,l),
(247,512,l),
(87,512,l)
);
},
{
closed = 1;
nodes = (
(101,583,l),
(261,583,l),
(286,715,l),
(126,715,l)
);
}
);
width = 237;
}
);
note = i;
unicode = 105;
},
{
glyphname = j;
kernLeft = j;
kernRight = j;
layers = (
{
hints = (
{
horizontal = 1;
place = (-172, 123);
place = (-172, 123);
type = Stem;
},
{
horizontal = 1;
place = (512, -20);
target = down;
type = TopGhost;
},
{
horizontal = 1;
place = (583, 132);
place = (583, 132);
type = Stem;
},
{
place = (-124, 410);
place = (-124, 410);
type = Stem;
}
);
layerId = m01;
shapes = (
{
closed = 1;
nodes = (
(9,-172,o),
(51,-162,o),
(84,-137,cs),
(112,-114,o),
(132,-78,o),
(144,-20,cs),
(247,512,l),
(87,512,l),
(-14,-4,ls),
(-23,-50,o),
(-51,-52,o),
(-103,-49,c),
(-124,-162,l),
(-98,-169,o),
(-69,-172,o),
(-38,-172,cs)
);
},
{
closed = 1;
nodes = (
(101,583,l),
(261,583,l),
(286,715,l),
(126,715,l)
);
}
);
width = 237;
}
);
note = j;
unicode = 106;
},
{
glyphname = k;
kernLeft = b;
kernRight = k;
layers = (
{
hints = (
{
horizontal = 1;
place = (0, 21);
target = up;
type = BottomGhost;
},
{
horizontal = 1;
place = (512, -20);
target = down;
type = TopGhost;
},
{
horizontal = 1;
place = (715, -20);
target = down;
type = TopGhost;
},
{
place = (-12, 584);
place = (-12, 584);
type = Stem;
}
);
layerId = m01;
shapes = (
{
closed = 1;
nodes = (
(-12,0,l),
(146,0,l),
(175,149,l),
(239,209,l),
(321,0,l),
(497,0,l),
(364,315,l),
(572,512,l),
(386,512,l),
(210,332,l),
(284,715,l),
(126,715,l)
);
}
);
width = 540;
}
);
note = k;
unicode = 107;
},
{
glyphname = l;
kernLeft = b;
kernRight = d;
layers = (
{
hints = (
{
horizontal = 1;
place = (0, 21);
target = up;
type = BottomGhost;
},
{
horizontal = 1;
place = (715, -20);
target = down;
type = TopGhost;
},
{
place = (-11, 301);
place = (-11, 301);
type = Stem;
}
);
layerId = m01;
shapes = (
{
closed = 1;
nodes = (
(-11,0,l),
(152,0,l),
(290,715,l),
(127,715,l)
);
}
);
width = 241;
}
);
note = l;
unicode = 108;
},
{
glyphname = m;
kernLeft = m;
kernRight = h;
layers = (
{
hints = (
{
horizontal = 1;
place = (0, 21);
target = up;
type = BottomGhost;
},
{
horizontal = 1;
place = (395, 117);
place = (395, 117);
type = Stem;
},
{
place = (662, 164);
place = (662, 164);
type = Stem;
},
{
horizontal = 1;
place = (395, 132);
place = (395, 132);
type = Stem;
}
);
layerId = m01;
shapes = (
{
closed = 1;
nodes = (
(-12,0,l),
(148,0,l),
(202,279,ls),
(215,349,o),
(249,395,o),
(301,395,cs),
(348,395,o),
(364,360,o),
(353,305,cs),
(294,0,l),
(454,0,l),
(508,279,ls),
(521,351,o),
(555,395,o),
(607,395,cs),
(654,395,o),
(670,361,o),
(659,305,cs),
(600,0,l),
(760,0,l),
(820,311,ls),
(846,443,o),
(790,527,o),
(682,527,cs),
(616,527,o),
(559,499,o),
(512,432,c),
(510,432,l),
(492,489,o),
(452,527,o),
(384,527,cs),
(314,527,o),
(268,491,o),
(229,435,c),
(226,435,l),
(241,512,l),
(87,512,l)
);
}
);
width = 845;
}
);
note = m;
unicode = 109;
},
{
glyphname = n;
kernLeft = m;
kernRight = h;
layers = (
{
hints = (
{
horizontal = 1;
place = (0, 21);
target = up;
type = BottomGhost;
},
{
horizontal = 1;
place = (395, 117);
place = (395, 117);
type = Stem;
},
{
place = (373, 164);
place = (373, 164);
type = Stem;
},
{
horizontal = 1;
place = (395, 132);
place = (395, 132);
type = Stem;
}
);
layerId = m01;
shapes = (
{
closed = 1;
nodes = (
(-12,0,l),
(148,0,l),
(202,281,ls),
(215,345,o),
(255,395,o),
(310,395,cs),
(363,395,o),
(381,359,o),
(370,303,cs),
(311,0,l),
(471,0,l),
(532,315,ls),
(557,447,o),
(497,527,o),
(394,527,cs),
(321,527,o),
(270,490,o),
(229,431,c),
(226,431,l),
(242,512,l),
(87,512,l)
);
}
);
width = 556;
}
);
note = n;
unicode = 110;
},
{
glyphname = o;
kernLeft = c;
kernRight = o;
layers = (
{
hints = (
{
horizontal = 1;
place = (-16, 114);
place = (-16, 114);
type = Stem;
},
{
horizontal = 1;
place = (412, 114);
place = (412, 114);
type = Stem;
},
{
place = (13, 161);
place = (13, 161);
type = Stem;
},
{
place = (391, 162);
place = (391, 162);
type = Stem;
}
);
layerId = m01;
shapes = (
{
closed = 1;
nodes = (
(197,98,o),
(174,151,o),
(174,212,cs),
(173,294,o),
(209,412,o),
(301,412,cs),
(367,412,o),
(391,357,o),
(391,298,cs),
(392,214,o),
(356,98,o),
(263,98,cs)
);
},
{
closed = 1;
nodes = (
(439,-16,o),
(553,123,o),
(553,293,cs),
(552,450,o),
(437,526,o),
(306,526,cs),
(128,526,o),
(13,387,o),
(13,219,cs),
(13,61,o),
(130,-16,o),
(260,-16,cs)
);
}
);
width = 567;
}
);
note = o;
unicode = 111;
},
{
glyphname = p;
kernLeft = p;
kernRight = thorn;
layers = (
{
hints = (
{
horizontal = 1;
place = (-169, 21);
target = up;
type = BottomGhost;
},
{
horizontal = 1;
place = (-16, 122);
place = (-16, 122);
type = Stem;
},
{
horizontal = 1;
place = (400, 112);
place = (400, 112);
type = Stem;
},
{
place = (401, 164);
place = (401, 164);
type = Stem;
},
{
horizontal = 1;
place = (400, 127);
place = (400, 127);
type = Stem;
}
);
layerId = m01;
shapes = (
{
closed = 1;
nodes = (
(-45,-169,l),
(115,-169,l),
(161,67,l),
(164,67,l),
(193,11,o),
(248,-16,o),
(314,-16,cs),
(488,-16,o),
(565,153,o),
(565,304,cs),
(565,431,o),
(501,527,o),
(387,527,cs),
(320,527,o),
(268,494,o),
(230,446,c),
(228,446,l),
(240,512,l),
(87,512,l)
);
},
{
closed = 1;
nodes = (
(213,106,o),
(188,162,o),
(188,217,cs),
(188,299,o),
(233,400,o),
(317,400,cs),
(381,400,o),
(401,345,o),
(401,292,cs),
(401,211,o),
(368,106,o),
(279,106,cs)
);
}
);
width = 578;
}
);
note = p;
unicode = 112;
},
{
glyphname = q;
kernLeft = d;
kernRight = q;
layers = (
{
hints = (
{
horizontal = 1;
place = (-169, 21);
target = up;
type = BottomGhost;
},
{
horizontal = 1;
place = (-16, 125);
place = (-16, 125);
type = Stem;
},
{
horizontal = 1;
place = (402, 125);
place = (402, 125);
type = Stem;
},
{
place = (13, 163);
place = (13, 163);
type = Stem;
},
{
horizontal = 1;
place = (512, -20);
target = down;
type = TopGhost;
}
);
layerId = m01;
shapes = (
{
closed = 1;
nodes = (
(299,-169,l),
(459,-169,l),
(591,512,l),
(438,512,l),
(424,440,l),
(421,440,l),
(395,496,o),
(341,527,o),
(276,527,cs),
(109,527,o),
(13,362,o),
(13,202,cs),
(13,65,o),
(85,-16,o),
(200,-16,cs),
(258,-16,o),
(308,13,o),
(340,56,c),
(342,56,l)
);
},
{
closed = 1;
nodes = (
(194,109,o),
(176,160,o),
(176,217,cs),
(176,301,o),
(214,402,o),
(302,402,cs),
(364,402,o),
(390,351,o),
(390,288,cs),
(390,201,o),
(343,109,o),
(259,109,cs)
);
}
);
width = 580;
}
);
note = q;
unicode = 113;
},
{
glyphname = r;
kernLeft = m;
kernRight = r;
layers = (
{
hints = (
{
horizontal = 1;
place = (0, 21);
target = up;
type = BottomGhost;
},
{
horizontal = 1;
place = (375, 137);
place = (375, 137);
type = Stem;
},
{
place = (-12, 423);
place = (-12, 423);
type = Stem;
},
{
horizontal = 1;
place = (516, -20);
target = down;
type = TopGhost;
},
{
horizontal = 1;
place = (375, 145);
place = (375, 145);
type = Stem;
}
);
layerId = m01;
shapes = (
{
closed = 1;
nodes = (
(-12,0,l),
(148,0,l),
(191,224,ls),
(215,347,o),
(277,387,o),
(380,372,cs),
(383,372,l),
(411,516,l),
(405,518,o),
(392,520,o),
(375,520,cs),
(311,520,o),
(264,488,o),
(227,428,c),
(224,428,l),
(241,512,l),
(87,512,l)
);
}
);
width = 376;
}
);
note = r;
unicode = 114;
},
{
glyphname = s;
kernLeft = scaron;
kernRight = scaron;
layers = (
{
hints = (
{
horizontal = 1;
place = (-16, 107);
place = (-16, 107);
type = Stem;
},
{
horizontal = 1;
place = (423, 104);
place = (423, 104);
type = Stem;
},
{
place = (37, 148);
place = (37, 148);
type = Stem;
},
{
place = (303, 151);
place = (303, 151);
type = Stem;
},
{
horizontal = 1;
place = (363, 164);
place = (363, 164);
type = Stem;
}
);
layerId = m01;
shapes = (
{
closed = 1;
nodes = (
(368,-16,o),
(454,47,o),
(454,166,cs),
(454,262,o),
(376,297,o),
(296,320,cs),
(224,340,o),
(185,350,o),
(185,380,cs),
(185,411,o),
(219,423,o),
(252,423,cs),
(298,423,o),
(325,399,o),
(329,363,c),
(476,363,l),
(469,479,o),
(371,527,o),
(258,527,cs),
(131,527,o),
(37,467,o),
(37,356,cs),
(37,265,o),
(103,230,o),
(189,205,cs),
(257,185,o),
(303,176,o),
(303,140,cs),
(303,105,o),
(274,91,o),
(232,91,cs),
(169,91,o),
(145,124,o),
(142,166,c),
(-10,166,l),
(-5,38,o),
(109,-16,o),
(229,-16,cs)
);
}
);
width = 491;
}
);
note = s;
unicode = 115;
},
{
glyphname = t;
kernLeft = t;
kernRight = t;
layers = (
{
hints = (
{
horizontal = 1;
place = (-6, 123);
place = (-6, 123);
type = Stem;
},
{
horizontal = 1;
place = (410, 102);
place = (410, 102);
type = Stem;
},
{
place = (50, 165);
place = (50, 165);
type = Stem;
}
);
layerId = m01;
shapes = (
{
closed = 1;
nodes = (
(230,-6,o),
(262,-1,o),
(273,3,c),
(296,119,l),
(290,118,o),
(270,117,o),
(258,117,cs),
(220,117,o),
(208,131,o),
(215,171,cs),
(261,410,l),
(352,410,l),
(372,512,l),
(281,512,l),
(313,674,l),
(156,674,l),
(125,512,l),
(60,512,l),
(40,410,l),
(105,410,l),
(55,152,ls),
(33,43,o),
(82,-6,o),
(196,-6,cs)
);
}
);
width = 343;
}
);
note = t;
unicode = 116;
},
{
glyphname = u;
kernLeft = u;
kernRight = u;
layers = (
{
hints = (
{
horizontal = 1;
place = (-15, 132);
place = (-15, 132);
type = Stem;
},
{
horizontal = 1;
place = (512, -20);
target = down;
type = TopGhost;
},
{
place = (14, 166);
place = (14, 166);
type = Stem;
},
{
horizontal = 1;
place = (0, 117);
place = (0, 117);
type = Stem;
}
);
layerId = m01;
shapes = (
{
closed = 1;
nodes = (
(234,-15,o),
(283,21,o),
(321,77,c),
(324,77,l),
(309,0,l),
(462,0,l),
(561,512,l),
(401,512,l),
(347,229,ls),
(333,159,o),
(294,117,o),
(239,117,cs),
(186,117,o),
(172,156,o),
(183,214,cs),
(241,512,l),
(81,512,l),
(20,192,ls),
(-6,61,o),
(55,-15,o),
(163,-15,cs)
);
}
);
width = 551;
}
);
note = u;
unicode = 117;
},
{
glyphname = v;
kernLeft = v;
kernRight = v;
layers = (
{
hints = (
{
horizontal = 1;
place = (0, 21);
target = up;
type = BottomGhost;
},
{
horizontal = 1;
place = (512, -20);
target = down;
type = TopGhost;
},
{
place = (48, 518);
place = (48, 518);
type = Stem;
}
);
layerId = m01;
shapes = (
{
closed = 1;
nodes = (
(131,0,l),
(304,0,l),
(566,512,l),
(404,512,l),
(296,280,ls),
(271,227,o),
(249,176,o),
(249,176,c),
(248,176,l),
(248,176,o),
(244,229,o),
(238,283,cs),
(211,512,l),
(48,512,l)
);
}
);
width = 516;
}
);
note = v;
unicode = 118;
},
{
glyphname = w;
kernLeft = w;
kernRight = w;
layers = (
{
hints = (
{
horizontal = 1;
place = (0, 21);
target = up;
type = BottomGhost;
},
{
horizontal = 1;
place = (512, -20);
target = down;
type = TopGhost;
},
{
place = (49, 767);
place = (49, 767);
type = Stem;
}
);
layerId = m01;
shapes = (
{
closed = 1;
nodes = (
(109,0,l),
(258,0,l),
(359,233,ls),
(377,274,o),
(398,333,o),
(398,333,c),
(400,333,l),
(400,333,o),
(402,275,o),
(406,233,cs),
(427,0,l),
(576,0,l),
(816,512,l),
(655,512,l),
(566,300,ls),
(549,259,o),
(524,196,o),
(524,196,c),
(522,196,l),
(522,196,o),
(520,259,o),
(516,303,cs),
(498,512,l),
(363,512,l),
(272,303,ls),
(254,261,o),
(230,197,o),
(230,197,c),
(228,197,l),
(228,197,o),
(227,259,o),
(224,300,cs),
(209,512,l),
(49,512,l)
);
}
);
width = 769;
}
);
note = w;
unicode = 119;
},
{
glyphname = x;
kernLeft = x;
kernRight = x;
layers = (
{
hints = (
{
horizontal = 1;
place = (0, 21);
target = up;
type = BottomGhost;
},
{
horizontal = 1;
place = (512, -20);
target = down;
type = TopGhost;
},
{
place = (-50, 621);
place = (-50, 621);
type = Stem;
}
);
layerId = m01;
shapes = (
{
closed = 1;
nodes = (
(-50,0,l),
(133,0,l),
(251,160,l),
(253,160,l),
(311,0,l),
(489,0,l),
(369,260,l),
(571,512,l),
(393,512,l),
(295,368,l),
(293,368,l),
(243,512,l),
(67,512,l),
(177,273,l)
);
}
);
width = 543;
}
);
note = x;
unicode = 120;
},
{
glyphname = y;
kernLeft = yacute;
kernRight = yacute;
layers = (
{
hints = (
{
horizontal = 1;
place = (-169, 126);
place = (-169, 126);
type = Stem;
},
{
horizontal = 1;
place = (512, -20);
target = down;
type = TopGhost;
},
{
place = (-15, 584);
place = (-15, 584);
type = Stem;
}
);
layerId = m01;
shapes = (
{
closed = 1;
nodes = (
(-15,-169,l),
(93,-169,ls),
(193,-169,o),
(249,-125,o),
(299,-26,cs),
(569,512,l),
(408,512,l),
(307,293,ls),
(283,242,o),
(257,172,o),
(257,172,c),
(255,172,l),
(255,172,o),
(249,246,o),
(243,296,cs),
(215,512,l),
(48,512,l),
(126,118,ls),
(134,80,o),
(139,50,o),
(139,30,cs),
(139,-22,o),
(109,-43,o),
(64,-43,cs),
(10,-43,l)
);
}
);
width = 521;
}
);
note = y;
unicode = 121;
},
{
glyphname = z;
kernLeft = zcaron;
kernRight = zcaron;
layers = (
{
hints = (
{
horizontal = 1;
place = (0, 123);
place = (0, 123);
type = Stem;
},
{
horizontal = 1;
place = (390, 122);
place = (390, 122);
type = Stem;
},
{
place = (-29, 526);
place = (-29, 526);
type = Stem;
}
);
layerId = m01;
shapes = (
{
closed = 1;
nodes = (
(-29,0,l),
(415,0,l),
(439,123,l),
(258,123,ls),
(235,123,o),
(188,122,o),
(188,122,c),
(188,125,l),
(188,125,o),
(226,156,o),
(254,183,cs),
(475,394,l),
(497,512,l),
(87,512,l),
(63,390,l),
(217,390,ls),
(233,390,o),
(280,391,o),
(280,391,c),
(280,388,l),
(280,388,o),
(242,356,o),
(227,341,cs),
(-7,118,l)
);
}
);
width = 483;
}
);
note = z;
unicode = 122;
},
{
glyphname = braceleft;
kernRight = bracketleft;
layers = (
{
hints = (
{
horizontal = 1;
place = (-138, 125);
place = (-138, 125);
type = Stem;
},
{
horizontal = 1;
place = (629, 125);
place = (629, 125);
type = Stem;
},
{
place = (95, 155);
place = (95, 155);
type = Stem;
}
);
layerId = m01;
shapes = (
{
closed = 1;
nodes = (
(282,-138,l),
(306,-13,l),
(287,-13,ls),
(233,-13,o),
(207,1,o),
(218,56,cs),
(246,196,ls),
(259,261,o),
(242,288,o),
(203,308,c),
(203,311,l),
(248,327,o),
(276,347,o),
(288,411,cs),
(316,556,ls),
(326,613,o),
(347,629,o),
(399,629,cs),
(430,629,l),
(455,754,l),
(386,754,ls),
(265,754,o),
(195,719,o),
(168,574,cs),
(144,450,ls),
(135,401,o),
(113,382,o),
(48,381,c),
(25,263,l),
(88,258,o),
(102,232,o),
(92,184,cs),
(69,67,ls),
(40,-84,o),
(113,-138,o),
(268,-138,cs)
);
}
);
width = 389;
}
);
note = braceleft;
unicode = 123;
},
{
glyphname = bar;
layers = (
{
hints = (
{
horizontal = 1;
place = (-138, 892);
place = (-138, 892);
type = Stem;
},
{
place = (91, 97);
place = (91, 97);
type = Stem;
}
);
layerId = m01;
shapes = (
{
closed = 1;
nodes = (
(91,-138,l),
(188,-138,l),
(188,754,l),
(91,754,l)
);
}
);
width = 239;
}
);
note = bar;
unicode = 124;
},
{
glyphname = braceright;
kernLeft = bracketright;
layers = (
{
hints = (
{
horizontal = 1;
place = (-138, 125);
place = (-138, 125);
type = Stem;
},
{
horizontal = 1;
place = (629, 125);
place = (629, 125);
type = Stem;
},
{
place = (-47, 430);
place = (-47, 430);
type = Stem;
},
{
place = (158, 187);
place = (158, 187);
type = Stem;
}
);
layerId = m01;
shapes = (
{
closed = 1;
nodes = (
(-47,-138,l),
(22,-138,ls),
(143,-138,o),
(213,-101,o),
(240,42,cs),
(264,169,ls),
(273,218,o),
(296,237,o),
(360,238,c),
(383,356,l),
(321,361,o),
(307,387,o),
(316,435,cs),
(339,550,ls),
(368,700,o),
(295,754,o),
(140,754,cs),
(126,754,l),
(102,629,l),
(120,629,ls),
(174,629,o),
(200,615,o),
(189,560,cs),
(162,423,ls),
(149,358,o),
(167,331,o),
(206,311,c),
(206,308,l),
(160,292,o),
(133,272,o),
(120,208,cs),
(92,61,ls),
(82,4,o),
(60,-13,o),
(9,-13,cs),
(-23,-13,l)
);
}
);
width = 389;
}
);
note = braceright;
unicode = 125;
},
{
glyphname = asciitilde;
layers = (
{
hints = (
{
horizontal = 1;
place = (239, 175);
place = (239, 175);
type = Stem;
},
{
place = (25, 417);
place = (25, 417);
type = Stem;
},
{
horizontal = 1;
place = (244, 127);
place = (244, 127);
type = Stem;
}
);
layerId = m01;
shapes = (
{
closed = 1;
nodes = (
(126,239,l),
(133,269,o),
(146,285,o),
(167,285,cs),
(206,285,o),
(244,244,o),
(309,244,cs),
(386,244,o),
(430,308,o),
(442,414,c),
(342,414,l),
(336,386,o),
(326,371,o),
(301,371,cs),
(263,371,o),
(231,414,o),
(167,414,cs),
(99,414,o),
(38,360,o),
(25,239,c)
);
}
);
width = 436;
}
);
note = asciitilde;
unicode = 126;
},
{
glyphname = Adieresis;
kernLeft = A;
kernRight = A;
layers = (
{
hints = (
{
horizontal = 1;
place = (0, 21);
target = up;
type = BottomGhost;
},
{
horizontal = 1;
place = (130, 126);
place = (130, 126);
type = Stem;
},
{
horizontal = 1;
place = (715, -20);
target = down;
type = TopGhost;
},
{
horizontal = 1;
place = (753, 128);
place = (753, 128);
type = Stem;
},
{
place = (-52, 681);
place = (-52, 681);
type = Stem;
}
);
layerId = m01;
shapes = (
{
closed = 1;
nodes = (
(-52,0,l),
(125,0,l),
(188,130,l),
(430,130,l),
(448,0,l),
(629,0,l),
(504,715,l),
(326,715,l)
);
},
{
closed = 1;
nodes = (
(334,429,ls),
(351,465,o),
(379,531,o),
(379,531,c),
(381,531,l),
(381,531,o),
(386,466,o),
(391,428,cs),
(414,256,l),
(250,256,l)
);
},
{
closed = 1;
nodes = (
(235,753,l),
(386,753,l),
(411,881,l),
(260,881,l)
);
},
{
closed = 1;
nodes = (
(447,753,l),
(598,753,l),
(623,881,l),
(472,881,l)
);
}
);
width = 676;
}
);
note = Adieresis;
unicode = 196;
},
{
glyphname = Aring;
kernLeft = A;
kernRight = A;
layers = (
{
hints = (
{
horizontal = 1;
place = (0, 21);
target = up;
type = BottomGhost;
},
{
horizontal = 1;
place = (130, 126);
place = (130, 126);
type = Stem;
},
{
horizontal = 1;
place = (715, -20);
target = down;
type = TopGhost;
},
{
horizontal = 1;
place = (880, 55);
place = (880, 55);
type = Stem;
},
{
place = (322, 61);
place = (322, 61);
type = Stem;
},
{
place = (466, 60);
place = (466, 60);
type = Stem;
},
{
horizontal = 1;
place = (739, 55);
place = (739, 55);
type = Stem;
}
);
layerId = m01;
shapes = (
{
closed = 1;
nodes = (
(-52,0,l),
(125,0,l),
(188,130,l),
(430,130,l),
(448,0,l),
(629,0,l),
(504,715,l),
(326,715,l)
);
},
{
closed = 1;
nodes = (
(480,739,o),
(526,781,o),
(526,837,cs),
(526,892,o),
(480,935,o),
(424,935,cs),
(369,935,o),
(322,892,o),
(322,837,cs),
(322,781,o),
(369,739,o),
(424,739,cs)
);
},
{
closed = 1;
nodes = (
(334,429,ls),
(351,465,o),
(379,531,o),
(379,531,c),
(381,531,l),
(381,531,o),
(386,466,o),
(391,428,cs),
(414,256,l),
(250,256,l)
);
},
{
closed = 1;
nodes = (
(400,794,o),
(383,814,o),
(383,837,cs),
(383,860,o),
(400,880,o),
(424,880,cs),
(449,880,o),
(466,860,o),
(466,837,cs),
(466,814,o),
(449,794,o),
(424,794,cs)
);
}
);
width = 676;
}
);
note = Aring;
unicode = 197;
},
{
glyphname = Ccedilla;
kernLeft = C;
kernRight = C;
layers = (
{
hints = (
{
horizontal = 1;
place = (-193, 49);
place = (-193, 49);
type = Stem;
},
{
horizontal = 1;
place = (-88, 39);
place = (-88, 39);
type = Stem;
},
{
horizontal = 1;
place = (-12, 21);
target = up;
type = BottomGhost;
},
{
horizontal = 1;
place = (583, 146);
place = (583, 146);
type = Stem;
},
{
place = (32, 178);
place = (32, 178);
type = Stem;
},
{
place = (309, 92);
place = (309, 92);
type = Stem;
},
{
horizontal = 1;
place = (-16, 144);
place = (-16, 144);
type = Stem;
}
);
layerId = m01;
shapes = (
{
closed = 1;
nodes = (
(340,-193,o),
(401,-168,o),
(401,-110,cs),
(401,-64,o),
(360,-44,o),
(305,-49,c),
(305,-47,l),
(342,-16,l),
(345,-16,ls),
(429,-16,o),
(498,4,o),
(558,49,cs),
(617,94,o),
(658,162,o),
(677,248,c),
(502,248,l),
(481,171,o),
(426,128,o),
(351,128,cs),
(246,128,o),
(210,209,o),
(210,299,cs),
(210,432,o),
(270,583,o),
(410,583,cs),
(488,583,o),
(526,541,o),
(530,469,c),
(704,469,l),
(699,559,o),
(669,628,o),
(612,672,cs),
(564,710,o),
(499,729,o),
(417,729,cs),
(178,729,o),
(32,519,o),
(32,295,cs),
(32,122,o),
(128,9,o),
(287,-12,c),
(227,-71,l),
(241,-95,l),
(251,-91,o),
(264,-88,o),
(276,-88,cs),
(296,-88,o),
(309,-95,o),
(309,-112,cs),
(309,-138,o),
(278,-144,o),
(254,-144,cs),
(230,-144,o),
(205,-138,o),
(187,-129,c),
(165,-164,l),
(192,-182,o),
(225,-193,o),
(276,-193,cs)
);
}
);
width = 690;
}
);
note = Ccedilla;
unicode = 199;
},
{
glyphname = Eacute;
kernRight = E;
layers = (
{
hints = (
{
horizontal = 1;
place = (0, 149);
place = (0, 149);
type = Stem;
},
{
horizontal = 1;
place = (304, 136);
place = (304, 136);
type = Stem;
},
{
horizontal = 1;
place = (571, 144);
place = (571, 144);
type = Stem;
},
{
horizontal = 1;
place = (750, 130);
place = (750, 130);
type = Stem;
},
{
place = (-2, 657);
place = (-2, 657);
type = Stem;
}
);
layerId = m01;
shapes = (
{
closed = 1;
nodes = (
(343,750,l),
(465,750,l),
(586,880,l),
(405,880,l)
);
},
{
closed = 1;
nodes = (
(-2,0,l),
(528,0,l),
(557,149,l),
(201,149,l),
(231,304,l),
(528,304,l),
(554,440,l),
(258,440,l),
(283,571,l),
(627,571,l),
(655,715,l),
(136,715,l)
);
}
);
width = 608;
}
);
note = Eacute;
unicode = 201;
},
{
glyphname = Ntilde;
layers = (
{
hints = (
{
horizontal = 1;
place = (0, 21);
target = up;
type = BottomGhost;
},
{
horizontal = 1;
place = (715, -20);
target = down;
type = TopGhost;
},
{
horizontal = 1;
place = (752, 132);
place = (752, 132);
type = Stem;
},
{
place = (-2, 729);
place = (-2, 729);
type = Stem;
},
{
horizontal = 1;
place = (787, 99);
place = (787, 99);
type = Stem;
}
);
layerId = m01;
shapes = (
{
closed = 1;
nodes = (
(570,752,o),
(610,806,o),
(623,884,c),
(540,884,l),
(534,863,o),
(525,849,o),
(504,849,cs),
(475,849,o),
(444,886,o),
(391,886,cs),
(335,886,o),
(286,841,o),
(271,751,c),
(354,751,l),
(359,774,o),
(373,787,o),
(389,787,cs),
(419,787,o),
(450,752,o),
(506,752,cs)
);
},
{
closed = 1;
nodes = (
(-2,0,l),
(167,0,l),
(255,455,l),
(257,455,l),
(257,455,o),
(274,390,o),
(292,341,cs),
(414,0,l),
(589,0,l),
(727,715,l),
(558,715,l),
(470,263,l),
(468,263,l),
(468,263,o),
(456,309,o),
(436,364,cs),
(311,715,l),
(136,715,l)
);
}
);
width = 687;
}
);
note = Ntilde;
unicode = 209;
},
{
glyphname = Odieresis;
kernLeft = C;
kernRight = O;
layers = (
{
hints = (
{
horizontal = 1;
place = (-17, 143);
place = (-17, 143);
type = Stem;
},
{
horizontal = 1;
place = (587, 142);
place = (587, 142);
type = Stem;
},
{
place = (32, 177);
place = (32, 177);
type = Stem;
},
{
place = (556, 177);
place = (556, 177);
type = Stem;
},
{
horizontal = 1;
place = (753, 128);
place = (753, 128);
type = Stem;
}
);
layerId = m01;
shapes = (
{
closed = 1;
nodes = (
(252,753,l),
(403,753,l),
(428,881,l),
(277,881,l)
);
},
{
closed = 1;
nodes = (
(464,753,l),
(615,753,l),
(640,881,l),
(489,881,l)
);
},
{
closed = 1;
nodes = (
(251,126,o),
(209,203,o),
(209,297,cs),
(209,427,o),
(266,586,o),
(408,587,cs),
(514,587,o),
(556,509,o),
(556,409,cs),
(556,281,o),
(501,126,o),
(359,126,cs)
);
},
{
closed = 1;
nodes = (
(592,-16,o),
(733,184,o),
(733,411,cs),
(733,610,o),
(607,729,o),
(416,729,cs),
(178,729,o),
(33,527,o),
(32,295,cs),
(31,93,o),
(169,-17,o),
(354,-17,cs)
);
}
);
width = 727;
}
);
note = Odieresis;
unicode = 214;
},
{
glyphname = Udieresis;
kernLeft = U;
kernRight = U;
layers = (
{
hints = (
{
horizontal = 1;
place = (-13, 141);
place = (-13, 141);
type = Stem;
},
{
horizontal = 1;
place = (715, -20);
target = down;
type = TopGhost;
},
{
horizontal = 1;
place = (753, 128);
place = (753, 128);
type = Stem;
},
{
place = (38, 175);
place = (38, 175);
type = Stem;
}
);
layerId = m01;
shapes = (
{
closed = 1;
nodes = (
(243,753,l),
(394,753,l),
(419,881,l),
(268,881,l)
);
},
{
closed = 1;
nodes = (
(455,753,l),
(606,753,l),
(631,881,l),
(480,881,l)
);
},
{
closed = 1;
nodes = (
(495,-13,o),
(594,74,o),
(624,231,cs),
(718,715,l),
(544,715,l),
(452,240,ls),
(439,171,o),
(401,128,o),
(324,128,cs),
(234,128,o),
(201,177,o),
(216,256,cs),
(305,715,l),
(131,715,l),
(45,274,ls),
(7,74,o),
(135,-13,o),
(319,-13,cs)
);
}
);
width = 673;
}
);
note = Udieresis;
unicode = 220;
},
{
glyphname = aacute;
kernLeft = a;
kernRight = a;
layers = (
{
hints = (
{
horizontal = 1;
place = (-13, 104);
place = (-13, 104);
type = Stem;
},
{
horizontal = 1;
place = (417, 109);
place = (417, 109);
type = Stem;
},
{
horizontal = 1;
place = (572, 148);
place = (572, 148);
type = Stem;
},
{
place = (-6, 155);
place = (-6, 155);
type = Stem;
},
{
place = (297, 154);
place = (297, 154);
type = Stem;
},
{
horizontal = 1;
place = (0, 91);
place = (0, 91);
type = Stem;
},
{
place = (354, 153);
place = (354, 153);
type = Stem;
}
);
layerId = m01;
shapes = (
{
closed = 1;
nodes = (
(215,-13,o),
(261,16,o),
(295,56,c),
(297,56,l),
(297,34,o),
(299,12,o),
(305,0,c),
(459,0,l),
(459,7,l),
(450,18,o),
(448,41,o),
(456,80,cs),
(502,316,ls),
(518,400,o),
(495,454,o),
(453,485,cs),
(413,516,o),
(357,526,o),
(298,526,cs),
(149,526,o),
(69,456,o),
(50,350,c),
(199,350,l),
(210,395,o),
(241,417,o),
(290,417,cs),
(333,417,o),
(354,397,o),
(354,368,cs),
(354,318,o),
(313,312,o),
(212,305,cs),
(87,296,o),
(-6,260,o),
(-6,135,cs),
(-6,39,o),
(66,-13,o),
(155,-13,cs)
);
},
{
closed = 1;
nodes = (
(176,91,o),
(149,109,o),
(149,149,cs),
(149,208,o),
(206,211,o),
(247,218,cs),
(285,224,o),
(311,230,o),
(334,241,c),
(322,178,ls),
(310,122,o),
(270,91,o),
(215,91,cs)
);
},
{
closed = 1;
nodes = (
(257,572,l),
(380,572,l),
(518,720,l),
(333,720,l)
);
}
);
width = 528;
}
);
note = aacute;
unicode = 225;
},
{
glyphname = agrave;
kernLeft = a;
kernRight = a;
layers = (
{
hints = (
{
horizontal = 1;
place = (-13, 104);
place = (-13, 104);
type = Stem;
},
{
horizontal = 1;
place = (417, 109);
place = (417, 109);
type = Stem;
},
{
horizontal = 1;
place = (572, 148);
place = (572, 148);
type = Stem;
},
{
place = (-6, 155);
place = (-6, 155);
type = Stem;
},
{
place = (297, 154);
place = (297, 154);
type = Stem;
},
{
horizontal = 1;
place = (0, 91);
place = (0, 91);
type = Stem;
},
{
place = (354, 153);
place = (354, 153);
type = Stem;
}
);
layerId = m01;
shapes = (
{
closed = 1;
nodes = (
(215,-13,o),
(261,16,o),
(295,56,c),
(297,56,l),
(297,34,o),
(299,12,o),
(305,0,c),
(459,0,l),
(459,7,l),
(450,18,o),
(448,41,o),
(456,80,cs),
(502,316,ls),
(518,400,o),
(495,454,o),
(453,485,cs),
(413,516,o),
(357,526,o),
(298,526,cs),
(149,526,o),
(69,456,o),
(50,350,c),
(199,350,l),
(210,395,o),
(241,417,o),
(290,417,cs),
(333,417,o),
(354,397,o),
(354,368,cs),
(354,318,o),
(313,312,o),
(212,305,cs),
(87,296,o),
(-6,260,o),
(-6,135,cs),
(-6,39,o),
(66,-13,o),
(155,-13,cs)
);
},
{
closed = 1;
nodes = (
(176,91,o),
(149,109,o),
(149,149,cs),
(149,208,o),
(206,211,o),
(247,218,cs),
(285,224,o),
(311,230,o),
(334,241,c),
(322,178,ls),
(310,122,o),
(270,91,o),
(215,91,cs)
);
},
{
closed = 1;
nodes = (
(266,572,l),
(387,572,l),
(344,720,l),
(169,720,l)
);
}
);
width = 528;
}
);
note = agrave;
unicode = 224;
},
{
glyphname = acircumflex;
kernLeft = a;
kernRight = a;
layers = (
{
hints = (
{
horizontal = 1;
place = (-13, 104);
place = (-13, 104);
type = Stem;
},
{
horizontal = 1;
place = (417, 109);
place = (417, 109);
type = Stem;
},
{
horizontal = 1;
place = (574, 137);
place = (574, 137);
type = Stem;
},
{
place = (-6, 155);
place = (-6, 155);
type = Stem;
},
{
place = (297, 154);
place = (297, 154);
type = Stem;
},
{
horizontal = 1;
place = (0, 91);
place = (0, 91);
type = Stem;
},
{
place = (354, 153);
place = (354, 153);
type = Stem;
}
);
layerId = m01;
shapes = (
{
closed = 1;
nodes = (
(215,-13,o),
(261,16,o),
(295,56,c),
(297,56,l),
(297,34,o),
(299,12,o),
(305,0,c),
(459,0,l),
(459,7,l),
(450,18,o),
(448,41,o),
(456,80,cs),
(502,316,ls),
(518,400,o),
(495,454,o),
(453,485,cs),
(413,516,o),
(357,526,o),
(298,526,cs),
(149,526,o),
(69,456,o),
(50,350,c),
(199,350,l),
(210,395,o),
(241,417,o),
(290,417,cs),
(333,417,o),
(354,397,o),
(354,368,cs),
(354,318,o),
(313,312,o),
(212,305,cs),
(87,296,o),
(-6,260,o),
(-6,135,cs),
(-6,39,o),
(66,-13,o),
(155,-13,cs)
);
},
{
closed = 1;
nodes = (
(176,91,o),
(149,109,o),
(149,149,cs),
(149,208,o),
(206,211,o),
(247,218,cs),
(285,224,o),
(311,230,o),
(334,241,c),
(322,178,ls),
(310,122,o),
(270,91,o),
(215,91,cs)
);
},
{
closed = 1;
nodes = (
(136,574,l),
(277,574,l),
(332,640,l),
(334,640,l),
(368,574,l),
(500,574,l),
(417,711,l),
(263,711,l)
);
}
);
width = 528;
}
);
note = acircumflex;
unicode = 226;
},
{
glyphname = adieresis;
kernLeft = a;
kernRight = a;
layers = (
{
hints = (
{
horizontal = 1;
place = (-13, 104);
place = (-13, 104);
type = Stem;
},
{
horizontal = 1;
place = (417, 109);
place = (417, 109);
type = Stem;
},
{
horizontal = 1;
place = (577, 128);
place = (577, 128);
type = Stem;
},
{
place = (-6, 155);
place = (-6, 155);
type = Stem;
},
{
place = (297, 154);
place = (297, 154);
type = Stem;
},
{
horizontal = 1;
place = (0, 91);
place = (0, 91);
type = Stem;
},
{
place = (354, 153);
place = (354, 153);
type = Stem;
}
);
layerId = m01;
shapes = (
{
closed = 1;
nodes = (
(215,-13,o),
(261,16,o),
(295,56,c),
(297,56,l),
(297,34,o),
(299,12,o),
(305,0,c),
(459,0,l),
(459,7,l),
(450,18,o),
(448,41,o),
(456,80,cs),
(502,316,ls),
(518,400,o),
(495,454,o),
(453,485,cs),
(413,516,o),
(357,526,o),
(298,526,cs),
(149,526,o),
(69,456,o),
(50,350,c),
(199,350,l),
(210,395,o),
(241,417,o),
(290,417,cs),
(333,417,o),
(354,397,o),
(354,368,cs),
(354,318,o),
(313,312,o),
(212,305,cs),
(87,296,o),
(-6,260,o),
(-6,135,cs),
(-6,39,o),
(66,-13,o),
(155,-13,cs)
);
},
{
closed = 1;
nodes = (
(176,91,o),
(149,109,o),
(149,149,cs),
(149,208,o),
(206,211,o),
(247,218,cs),
(285,224,o),
(311,230,o),
(334,241,c),
(322,178,ls),
(310,122,o),
(270,91,o),
(215,91,cs)
);
},
{
closed = 1;
nodes = (
(137,577,l),
(287,577,l),
(312,705,l),
(162,705,l)
);
},
{
closed = 1;
nodes = (
(358,577,l),
(508,577,l),
(533,705,l),
(383,705,l)
);
}
);
width = 528;
}
);
note = adieresis;
unicode = 228;
},
{
glyphname = atilde;
kernLeft = a;
kernRight = a;
layers = (
{
hints = (
{
horizontal = 1;
place = (-13, 104);
place = (-13, 104);
type = Stem;
},
{
horizontal = 1;
place = (417, 109);
place = (417, 109);
type = Stem;
},
{
horizontal = 1;
place = (572, 132);
place = (572, 132);
type = Stem;
},
{
place = (-6, 155);
place = (-6, 155);
type = Stem;
},
{
place = (297, 154);
place = (297, 154);
type = Stem;
},
{
horizontal = 1;
place = (0, 91);
place = (0, 91);
type = Stem;
},
{
place = (354, 153);
place = (354, 153);
type = Stem;
},
{
horizontal = 1;
place = (607, 99);
place = (607, 99);
type = Stem;
}
);
layerId = m01;
shapes = (
{
closed = 1;
nodes = (
(215,-13,o),
(261,16,o),
(295,56,c),
(297,56,l),
(297,34,o),
(299,12,o),
(305,0,c),
(459,0,l),
(459,7,l),
(450,18,o),
(448,41,o),
(456,80,cs),
(502,316,ls),
(518,400,o),
(495,454,o),
(453,485,cs),
(413,516,o),
(357,526,o),
(298,526,cs),
(149,526,o),
(69,456,o),
(50,350,c),
(199,350,l),
(210,395,o),
(241,417,o),
(290,417,cs),
(333,417,o),
(354,397,o),
(354,368,cs),
(354,318,o),
(313,312,o),
(212,305,cs),
(87,296,o),
(-6,260,o),
(-6,135,cs),
(-6,39,o),
(66,-13,o),
(155,-13,cs)
);
},
{
closed = 1;
nodes = (
(176,91,o),
(149,109,o),
(149,149,cs),
(149,208,o),
(206,211,o),
(247,218,cs),
(285,224,o),
(311,230,o),
(334,241,c),
(322,178,ls),
(310,122,o),
(270,91,o),
(215,91,cs)
);
},
{
closed = 1;
nodes = (
(450,572,o),
(489,626,o),
(502,704,c),
(420,704,l),
(414,683,o),
(405,669,o),
(384,669,cs),
(355,669,o),
(329,706,o),
(276,706,cs),
(220,706,o),
(171,661,o),
(156,571,c),
(239,571,l),
(244,594,o),
(258,607,o),
(274,607,cs),
(304,607,o),
(330,572,o),
(385,572,cs)
);
}
);
width = 528;
}
);
note = atilde;
unicode = 227;
},
{
glyphname = aring;
kernLeft = a;
kernRight = a;
layers = (
{
hints = (
{
horizontal = 1;
place = (-13, 104);
place = (-13, 104);
type = Stem;
},
{
horizontal = 1;
place = (417, 109);
place = (417, 109);
type = Stem;
},
{
horizontal = 1;
place = (558, 56);
place = (558, 56);
type = Stem;
},
{
horizontal = 1;
place = (699, 56);
place = (699, 56);
type = Stem;
},
{
place = (-6, 155);
place = (-6, 155);
type = Stem;
},
{
place = (222, 60);
place = (222, 60);
type = Stem;
},
{
place = (297, 154);
place = (297, 154);
type = Stem;
},
{
horizontal = 1;
place = (0, 91);
place = (0, 91);
type = Stem;
},
{
place = (354, 153);
place = (354, 153);
type = Stem;
},
{
place = (365, 61);
place = (365, 61);
type = Stem;
}
);
layerId = m01;
shapes = (
{
closed = 1;
nodes = (
(215,-13,o),
(261,16,o),
(295,56,c),
(297,56,l),
(297,34,o),
(299,12,o),
(305,0,c),
(459,0,l),
(459,7,l),
(450,18,o),
(448,41,o),
(456,80,cs),
(502,316,ls),
(518,400,o),
(495,454,o),
(453,485,cs),
(413,516,o),
(357,526,o),
(298,526,cs),
(149,526,o),
(69,456,o),
(50,350,c),
(199,350,l),
(210,395,o),
(241,417,o),
(290,417,cs),
(333,417,o),
(354,397,o),
(354,368,cs),
(354,318,o),
(313,312,o),
(212,305,cs),
(87,296,o),
(-6,260,o),
(-6,135,cs),
(-6,39,o),
(66,-13,o),
(155,-13,cs)
);
},
{
closed = 1;
nodes = (
(176,91,o),
(149,109,o),
(149,149,cs),
(149,208,o),
(206,211,o),
(247,218,cs),
(285,224,o),
(311,230,o),
(334,241,c),
(322,178,ls),
(310,122,o),
(270,91,o),
(215,91,cs)
);
},
{
closed = 1;
nodes = (
(299,614,o),
(282,633,o),
(282,656,cs),
(282,679,o),
(299,699,o),
(324,699,cs),
(348,699,o),
(365,679,o),
(365,656,cs),
(365,633,o),
(348,614,o),
(324,614,cs)
);
},
{
closed = 1;
nodes = (
(379,558,o),
(426,601,o),
(426,656,cs),
(426,711,o),
(379,755,o),
(324,755,cs),
(268,755,o),
(222,711,o),
(222,656,cs),
(222,601,o),
(268,558,o),
(324,558,cs)
);
}
);
width = 528;
}
);
note = aring;
unicode = 229;
},
{
glyphname = ccedilla;
kernLeft = c;
kernRight = c;
layers = (
{
hints = (
{
horizontal = 1;
place = (-193, 49);
place = (-193, 49);
type = Stem;
},
{
horizontal = 1;
place = (-88, 39);
place = (-88, 39);
type = Stem;
},
{
horizontal = 1;
place = (-11, 21);
target = up;
type = BottomGhost;
},
{
horizontal = 1;
place = (407, 119);
place = (407, 119);
type = Stem;
},
{
place = (13, 160);
place = (13, 160);
type = Stem;
},
{
place = (221, 92);
place = (221, 92);
type = Stem;
},
{
place = (374, 154);
place = (374, 154);
type = Stem;
},
{
horizontal = 1;
place = (-16, 121);
place = (-16, 121);
type = Stem;
}
);
layerId = m01;
shapes = (
{
closed = 1;
nodes = (
(252,-193,o),
(313,-168,o),
(313,-110,cs),
(313,-64,o),
(272,-44,o),
(217,-49,c),
(217,-47,l),
(254,-16,l),
(257,-16,ls),
(386,-15,o),
(487,61,o),
(513,194,c),
(360,194,l),
(344,133,o),
(306,105,o),
(260,105,cs),
(196,105,o),
(173,151,o),
(173,208,cs),
(173,294,o),
(211,407,o),
(300,407,cs),
(350,407,o),
(370,375,o),
(374,330,c),
(528,330,l),
(523,468,o),
(427,526,o),
(304,526,cs),
(125,526,o),
(13,379,o),
(13,211,cs),
(13,75,o),
(95,6,o),
(200,-11,c),
(139,-71,l),
(153,-95,l),
(163,-91,o),
(176,-88,o),
(188,-88,cs),
(208,-88,o),
(221,-95,o),
(221,-112,cs),
(221,-138,o),
(190,-144,o),
(166,-144,cs),
(142,-144,o),
(117,-138,o),
(99,-129,c),
(77,-164,l),
(104,-182,o),
(137,-193,o),
(188,-193,cs)
);
}
);
width = 532;
}
);
note = ccedilla;
unicode = 231;
},
{
glyphname = eacute;
kernLeft = c;
kernRight = e;
layers = (
{
hints = (
{
horizontal = 1;
place = (-15, 116);
place = (-15, 116);
type = Stem;
},
{
horizontal = 1;
place = (214, 97);
place = (214, 97);
type = Stem;
},
{
horizontal = 1;
place = (412, 115);
place = (412, 115);
type = Stem;
},
{
horizontal = 1;
place = (572, 148);
place = (572, 148);
type = Stem;
},
{
place = (13, 158);
place = (13, 158);
type = Stem;
},
{
place = (376, 152);
place = (376, 152);
type = Stem;
},
{
horizontal = 1;
place = (-15, 168);
place = (-15, 168);
type = Stem;
}
);
layerId = m01;
shapes = (
{
closed = 1;
nodes = (
(522,214,l),
(541,341,o),
(514,442,o),
(433,493,cs),
(397,515,o),
(355,527,o),
(296,527,cs),
(127,527,o),
(13,382,o),
(13,221,cs),
(13,64,o),
(118,-15,o),
(257,-15,cs),
(389,-15,o),
(478,54,o),
(510,153,c),
(352,153,l),
(336,117,o),
(303,101,o),
(264,101,cs),
(191,101,o),
(172,150,o),
(171,214,c)
);
},
{
closed = 1;
nodes = (
(245,572,l),
(368,572,l),
(506,720,l),
(321,720,l)
);
},
{
closed = 1;
nodes = (
(355,412,o),
(378,366,o),
(376,311,c),
(184,311,l),
(202,374,o),
(243,412,o),
(294,412,cs)
);
}
);
width = 543;
}
);
note = eacute;
unicode = 233;
},
{
glyphname = egrave;
kernLeft = c;
kernRight = e;
layers = (
{
hints = (
{
horizontal = 1;
place = (-15, 116);
place = (-15, 116);
type = Stem;
},
{
horizontal = 1;
place = (214, 97);
place = (214, 97);
type = Stem;
},
{
horizontal = 1;
place = (412, 115);
place = (412, 115);
type = Stem;
},
{
horizontal = 1;
place = (572, 148);
place = (572, 148);
type = Stem;
},
{
place = (13, 158);
place = (13, 158);
type = Stem;
},
{
place = (376, 152);
place = (376, 152);
type = Stem;
},
{
horizontal = 1;
place = (-15, 168);
place = (-15, 168);
type = Stem;
}
);
layerId = m01;
shapes = (
{
closed = 1;
nodes = (
(522,214,l),
(541,341,o),
(514,442,o),
(433,493,cs),
(397,515,o),
(355,527,o),
(296,527,cs),
(127,527,o),
(13,382,o),
(13,221,cs),
(13,64,o),
(118,-15,o),
(257,-15,cs),
(389,-15,o),
(478,54,o),
(510,153,c),
(352,153,l),
(336,117,o),
(303,101,o),
(264,101,cs),
(191,101,o),
(172,150,o),
(171,214,c)
);
},
{
closed = 1;
nodes = (
(253,572,l),
(374,572,l),
(331,720,l),
(156,720,l)
);
},
{
closed = 1;
nodes = (
(355,412,o),
(378,366,o),
(376,311,c),
(184,311,l),
(202,374,o),
(243,412,o),
(294,412,cs)
);
}
);
width = 543;
}
);
note = egrave;
unicode = 232;
},
{
glyphname = ecircumflex;
kernLeft = c;
kernRight = e;
layers = (
{
hints = (
{
horizontal = 1;
place = (-15, 116);
place = (-15, 116);
type = Stem;
},
{
horizontal = 1;
place = (214, 97);
place = (214, 97);
type = Stem;
},
{
horizontal = 1;
place = (412, 115);
place = (412, 115);
type = Stem;
},
{
horizontal = 1;
place = (574, 137);
place = (574, 137);
type = Stem;
},
{
place = (13, 158);
place = (13, 158);
type = Stem;
},
{
place = (376, 152);
place = (376, 152);
type = Stem;
},
{
horizontal = 1;
place = (-15, 168);
place = (-15, 168);
type = Stem;
}
);
layerId = m01;
shapes = (
{
closed = 1;
nodes = (
(522,214,l),
(541,341,o),
(514,442,o),
(433,493,cs),
(397,515,o),
(355,527,o),
(296,527,cs),
(127,527,o),
(13,382,o),
(13,221,cs),
(13,64,o),
(118,-15,o),
(257,-15,cs),
(389,-15,o),
(478,54,o),
(510,153,c),
(352,153,l),
(336,117,o),
(303,101,o),
(264,101,cs),
(191,101,o),
(172,150,o),
(171,214,c)
);
},
{
closed = 1;
nodes = (
(124,574,l),
(265,574,l),
(320,640,l),
(322,640,l),
(356,574,l),
(488,574,l),
(405,711,l),
(251,711,l)
);
},
{
closed = 1;
nodes = (
(355,412,o),
(378,366,o),
(376,311,c),
(184,311,l),
(202,374,o),
(243,412,o),
(294,412,cs)
);
}
);
width = 543;
}
);
note = ecircumflex;
unicode = 234;
},
{
glyphname = edieresis;
kernLeft = c;
kernRight = e;
layers = (
{
hints = (
{
horizontal = 1;
place = (-15, 116);
place = (-15, 116);
type = Stem;
},
{
horizontal = 1;
place = (214, 97);
place = (214, 97);
type = Stem;
},
{
horizontal = 1;
place = (412, 115);
place = (412, 115);
type = Stem;
},
{
horizontal = 1;
place = (577, 128);
place = (577, 128);
type = Stem;
},
{
place = (13, 158);
place = (13, 158);
type = Stem;
},
{
place = (376, 152);
place = (376, 152);
type = Stem;
},
{
horizontal = 1;
place = (-15, 168);
place = (-15, 168);
type = Stem;
}
);
layerId = m01;
shapes = (
{
closed = 1;
nodes = (
(522,214,l),
(541,341,o),
(514,442,o),
(433,493,cs),
(397,515,o),
(355,527,o),
(296,527,cs),
(127,527,o),
(13,382,o),
(13,221,cs),
(13,64,o),
(118,-15,o),
(257,-15,cs),
(389,-15,o),
(478,54,o),
(510,153,c),
(352,153,l),
(336,117,o),
(303,101,o),
(264,101,cs),
(191,101,o),
(172,150,o),
(171,214,c)
);
},
{
closed = 1;
nodes = (
(345,577,l),
(495,577,l),
(520,705,l),
(370,705,l)
);
},
{
closed = 1;
nodes = (
(124,577,l),
(274,577,l),
(299,705,l),
(149,705,l)
);
},
{
closed = 1;
nodes = (
(355,412,o),
(378,366,o),
(376,311,c),
(184,311,l),
(202,374,o),
(243,412,o),
(294,412,cs)
);
}
);
width = 543;
}
);
note = edieresis;
unicode = 235;
},
{
glyphname = iacute;
kernLeft = b;
kernRight = d;
layers = (
{
hints = (
{
horizontal = 1;
place = (0, 21);
target = up;
type = BottomGhost;
},
{
horizontal = 1;
place = (512, -20);
target = down;
type = TopGhost;
},
{
horizontal = 1;
place = (572, 148);
place = (572, 148);
type = Stem;
},
{
place = (-12, 385);
place = (-12, 385);
type = Stem;
}
);
layerId = m01;
shapes = (
{
closed = 1;
nodes = (
(112,572,l),
(235,572,l),
(373,720,l),
(188,720,l)
);
},
{
closed = 1;
nodes = (
(-12,0,l),
(148,0,l),
(247,512,l),
(87,512,l)
);
}
);
width = 237;
}
);
note = iacute;
unicode = 237;
},
{
glyphname = igrave;
kernLeft = b;
kernRight = d;
layers = (
{
hints = (
{
horizontal = 1;
place = (0, 21);
target = up;
type = BottomGhost;
},
{
horizontal = 1;
place = (512, -20);
target = down;
type = TopGhost;
},
{
horizontal = 1;
place = (572, 148);
place = (572, 148);
type = Stem;
},
{
place = (-12, 259);
place = (-12, 259);
type = Stem;
}
);
layerId = m01;
shapes = (
{
closed = 1;
nodes = (
(-12,0,l),
(148,0,l),
(247,512,l),
(87,512,l)
);
},
{
closed = 1;
nodes = (
(125,572,l),
(246,572,l),
(203,720,l),
(28,720,l)
);
}
);
width = 237;
}
);
note = igrave;
unicode = 236;
},
{
glyphname = icircumflex;
kernLeft = b;
kernRight = d;
layers = (
{
hints = (
{
horizontal = 1;
place = (0, 21);
target = up;
type = BottomGhost;
},
{
horizontal = 1;
place = (512, -20);
target = down;
type = TopGhost;
},
{
horizontal = 1;
place = (574, 137);
place = (574, 137);
type = Stem;
},
{
place = (-12, 354);
place = (-12, 354);
type = Stem;
}
);
layerId = m01;
shapes = (
{
closed = 1;
nodes = (
(4,574,l),
(139,574,l),
(186,638,l),
(188,638,l),
(215,574,l),
(342,574,l),
(271,711,l),
(120,711,l)
);
},
{
closed = 1;
nodes = (
(-12,0,l),
(148,0,l),
(247,512,l),
(87,512,l)
);
}
);
width = 237;
}
);
note = icircumflex;
unicode = 238;
},
{
glyphname = idieresis;
kernLeft = b;
kernRight = d;
layers = (
{
hints = (
{
horizontal = 1;
place = (0, 21);
target = up;
type = BottomGhost;
},
{
horizontal = 1;
place = (512, -20);
target = down;
type = TopGhost;
},
{
horizontal = 1;
place = (577, 128);
place = (577, 128);
type = Stem;
},
{
place = (-12, 358);
place = (-12, 358);
type = Stem;
}
);
layerId = m01;
shapes = (
{
closed = 1;
nodes = (
(-12,0,l),
(148,0,l),
(247,512,l),
(87,512,l)
);
},
{
closed = 1;
nodes = (
(37,577,l),
(160,577,l),
(185,705,l),
(62,705,l)
);
},
{
closed = 1;
nodes = (
(198,577,l),
(321,577,l),
(346,705,l),
(223,705,l)
);
}
);
width = 237;
}
);
note = idieresis;
unicode = 239;
},
{
glyphname = ntilde;
kernLeft = m;
kernRight = h;
layers = (
{
hints = (
{
horizontal = 1;
place = (0, 21);
target = up;
type = BottomGhost;
},
{
horizontal = 1;
place = (395, 117);
place = (395, 117);
type = Stem;
},
{
horizontal = 1;
place = (572, 132);
place = (572, 132);
type = Stem;
},
{
place = (373, 164);
place = (373, 164);
type = Stem;
},
{
horizontal = 1;
place = (395, 132);
place = (395, 132);
type = Stem;
},
{
horizontal = 1;
place = (607, 99);
place = (607, 99);
type = Stem;
}
);
layerId = m01;
shapes = (
{
closed = 1;
nodes = (
(-12,0,l),
(148,0,l),
(202,281,ls),
(215,345,o),
(255,395,o),
(310,395,cs),
(363,395,o),
(381,359,o),
(370,303,cs),
(311,0,l),
(471,0,l),
(532,315,ls),
(557,447,o),
(497,527,o),
(394,527,cs),
(321,527,o),
(270,490,o),
(229,431,c),
(226,431,l),
(242,512,l),
(87,512,l)
);
},
{
closed = 1;
nodes = (
(465,572,o),
(504,626,o),
(517,704,c),
(435,704,l),
(429,683,o),
(420,669,o),
(399,669,cs),
(370,669,o),
(344,706,o),
(291,706,cs),
(235,706,o),
(186,661,o),
(171,571,c),
(254,571,l),
(259,594,o),
(273,607,o),
(289,607,cs),
(319,607,o),
(345,572,o),
(400,572,cs)
);
}
);
width = 556;
}
);
note = ntilde;
unicode = 241;
},
{
glyphname = oacute;
kernLeft = c;
kernRight = o;
layers = (
{
hints = (
{
horizontal = 1;
place = (-16, 114);
place = (-16, 114);
type = Stem;
},
{
horizontal = 1;
place = (412, 114);
place = (412, 114);
type = Stem;
},
{
horizontal = 1;
place = (572, 148);
place = (572, 148);
type = Stem;
},
{
place = (13, 161);
place = (13, 161);
type = Stem;
},
{
place = (391, 162);
place = (391, 162);
type = Stem;
}
);
layerId = m01;
shapes = (
{
closed = 1;
nodes = (
(259,572,l),
(382,572,l),
(520,720,l),
(335,720,l)
);
},
{
closed = 1;
nodes = (
(197,98,o),
(174,151,o),
(174,212,cs),
(173,294,o),
(209,412,o),
(301,412,cs),
(367,412,o),
(391,357,o),
(391,298,cs),
(392,214,o),
(356,98,o),
(263,98,cs)
);
},
{
closed = 1;
nodes = (
(439,-16,o),
(553,123,o),
(553,293,cs),
(552,450,o),
(437,526,o),
(306,526,cs),
(128,526,o),
(13,387,o),
(13,219,cs),
(13,61,o),
(130,-16,o),
(260,-16,cs)
);
}
);
width = 567;
}
);
note = oacute;
unicode = 243;
},
{
glyphname = ograve;
kernLeft = c;
kernRight = o;
layers = (
{
hints = (
{
horizontal = 1;
place = (-16, 114);
place = (-16, 114);
type = Stem;
},
{
horizontal = 1;
place = (412, 114);
place = (412, 114);
type = Stem;
},
{
horizontal = 1;
place = (572, 148);
place = (572, 148);
type = Stem;
},
{
place = (13, 161);
place = (13, 161);
type = Stem;
},
{
place = (391, 162);
place = (391, 162);
type = Stem;
}
);
layerId = m01;
shapes = (
{
closed = 1;
nodes = (
(197,98,o),
(174,151,o),
(174,212,cs),
(173,294,o),
(209,412,o),
(301,412,cs),
(367,412,o),
(391,357,o),
(391,298,cs),
(392,214,o),
(356,98,o),
(263,98,cs)
);
},
{
closed = 1;
nodes = (
(439,-16,o),
(553,123,o),
(553,293,cs),
(552,450,o),
(437,526,o),
(306,526,cs),
(128,526,o),
(13,387,o),
(13,219,cs),
(13,61,o),
(130,-16,o),
(260,-16,cs)
);
},
{
closed = 1;
nodes = (
(265,572,l),
(386,572,l),
(343,720,l),
(168,720,l)
);
}
);
width = 567;
}
);
note = ograve;
unicode = 242;
},
{
glyphname = ocircumflex;
kernLeft = c;
kernRight = o;
layers = (
{
hints = (
{
horizontal = 1;
place = (-16, 114);
place = (-16, 114);
type = Stem;
},
{
horizontal = 1;
place = (412, 114);
place = (412, 114);
type = Stem;
},
{
horizontal = 1;
place = (574, 137);
place = (574, 137);
type = Stem;
},
{
place = (13, 161);
place = (13, 161);
type = Stem;
},
{
place = (391, 162);
place = (391, 162);
type = Stem;
}
);
layerId = m01;
shapes = (
{
closed = 1;
nodes = (
(138,574,l),
(279,574,l),
(334,640,l),
(336,640,l),
(370,574,l),
(502,574,l),
(419,711,l),
(265,711,l)
);
},
{
closed = 1;
nodes = (
(197,98,o),
(174,151,o),
(174,212,cs),
(173,294,o),
(209,412,o),
(301,412,cs),
(367,412,o),
(391,357,o),
(391,298,cs),
(392,214,o),
(356,98,o),
(263,98,cs)
);
},
{
closed = 1;
nodes = (
(439,-16,o),
(553,123,o),
(553,293,cs),
(552,450,o),
(437,526,o),
(306,526,cs),
(128,526,o),
(13,387,o),
(13,219,cs),
(13,61,o),
(130,-16,o),
(260,-16,cs)
);
}
);
width = 567;
}
);
note = ocircumflex;
unicode = 244;
},
{
glyphname = odieresis;
kernLeft = c;
kernRight = o;
layers = (
{
hints = (
{
horizontal = 1;
place = (-16, 114);
place = (-16, 114);
type = Stem;
},
{
horizontal = 1;
place = (412, 114);
place = (412, 114);
type = Stem;
},
{
horizontal = 1;
place = (577, 128);
place = (577, 128);
type = Stem;
},
{
place = (13, 161);
place = (13, 161);
type = Stem;
},
{
place = (391, 162);
place = (391, 162);
type = Stem;
}
);
layerId = m01;
shapes = (
{
closed = 1;
nodes = (
(140,577,l),
(290,577,l),
(315,705,l),
(165,705,l)
);
},
{
closed = 1;
nodes = (
(361,577,l),
(511,577,l),
(536,705,l),
(386,705,l)
);
},
{
closed = 1;
nodes = (
(197,98,o),
(174,151,o),
(174,212,cs),
(173,294,o),
(209,412,o),
(301,412,cs),
(367,412,o),
(391,357,o),
(391,298,cs),
(392,214,o),
(356,98,o),
(263,98,cs)
);
},
{
closed = 1;
nodes = (
(439,-16,o),
(553,123,o),
(553,293,cs),
(552,450,o),
(437,526,o),
(306,526,cs),
(128,526,o),
(13,387,o),
(13,219,cs),
(13,61,o),
(130,-16,o),
(260,-16,cs)
);
}
);
width = 567;
}
);
note = odieresis;
unicode = 246;
},
{
glyphname = otilde;
kernLeft = c;
kernRight = o;
layers = (
{
hints = (
{
horizontal = 1;
place = (-16, 114);
place = (-16, 114);
type = Stem;
},
{
horizontal = 1;
place = (412, 114);
place = (412, 114);
type = Stem;
},
{
horizontal = 1;
place = (572, 132);
place = (572, 132);
type = Stem;
},
{
place = (13, 161);
place = (13, 161);
type = Stem;
},
{
place = (391, 162);
place = (391, 162);
type = Stem;
},
{
horizontal = 1;
place = (607, 99);
place = (607, 99);
type = Stem;
}
);
layerId = m01;
shapes = (
{
closed = 1;
nodes = (
(197,98,o),
(174,151,o),
(174,212,cs),
(173,294,o),
(209,412,o),
(301,412,cs),
(367,412,o),
(391,357,o),
(391,298,cs),
(392,214,o),
(356,98,o),
(263,98,cs)
);
},
{
closed = 1;
nodes = (
(439,-16,o),
(553,123,o),
(553,293,cs),
(552,450,o),
(437,526,o),
(306,526,cs),
(128,526,o),
(13,387,o),
(13,219,cs),
(13,61,o),
(130,-16,o),
(260,-16,cs)
);
},
{
closed = 1;
nodes = (
(447,572,o),
(486,626,o),
(499,704,c),
(417,704,l),
(411,683,o),
(402,669,o),
(381,669,cs),
(352,669,o),
(326,706,o),
(273,706,cs),
(217,706,o),
(168,661,o),
(153,571,c),
(236,571,l),
(241,594,o),
(255,607,o),
(271,607,cs),
(301,607,o),
(327,572,o),
(382,572,cs)
);
}
);
width = 567;
}
);
note = otilde;
unicode = 245;
},
{
glyphname = uacute;
kernLeft = u;
kernRight = u;
layers = (
{
hints = (
{
horizontal = 1;
place = (0, 117);
place = (0, 117);
type = Stem;
},
{
horizontal = 1;
place = (512, -20);
target = down;
type = TopGhost;
},
{
horizontal = 1;
place = (572, 148);
place = (572, 148);
type = Stem;
},
{
place = (14, 166);
place = (14, 166);
type = Stem;
},
{
horizontal = 1;
place = (-15, 132);
place = (-15, 132);
type = Stem;
}
);
layerId = m01;
shapes = (
{
closed = 1;
nodes = (
(266,572,l),
(389,572,l),
(527,720,l),
(342,720,l)
);
},
{
closed = 1;
nodes = (
(234,-15,o),
(283,21,o),
(321,77,c),
(324,77,l),
(309,0,l),
(462,0,l),
(561,512,l),
(401,512,l),
(347,229,ls),
(333,159,o),
(294,117,o),
(239,117,cs),
(186,117,o),
(172,156,o),
(183,214,cs),
(241,512,l),
(81,512,l),
(20,192,ls),
(-6,61,o),
(55,-15,o),
(163,-15,cs)
);
}
);
width = 551;
}
);
note = uacute;
unicode = 250;
},
{
glyphname = ugrave;
kernLeft = u;
kernRight = u;
layers = (
{
hints = (
{
horizontal = 1;
place = (-15, 132);
place = (-15, 132);
type = Stem;
},
{
horizontal = 1;
place = (512, -20);
target = down;
type = TopGhost;
},
{
horizontal = 1;
place = (572, 148);
place = (572, 148);
type = Stem;
},
{
place = (14, 166);
place = (14, 166);
type = Stem;
},
{
horizontal = 1;
place = (0, 117);
place = (0, 117);
type = Stem;
}
);
layerId = m01;
shapes = (
{
closed = 1;
nodes = (
(234,-15,o),
(283,21,o),
(321,77,c),
(324,77,l),
(309,0,l),
(462,0,l),
(561,512,l),
(401,512,l),
(347,229,ls),
(333,159,o),
(294,117,o),
(239,117,cs),
(186,117,o),
(172,156,o),
(183,214,cs),
(241,512,l),
(81,512,l),
(20,192,ls),
(-6,61,o),
(55,-15,o),
(163,-15,cs)
);
},
{
closed = 1;
nodes = (
(273,572,l),
(394,572,l),
(351,720,l),
(176,720,l)
);
}
);
width = 551;
}
);
note = ugrave;
unicode = 249;
},
{
glyphname = ucircumflex;
kernLeft = u;
kernRight = u;
layers = (
{
hints = (
{
horizontal = 1;
place = (0, 117);
place = (0, 117);
type = Stem;
},
{
horizontal = 1;
place = (512, -20);
target = down;
type = TopGhost;
},
{
horizontal = 1;
place = (574, 137);
place = (574, 137);
type = Stem;
},
{
place = (14, 166);
place = (14, 166);
type = Stem;
},
{
horizontal = 1;
place = (-15, 132);
place = (-15, 132);
type = Stem;
}
);
layerId = m01;
shapes = (
{
closed = 1;
nodes = (
(149,574,l),
(290,574,l),
(345,640,l),
(347,640,l),
(381,574,l),
(513,574,l),
(430,711,l),
(276,711,l)
);
},
{
closed = 1;
nodes = (
(234,-15,o),
(283,21,o),
(321,77,c),
(324,77,l),
(309,0,l),
(462,0,l),
(561,512,l),
(401,512,l),
(347,229,ls),
(333,159,o),
(294,117,o),
(239,117,cs),
(186,117,o),
(172,156,o),
(183,214,cs),
(241,512,l),
(81,512,l),
(20,192,ls),
(-6,61,o),
(55,-15,o),
(163,-15,cs)
);
}
);
width = 551;
}
);
note = ucircumflex;
unicode = 251;
},
{
glyphname = udieresis;
kernLeft = u;
kernRight = u;
layers = (
{
hints = (
{
horizontal = 1;
place = (0, 117);
place = (0, 117);
type = Stem;
},
{
horizontal = 1;
place = (512, -20);
target = down;
type = TopGhost;
},
{
horizontal = 1;
place = (577, 128);
place = (577, 128);
type = Stem;
},
{
place = (14, 166);
place = (14, 166);
type = Stem;
},
{
horizontal = 1;
place = (-15, 132);
place = (-15, 132);
type = Stem;
}
);
layerId = m01;
shapes = (
{
closed = 1;
nodes = (
(148,577,l),
(298,577,l),
(323,705,l),
(173,705,l)
);
},
{
closed = 1;
nodes = (
(369,577,l),
(519,577,l),
(544,705,l),
(394,705,l)
);
},
{
closed = 1;
nodes = (
(234,-15,o),
(283,21,o),
(321,77,c),
(324,77,l),
(309,0,l),
(462,0,l),
(561,512,l),
(401,512,l),
(347,229,ls),
(333,159,o),
(294,117,o),
(239,117,cs),
(186,117,o),
(172,156,o),
(183,214,cs),
(241,512,l),
(81,512,l),
(20,192,ls),
(-6,61,o),
(55,-15,o),
(163,-15,cs)
);
}
);
width = 551;
}
);
note = udieresis;
unicode = 252;
},
{
glyphname = dagger;
layers = (
{
hints = (
{
horizontal = 1;
place = (382, 132);
place = (382, 132);
type = Stem;
},
{
horizontal = 1;
place = (715, -20);
target = down;
type = TopGhost;
},
{
place = (57, 539);
place = (57, 539);
type = Stem;
}
);
layerId = m01;
shapes = (
{
closed = 1;
nodes = (
(129,-143,l),
(295,-143,l),
(397,382,l),
(570,382,l),
(596,514,l),
(423,514,l),
(461,715,l),
(295,715,l),
(256,514,l),
(83,514,l),
(57,382,l),
(230,382,l)
);
}
);
width = 580;
}
);
note = dagger;
unicode = 8224;
},
{
glyphname = degree;
layers = (
{
hints = (
{
horizontal = 1;
place = (400, 78);
place = (400, 78);
type = Stem;
},
{
horizontal = 1;
place = (622, 78);
place = (622, 78);
type = Stem;
},
{
place = (83, 88);
place = (83, 88);
type = Stem;
},
{
place = (308, 87);
place = (308, 87);
type = Stem;
}
);
layerId = m01;
shapes = (
{
closed = 1;
nodes = (
(197,478,o),
(171,510,o),
(171,549,cs),
(171,587,o),
(197,622,o),
(239,622,cs),
(281,622,o),
(308,587,o),
(308,549,cs),
(308,510,o),
(281,478,o),
(239,478,cs)
);
},
{
closed = 1;
nodes = (
(324,400,o),
(395,464,o),
(395,549,cs),
(395,633,o),
(324,700,o),
(239,700,cs),
(155,700,o),
(83,633,o),
(83,549,cs),
(83,464,o),
(155,400,o),
(239,400,cs)
);
}
);
width = 369;
}
);
note = degree;
unicode = 176;
},
{
glyphname = cent;
layers = (
{
hints = (
{
horizontal = 1;
place = (-11, 21);
target = up;
type = BottomGhost;
},
{
horizontal = 1;
place = (330, 264);
place = (330, 264);
type = Stem;
},
{
place = (13, 156);
place = (13, 156);
type = Stem;
},
{
place = (375, 152);
place = (375, 152);
type = Stem;
}
);
layerId = m01;
shapes = (
{
closed = 1;
nodes = (
(173,-107,l),
(233,-107,l),
(251,-16,l),
(386,-14,o),
(485,61,o),
(511,194,c),
(361,194,l),
(346,139,o),
(314,110,o),
(274,104,c),
(332,402,l),
(360,391,o),
(373,365,o),
(375,330,c),
(527,330,l),
(524,449,o),
(452,508,o),
(356,522,c),
(370,594,l),
(310,594,l),
(296,525,l),
(124,519,o),
(13,373,o),
(13,209,cs),
(13,74,o),
(93,7,o),
(192,-11,c)
);
},
{
closed = 1;
nodes = (
(169,284,o),
(199,386,o),
(273,405,c),
(216,111,l),
(182,127,o),
(169,162,o),
(169,206,cs)
);
}
);
width = 532;
}
);
note = cent;
unicode = 162;
},
{
glyphname = sterling;
layers = (
{
hints = (
{
horizontal = 1;
place = (-8, 21);
target = up;
type = BottomGhost;
},
{
horizontal = 1;
place = (34, 125);
place = (34, 125);
type = Stem;
},
{
horizontal = 1;
place = (289, 92);
place = (289, 92);
type = Stem;
},
{
horizontal = 1;
place = (568, 131);
place = (568, 131);
type = Stem;
},
{
place = (124, 158);
place = (124, 158);
type = Stem;
},
{
place = (434, 160);
place = (434, 160);
type = Stem;
},
{
horizontal = 1;
place = (-15, 149);
place = (-15, 149);
type = Stem;
},
{
place = (79, 172);
place = (79, 172);
type = Stem;
}
);
layerId = m01;
shapes = (
{
closed = 1;
nodes = (
(37,289,l),
(124,289,l),
(124,281,ls),
(124,207,o),
(63,146,o),
(4,113,c),
(67,-8,l),
(103,15,o),
(137,34,o),
(178,34,cs),
(250,34,o),
(303,-15,o),
(396,-15,cs),
(454,-15,o),
(508,9,o),
(548,41,c),
(492,169,l),
(469,151,o),
(436,134,o),
(402,134,cs),
(350,134,o),
(312,159,o),
(254,159,cs),
(227,159,o),
(211,153,o),
(191,146,c),
(190,149,l),
(238,183,o),
(282,226,o),
(282,289,c),
(389,289,l),
(407,381,l),
(267,381,l),
(259,412,o),
(251,441,o),
(251,470,cs),
(251,535,o),
(289,568,o),
(343,568,cs),
(410,568,o),
(439,527,o),
(434,449,c),
(594,449,l),
(601,543,o),
(576,603,o),
(531,643,cs),
(486,683,o),
(420,699,o),
(344,699,cs),
(204,699,o),
(79,624,o),
(79,478,cs),
(79,442,o),
(89,411,o),
(100,381,c),
(55,381,l)
);
}
);
width = 589;
}
);
note = sterling;
unicode = 163;
},
{
glyphname = section;
layers = (
{
hints = (
{
horizontal = 1;
place = (-181, 123);
place = (-181, 123);
type = Stem;
},
{
horizontal = 1;
place = (596, 118);
place = (596, 118);
type = Stem;
},
{
place = (153, 152);
place = (153, 152);
type = Stem;
},
{
place = (435, 153);
place = (435, 153);
type = Stem;
},
{
place = (444, 140);
place = (444, 140);
type = Stem;
},
{
place = (39, 148);
place = (39, 148);
type = Stem;
},
{
place = (337, 154);
place = (337, 154);
type = Stem;
}
);
layerId = m01;
shapes = (
{
closed = 1;
nodes = (
(588,347,o),
(523,392,o),
(431,441,cs),
(338,491,o),
(305,511,o),
(305,544,cs),
(305,580,o),
(336,596,o),
(370,596,cs),
(422,596,o),
(444,568,o),
(444,523,c),
(584,523,l),
(587,663,o),
(486,714,o),
(370,714,cs),
(255,714,o),
(153,651,o),
(153,530,cs),
(153,498,o),
(163,471,o),
(177,452,c),
(94,429,o),
(39,382,o),
(39,297,cs),
(39,217,o),
(89,168,o),
(193,114,cs),
(294,62,o),
(337,41,o),
(337,0,cs),
(337,-39,o),
(303,-58,o),
(266,-58,cs),
(209,-58,o),
(179,-27,o),
(180,27,c),
(33,27,l),
(28,-115,o),
(133,-181,o),
(265,-181,cs),
(390,-181,o),
(491,-115,o),
(491,8,cs),
(491,49,o),
(479,82,o),
(456,109,c),
(534,136,o),
(588,176,o),
(588,261,cs)
);
},
{
closed = 1;
nodes = (
(405,284,o),
(435,265,o),
(435,230,cs),
(435,201,o),
(406,185,o),
(377,179,c),
(351,196,o),
(320,213,o),
(293,230,cs),
(208,277,o),
(187,296,o),
(187,325,cs),
(187,355,o),
(212,372,o),
(239,379,c),
(267,360,o),
(300,341,o),
(333,323,cs)
);
}
);
width = 615;
}
);
note = section;
unicode = 167;
},
{
glyphname = bullet;
layers = (
{
hints = (
{
horizontal = 1;
place = (170, 300);
place = (170, 300);
type = Stem;
},
{
place = (45, 300);
place = (45, 300);
type = Stem;
}
);
layerId = m01;
shapes = (
{
closed = 1;
nodes = (
(277,170,o),
(345,238,o),
(345,320,cs),
(345,402,o),
(277,470,o),
(195,470,cs),
(113,470,o),
(45,402,o),
(45,320,cs),
(45,238,o),
(113,170,o),
(195,170,cs)
);
}
);
width = 368;
}
);
note = bullet;
unicode = 8226;
},
{
glyphname = paragraph;
layers = (
{
hints = (
{
horizontal = 1;
place = (0, 21);
target = up;
type = BottomGhost;
},
{
horizontal = 1;
place = (619, 96);
place = (619, 96);
type = Stem;
},
{
place = (73, 551);
place = (73, 551);
type = Stem;
}
);
layerId = m01;
shapes = (
{
closed = 1;
nodes = (
(219,0,l),
(321,0,l),
(441,619,l),
(504,619,l),
(384,0,l),
(486,0,l),
(624,715,l),
(304,715,ls),
(235,715,o),
(185,699,o),
(147,665,cs),
(94,620,o),
(73,558,o),
(73,496,cs),
(73,401,o),
(136,335,o),
(247,335,cs),
(283,335,l)
);
}
);
width = 588;
}
);
note = paragraph;
unicode = 182;
},
{
glyphname = germandbls;
kernLeft = germandbls;
kernRight = germandbls;
layers = (
{
hints = (
{
horizontal = 1;
place = (-9, 125);
place = (-9, 125);
type = Stem;
},
{
horizontal = 1;
place = (356, 92);
place = (356, 92);
type = Stem;
},
{
horizontal = 1;
place = (606, 123);
place = (606, 123);
type = Stem;
},
{
place = (391, 156);
place = (391, 156);
type = Stem;
},
{
horizontal = 1;
place = (0, 21);
target = up;
type = BottomGhost;
},
{
place = (415, 149);
place = (415, 149);
type = Stem;
}
);
layerId = m01;
shapes = (
{
closed = 1;
nodes = (
(450,-9,o),
(547,94,o),
(547,243,cs),
(547,320,o),
(508,374,o),
(452,399,c),
(452,402,l),
(525,429,o),
(565,486,o),
(564,556,cs),
(563,683,o),
(449,729,o),
(347,729,cs),
(208,729,o),
(114,652,o),
(89,525,cs),
(-12,0,l),
(148,0,l),
(248,515,ls),
(260,577,o),
(293,606,o),
(343,606,cs),
(385,606,o),
(415,580,o),
(415,539,cs),
(415,472,o),
(366,448,o),
(308,448,cs),
(289,448,l),
(271,356,l),
(291,356,ls),
(359,356,o),
(391,318,o),
(391,256,cs),
(391,165,o),
(342,116,o),
(276,116,cs),
(257,116,o),
(241,118,o),
(225,122,cs),
(224,122,l),
(201,6,l),
(233,-5,o),
(265,-9,o),
(303,-9,cs)
);
}
);
width = 568;
}
);
note = germandbls;
unicode = 223;
},
{
glyphname = registered;
kernLeft = registered;
layers = (
{
hints = (
{
horizontal = 1;
place = (244, 39);
place = (244, 39);
type = Stem;
},
{
horizontal = 1;
place = (450, 53);
place = (450, 53);
type = Stem;
},
{
horizontal = 1;
place = (557, 59);
place = (557, 59);
type = Stem;
},
{
horizontal = 1;
place = (688, 40);
place = (688, 40);
type = Stem;
},
{
place = (67, 46);
place = (67, 46);
type = Stem;
},
{
place = (201, 76);
place = (201, 76);
type = Stem;
},
{
place = (349, 75);
place = (349, 75);
type = Stem;
},
{
place = (500, 46);
place = (500, 46);
type = Stem;
}
);
layerId = m01;
shapes = (
{
closed = 1;
nodes = (
(201,360,l),
(277,360,l),
(277,450,l),
(308,450,ls),
(331,450,o),
(342,441,o),
(345,419,cs),
(349,395,o),
(349,364,o),
(356,360,c),
(430,360,l),
(430,366,l),
(420,371,o),
(424,402,o),
(418,433,cs),
(413,455,o),
(404,470,o),
(381,477,c),
(381,479,l),
(409,489,o),
(424,511,o),
(424,540,cs),
(424,590,o),
(379,616,o),
(327,616,cs),
(201,616,l)
);
},
{
closed = 1;
nodes = (
(277,503,l),
(277,557,l),
(315,557,ls),
(339,557,o),
(349,548,o),
(349,530,cs),
(349,512,o),
(338,503,o),
(315,503,cs)
);
},
{
closed = 1;
nodes = (
(196,283,o),
(113,369,o),
(113,486,cs),
(113,602,o),
(196,688,o),
(307,688,cs),
(418,688,o),
(500,602,o),
(500,486,cs),
(500,369,o),
(418,283,o),
(307,283,cs)
);
},
{
closed = 1;
nodes = (
(441,244,o),
(546,347,o),
(546,486,cs),
(546,625,o),
(441,728,o),
(307,728,cs),
(173,728,o),
(67,625,o),
(67,486,cs),
(67,347,o),
(173,244,o),
(307,244,cs)
);
}
);
width = 523;
}
);
note = registered;
unicode = 174;
},
{
glyphname = copyright;
kernLeft = copyright;
kernRight = copyright;
layers = (
{
hints = (
{
horizontal = 1;
place = (-17, 52);
place = (-17, 52);
type = Stem;
},
{
horizontal = 1;
place = (135, 103);
place = (135, 103);
type = Stem;
},
{
horizontal = 1;
place = (480, 104);
place = (480, 104);
type = Stem;
},
{
horizontal = 1;
place = (676, 52);
place = (676, 52);
type = Stem;
},
{
place = (56, 61);
place = (56, 61);
type = Stem;
},
{
place = (212, 127);
place = (212, 127);
type = Stem;
},
{
place = (731, 61);
place = (731, 61);
type = Stem;
}
);
layerId = m01;
shapes = (
{
closed = 1;
nodes = (
(490,135,o),
(535,151,o),
(571,185,cs),
(601,214,o),
(622,256,o),
(625,302,c),
(505,302,l),
(500,267,o),
(474,238,o),
(429,238,cs),
(373,238,o),
(339,289,o),
(339,359,cs),
(339,428,o),
(368,480,o),
(428,480,cs),
(470,480,o),
(495,454,o),
(501,422,c),
(621,422,l),
(615,472,o),
(593,516,o),
(554,545,cs),
(522,569,o),
(479,584,o),
(428,584,cs),
(298,584,o),
(212,488,o),
(212,359,cs),
(212,230,o),
(298,135,o),
(428,135,cs)
);
},
{
closed = 1;
nodes = (
(249,35,o),
(117,172,o),
(117,355,cs),
(117,539,o),
(249,676,o),
(424,676,cs),
(599,676,o),
(731,539,o),
(731,355,cs),
(731,172,o),
(599,35,o),
(424,35,cs)
);
},
{
closed = 1;
nodes = (
(630,-17,o),
(792,141,o),
(792,355,cs),
(792,569,o),
(630,728,o),
(424,728,cs),
(218,728,o),
(56,569,o),
(56,355,cs),
(56,141,o),
(218,-17,o),
(424,-17,cs)
);
}
);
width = 810;
}
);
note = copyright;
unicode = 169;
},
{
glyphname = trademark;
layers = (
{
hints = (
{
horizontal = 1;
place = (440, 120);
place = (440, 120);
type = Stem;
},
{
horizontal = 1;
place = (643, 72);
place = (643, 72);
type = Stem;
},
{
place = (106, 617);
place = (106, 617);
type = Stem;
}
);
layerId = m01;
shapes = (
{
closed = 1;
nodes = (
(344,440,l),
(423,440,l),
(455,605,l),
(457,605,l),
(474,440,l),
(537,440,l),
(620,605,l),
(622,605,l),
(590,440,l),
(670,440,l),
(723,715,l),
(603,715,l),
(531,560,l),
(529,560,l),
(516,715,l),
(397,715,l)
);
},
{
closed = 1;
nodes = (
(142,440,l),
(230,440,l),
(269,643,l),
(346,643,l),
(360,715,l),
(119,715,l),
(106,643,l),
(182,643,l)
);
}
);
width = 688;
}
);
note = trademark;
unicode = 8482;
},
{
glyphname = acute;
layers = (
{
hints = (
{
horizontal = 1;
place = (572, 148);
place = (572, 148);
type = Stem;
},
{
place = (229, 261);
place = (229, 261);
type = Stem;
}
);
layerId = m01;
shapes = (
{
closed = 1;
nodes = (
(229,572,l),
(352,572,l),
(490,720,l),
(305,720,l)
);
}
);
width = 492;
}
);
note = acute;
unicode = 180;
},
{
glyphname = dieresis;
layers = (
{
hints = (
{
horizontal = 1;
place = (577, 128);
place = (577, 128);
type = Stem;
},
{
place = (121, 396);
place = (121, 396);
type = Stem;
}
);
layerId = m01;
shapes = (
{
closed = 1;
nodes = (
(121,577,l),
(271,577,l),
(296,705,l),
(146,705,l)
);
},
{
closed = 1;
nodes = (
(342,577,l),
(492,577,l),
(517,705,l),
(367,705,l)
);
}
);
width = 492;
}
);
note = dieresis;
unicode = 168;
},
{
glyphname = notequal;
layers = (
{
hints = (
{
horizontal = 1;
place = (141, 125);
place = (141, 125);
type = Stem;
},
{
horizontal = 1;
place = (353, 125);
place = (353, 125);
type = Stem;
},
{
place = (24, 527);
place = (24, 527);
type = Stem;
}
);
layerId = m01;
shapes = (
{
closed = 1;
nodes = (
(65,353,l),
(266,353,l),
(214,266,l),
(49,266,l),
(24,141,l),
(139,141,l),
(90,58,l),
(191,58,l),
(240,141,l),
(486,141,l),
(510,266,l),
(315,266,l),
(367,353,l),
(527,353,l),
(551,478,l),
(442,478,l),
(493,563,l),
(392,563,l),
(341,478,l),
(90,478,l)
);
}
);
width = 554;
}
);
note = notequal;
unicode = 8800;
},
{
glyphname = AE;
kernLeft = AE;
kernRight = E;
layers = (
{
hints = (
{
horizontal = 1;
place = (0, 149);
place = (0, 149);
type = Stem;
},
{
horizontal = 1;
place = (304, 136);
place = (304, 136);
type = Stem;
},
{
horizontal = 1;
place = (571, 144);
place = (571, 144);
type = Stem;
},
{
place = (-51, 1069);
place = (-51, 1069);
type = Stem;
},
{
horizontal = 1;
place = (127, 121);
place = (127, 121);
type = Stem;
}
);
layerId = m01;
shapes = (
{
closed = 1;
nodes = (
(-51,0,l),
(124,0,l),
(188,127,l),
(394,127,l),
(370,0,l),
(891,0,l),
(920,149,l),
(573,149,l),
(603,304,l),
(891,304,l),
(917,440,l),
(630,440,l),
(654,571,l),
(990,571,l),
(1018,715,l),
(323,715,l)
);
},
{
closed = 1;
nodes = (
(412,570,l),
(480,570,l),
(418,248,l),
(249,248,l)
);
}
);
width = 971;
}
);
note = AE;
unicode = 198;
},
{
glyphname = Oslash;
kernLeft = C;
kernRight = O;
layers = (
{
hints = (
{
horizontal = 1;
place = (-17, 143);
place = (-17, 143);
type = Stem;
},
{
horizontal = 1;
place = (587, 142);
place = (587, 142);
type = Stem;
},
{
place = (32, 174);
place = (32, 174);
type = Stem;
},
{
place = (559, 174);
place = (559, 174);
type = Stem;
},
{
horizontal = 1;
place = (693, -20);
target = down;
type = TopGhost;
}
);
layerId = m01;
shapes = (
{
closed = 1;
nodes = (
(73,-35,l),
(145,44,l),
(201,4,o),
(273,-17,o),
(354,-17,cs),
(592,-16,o),
(733,184,o),
(733,411,cs),
(733,496,o),
(710,567,o),
(668,620,c),
(735,693,l),
(681,742,l),
(616,670,l),
(563,708,o),
(495,729,o),
(415,729,cs),
(177,729,o),
(33,527,o),
(32,295,cs),
(31,213,o),
(54,146,o),
(93,95,c),
(20,15,l)
);
},
{
closed = 1;
nodes = (
(311,126,o),
(276,138,o),
(252,161,c),
(549,488,l),
(556,465,o),
(559,438,o),
(559,409,cs),
(559,281,o),
(503,126,o),
(359,126,cs)
);
},
{
closed = 1;
nodes = (
(206,427,o),
(264,587,o),
(408,587,cs),
(452,587,o),
(486,575,o),
(510,553,c),
(214,228,l),
(209,249,o),
(206,272,o),
(206,297,cs)
);
}
);
width = 727;
}
);
note = Oslash;
unicode = 216;
},
{
glyphname = infinity;
layers = (
{
hints = (
{
horizontal = 1;
place = (119, 118);
place = (119, 118);
type = Stem;
},
{
horizontal = 1;
place = (372, 119);
place = (372, 119);
type = Stem;
},
{
place = (27, 124);
place = (27, 124);
type = Stem;
},
{
place = (585, 123);
place = (585, 123);
type = Stem;
}
);
layerId = m01;
shapes = (
{
closed = 1;
nodes = (
(274,119,o),
(324,164,o),
(370,227,c),
(415,164,o),
(463,119,o),
(544,119,cs),
(640,119,o),
(708,191,o),
(708,305,cs),
(708,418,o),
(640,491,o),
(544,491,cs),
(463,491,o),
(415,445,o),
(370,382,c),
(324,445,o),
(274,491,o),
(190,491,cs),
(85,491,o),
(27,407,o),
(27,305,cs),
(27,203,o),
(84,119,o),
(190,119,cs)
);
},
{
closed = 1;
nodes = (
(167,237,o),
(151,267,o),
(151,305,cs),
(151,342,o),
(167,372,o),
(204,372,cs),
(240,372,o),
(265,340,o),
(286,304,c),
(265,269,o),
(240,237,o),
(204,237,cs)
);
},
{
closed = 1;
nodes = (
(497,237,o),
(473,269,o),
(452,304,c),
(473,340,o),
(497,372,o),
(531,372,cs),
(568,372,o),
(585,342,o),
(585,305,cs),
(585,267,o),
(568,237,o),
(531,237,cs)
);
}
);
width = 725;
}
);
note = infinity;
unicode = 8734;
},
{
glyphname = plusminus;
layers = (
{
hints = (
{
horizontal = 1;
place = (0, 122);
place = (0, 122);
type = Stem;
},
{
horizontal = 1;
place = (310, 128);
place = (310, 128);
type = Stem;
},
{
place = (-11, 563);
place = (-11, 563);
type = Stem;
}
);
layerId = m01;
shapes = (
{
closed = 1;
nodes = (
(194,168,l),
(328,168,l),
(355,310,l),
(527,310,l),
(552,438,l),
(380,438,l),
(407,579,l),
(273,579,l),
(247,438,l),
(74,438,l),
(49,310,l),
(221,310,l)
);
},
{
closed = 1;
nodes = (
(-11,0,l),
(468,0,l),
(491,122,l),
(13,122,l)
);
}
);
width = 557;
}
);
note = plusminus;
unicode = 177;
},
{
glyphname = lessequal;
layers = (
{
hints = (
{
horizontal = 1;
place = (0, 112);
place = (0, 112);
type = Stem;
},
{
place = (-8, 513);
place = (-8, 513);
type = Stem;
}
);
layerId = m01;
shapes = (
{
closed = 1;
nodes = (
(423,130,l),
(448,260,l),
(278,315,ls),
(243,326,o),
(187,340,o),
(187,340,c),
(187,342,l),
(187,342,o),
(249,356,o),
(287,367,cs),
(480,423,l),
(505,556,l),
(74,423,l),
(44,271,l)
);
},
{
closed = 1;
nodes = (
(-8,0,l),
(398,0,l),
(419,112,l),
(14,112,l)
);
}
);
width = 494;
}
);
note = lessequal;
unicode = 8804;
},
{
glyphname = greaterequal;
layers = (
{
hints = (
{
horizontal = 1;
place = (0, 112);
place = (0, 112);
type = Stem;
},
{
place = (-4, 486);
place = (-4, 486);
type = Stem;
}
);
layerId = m01;
shapes = (
{
closed = 1;
nodes = (
(21,130,l),
(453,263,l),
(482,415,l),
(104,556,l),
(79,426,l),
(249,371,ls),
(284,360,o),
(339,347,o),
(339,347,c),
(339,345,l),
(339,345,o),
(277,330,o),
(239,319,cs),
(47,264,l)
);
},
{
closed = 1;
nodes = (
(-4,0,l),
(402,0,l),
(423,112,l),
(18,112,l)
);
}
);
width = 494;
}
);
note = greaterequal;
unicode = 8805;
},
{
glyphname = yen;
layers = (
{
hints = (
{
horizontal = 1;
place = (0, 192);
place = (0, 192);
type = Stem;
},
{
horizontal = 1;
place = (250, 64);
place = (250, 64);
type = Stem;
},
{
horizontal = 1;
place = (686, -20);
target = down;
type = TopGhost;
},
{
place = (42, 666);
place = (42, 666);
type = Stem;
},
{
horizontal = 1;
place = (128, 64);
place = (128, 64);
type = Stem;
}
);
layerId = m01;
shapes = (
{
closed = 1;
nodes = (
(181,0,l),
(342,0,l),
(366,128,l),
(532,128,l),
(544,192,l),
(378,192,l),
(390,250,l),
(556,250,l),
(568,314,l),
(427,314,l),
(708,686,l),
(525,686,l),
(402,511,ls),
(372,467,o),
(343,414,o),
(343,414,c),
(341,414,l),
(341,414,o),
(329,468,o),
(314,518,cs),
(262,686,l),
(82,686,l),
(220,314,l),
(78,314,l),
(65,250,l),
(229,250,l),
(218,192,l),
(54,192,l),
(42,128,l),
(206,128,l)
);
}
);
width = 631;
}
);
note = yen;
unicode = 165;
},
{
glyphname = mu;
layers = (
{
hints = (
{
horizontal = 1;
place = (-169, 21);
target = up;
type = BottomGhost;
},
{
horizontal = 1;
place = (-13, 21);
target = up;
type = BottomGhost;
},
{
horizontal = 1;
place = (74, 45);
place = (74, 45);
type = Stem;
},
{
horizontal = 1;
place = (512, -20);
target = down;
type = TopGhost;
},
{
place = (-45, 612);
place = (-45, 612);
type = Stem;
},
{
horizontal = 1;
place = (0, 119);
place = (0, 119);
type = Stem;
}
);
layerId = m01;
shapes = (
{
closed = 1;
nodes = (
(-45,-169,l),
(113,-169,l),
(146,4,l),
(148,4,l),
(158,-5,o),
(174,-13,o),
(198,-13,cs),
(248,-13,o),
(289,19,o),
(326,74,c),
(329,74,l),
(315,0,l),
(468,0,l),
(567,512,l),
(407,512,l),
(353,232,ls),
(340,164,o),
(302,119,o),
(246,119,cs),
(196,119,o),
(176,151,o),
(189,214,cs),
(247,512,l),
(87,512,l)
);
}
);
width = 558;
}
);
note = mu;
unicode = 181;
},
{
glyphname = partialdiff;
layers = (
{
hints = (
{
horizontal = 1;
place = (-15, 116);
place = (-15, 116);
type = Stem;
},
{
horizontal = 1;
place = (358, 113);
place = (358, 113);
type = Stem;
},
{
horizontal = 1;
place = (722, -20);
target = down;
type = TopGhost;
},
{
place = (23, 163);
place = (23, 163);
type = Stem;
},
{
place = (387, 172);
place = (387, 172);
type = Stem;
}
);
layerId = m01;
shapes = (
{
closed = 1;
nodes = (
(466,-15,o),
(559,110,o),
(559,314,cs),
(559,569,o),
(419,709,o),
(152,722,c),
(152,584,l),
(280,569,o),
(364,524,o),
(386,433,c),
(361,457,o),
(323,471,o),
(270,471,cs),
(125,471,o),
(23,366,o),
(23,215,cs),
(23,81,o),
(109,-15,o),
(273,-15,cs)
);
},
{
closed = 1;
nodes = (
(221,101,o),
(186,138,o),
(186,215,cs),
(186,305,o),
(232,358,o),
(299,358,cs),
(353,358,o),
(387,323,o),
(387,253,cs),
(387,176,o),
(351,101,o),
(275,101,cs)
);
}
);
width = 580;
}
);
note = partialdiff;
unicode = 8706;
},
{
glyphname = summation;
layers = (
{
hints = (
{
horizontal = 1;
place = (-100, 142);
place = (-100, 142);
type = Stem;
},
{
horizontal = 1;
place = (577, 138);
place = (577, 138);
type = Stem;
},
{
place = (76, 550);
place = (76, 550);
type = Stem;
},
{
place = (76, 199);
place = (76, 199);
type = Stem;
}
);
layerId = m01;
shapes = (
{
closed = 1;
nodes = (
(76,-100,l),
(626,-100,l),
(626,42,l),
(268,42,l),
(268,44,l),
(498,284,l),
(498,354,l),
(275,575,l),
(275,577,l),
(616,577,l),
(616,715,l),
(76,715,l),
(76,575,l),
(328,317,l),
(328,315,l),
(76,45,l)
);
}
);
width = 665;
}
);
note = summation;
unicode = 8721;
},
{
glyphname = product;
layers = (
{
hints = (
{
horizontal = 1;
place = (570, 145);
place = (570, 145);
type = Stem;
},
{
place = (87, 174);
place = (87, 174);
type = Stem;
},
{
place = (526, 174);
place = (526, 174);
type = Stem;
}
);
layerId = m01;
shapes = (
{
closed = 1;
nodes = (
(87,-100,l),
(261,-100,l),
(261,570,l),
(526,570,l),
(526,-100,l),
(700,-100,l),
(700,715,l),
(87,715,l)
);
}
);
width = 749;
}
);
note = product;
unicode = 8719;
},
{
glyphname = pi;
layers = (
{
hints = (
{
horizontal = 1;
place = (-5, 21);
target = up;
type = BottomGhost;
},
{
horizontal = 1;
place = (411, 101);
place = (411, 101);
type = Stem;
},
{
place = (35, 614);
place = (35, 614);
type = Stem;
},
{
horizontal = 1;
place = (-5, 121);
place = (-5, 121);
type = Stem;
},
{
horizontal = 1;
place = (0, 21);
target = up;
type = BottomGhost;
}
);
layerId = m01;
shapes = (
{
closed = 1;
nodes = (
(503,-5,o),
(522,-2,o),
(539,2,c),
(561,116,l),
(518,111,o),
(500,122,o),
(509,164,cs),
(557,411,l),
(629,411,l),
(649,512,l),
(64,512,l),
(44,411,l),
(114,411,l),
(35,0,l),
(191,0,l),
(270,411,l),
(400,411,l),
(351,155,ls),
(327,32,o),
(384,-5,o),
(477,-5,cs)
);
}
);
width = 623;
}
);
note = pi;
unicode = 960;
},
{
glyphname = integral;
layers = (
{
hints = (
{
horizontal = 1;
place = (-176, 127);
place = (-176, 127);
type = Stem;
},
{
horizontal = 1;
place = (615, 126);
place = (615, 126);
type = Stem;
},
{
place = (109, 163);
place = (109, 163);
type = Stem;
}
);
layerId = m01;
shapes = (
{
closed = 1;
nodes = (
(162,-176,o),
(203,-163,o),
(234,-132,cs),
(257,-108,o),
(272,-73,o),
(272,-9,cs),
(272,563,ls),
(272,605,o),
(293,615,o),
(335,615,cs),
(352,615,o),
(366,613,o),
(377,610,c),
(379,610,l),
(379,731,l),
(353,737,o),
(319,741,o),
(285,741,cs),
(219,741,o),
(178,729,o),
(147,698,cs),
(124,673,o),
(109,639,o),
(109,574,cs),
(109,3,ls),
(109,-39,o),
(88,-49,o),
(48,-49,cs),
(30,-49,o),
(16,-47,o),
(4,-45,cs),
(2,-45,l),
(2,-165,l),
(28,-172,o),
(62,-176,o),
(97,-176,cs)
);
}
);
width = 365;
}
);
note = integral;
unicode = 8747;
},
{
glyphname = ordfeminine;
layers = (
{
hints = (
{
horizontal = 1;
place = (236, 80);
place = (236, 80);
type = Stem;
},
{
horizontal = 1;
place = (602, 97);
place = (602, 97);
type = Stem;
},
{
place = (46, 141);
place = (46, 141);
type = Stem;
},
{
place = (364, 140);
place = (364, 140);
type = Stem;
},
{
place = (314, 141);
place = (314, 141);
type = Stem;
},
{
horizontal = 1;
place = (544, 155);
place = (544, 155);
type = Stem;
}
);
layerId = m01;
shapes = (
{
closed = 1;
nodes = (
(238,226,o),
(281,248,o),
(312,286,c),
(314,286,l),
(314,266,o),
(316,246,o),
(321,236,c),
(461,236,l),
(462,242,l),
(453,252,o),
(452,272,o),
(459,307,cs),
(499,513,ls),
(515,592,o),
(490,641,o),
(450,668,cs),
(414,691,o),
(368,699,o),
(318,699,cs),
(184,699,o),
(115,637,o),
(98,544,c),
(234,544,l),
(244,582,o),
(269,602,o),
(311,602,cs),
(347,602,o),
(364,583,o),
(364,559,cs),
(364,516,o),
(329,510,o),
(246,504,cs),
(126,495,o),
(46,462,o),
(46,352,cs),
(46,269,o),
(107,226,o),
(188,226,cs)
);
},
{
closed = 1;
nodes = (
(211,316,o),
(187,332,o),
(187,367,cs),
(187,416,o),
(235,422,o),
(271,428,cs),
(303,433,o),
(327,438,o),
(347,447,c),
(336,392,ls),
(325,342,o),
(290,316,o),
(244,316,cs)
);
}
);
width = 494;
}
);
note = ordfeminine;
unicode = 170;
},
{
glyphname = ordmasculine;
layers = (
{
hints = (
{
horizontal = 1;
place = (223, 101);
place = (223, 101);
type = Stem;
},
{
horizontal = 1;
place = (598, 101);
place = (598, 101);
type = Stem;
},
{
place = (51, 147);
place = (51, 147);
type = Stem;
},
{
place = (381, 148);
place = (381, 148);
type = Stem;
}
);
layerId = m01;
shapes = (
{
closed = 1;
nodes = (
(217,324,o),
(198,369,o),
(198,417,cs),
(198,491,o),
(226,598,o),
(305,598,cs),
(361,598,o),
(381,549,o),
(381,501,cs),
(381,427,o),
(353,324,o),
(273,324,cs)
);
},
{
closed = 1;
nodes = (
(427,223,o),
(530,346,o),
(529,497,cs),
(529,636,o),
(423,699,o),
(309,699,cs),
(154,699,o),
(51,576,o),
(51,427,cs),
(51,287,o),
(155,223,o),
(270,223,cs)
);
}
);
width = 507;
}
);
note = ordmasculine;
unicode = 186;
},
{
glyphname = Omega;
layers = (
{
hints = (
{
horizontal = 1;
place = (0, 132);
place = (0, 132);
type = Stem;
},
{
horizontal = 1;
place = (586, 143);
place = (586, 143);
type = Stem;
},
{
place = (38, 170);
place = (38, 170);
type = Stem;
},
{
place = (555, 178);
place = (555, 178);
type = Stem;
}
);
layerId = m01;
shapes = (
{
closed = 1;
nodes = (
(-20,0,l),
(278,0,l),
(303,128,l),
(237,146,o),
(208,202,o),
(208,286,cs),
(208,418,o),
(259,586,o),
(412,586,cs),
(515,586,o),
(554,519,o),
(555,430,cs),
(555,306,o),
(501,143,o),
(372,128,c),
(348,0,l),
(652,0,l),
(678,132,l),
(585,132,l),
(585,135,l),
(684,197,o),
(733,309,o),
(733,437,cs),
(733,630,o),
(591,729,o),
(425,729,cs),
(186,729,o),
(38,534,o),
(38,320,cs),
(38,243,o),
(68,171,o),
(117,135,c),
(117,132,l),
(6,132,l)
);
}
);
width = 729;
}
);
note = Omega;
unicode = 8486;
},
{
glyphname = ae;
kernLeft = a;
kernRight = e;
layers = (
{
hints = (
{
horizontal = 1;
place = (-15, 116);
place = (-15, 116);
type = Stem;
},
{
horizontal = 1;
place = (214, 97);
place = (214, 97);
type = Stem;
},
{
horizontal = 1;
place = (417, 109);
place = (417, 109);
type = Stem;
},
{
place = (-6, 155);
place = (-6, 155);
type = Stem;
},
{
place = (694, 150);
place = (694, 150);
type = Stem;
},
{
horizontal = 1;
place = (-13, 104);
place = (-13, 104);
type = Stem;
},
{
horizontal = 1;
place = (-15, 168);
place = (-15, 168);
type = Stem;
},
{
horizontal = 1;
place = (412, 115);
place = (412, 115);
type = Stem;
}
);
layerId = m01;
shapes = (
{
closed = 1;
nodes = (
(149,526,o),
(69,456,o),
(50,350,c),
(199,350,l),
(210,395,o),
(240,417,o),
(290,417,cs),
(333,417,o),
(354,397,o),
(354,368,cs),
(354,318,o),
(313,311,o),
(212,304,cs),
(87,295,o),
(-6,260,o),
(-6,137,cs),
(-6,40,o),
(67,-13,o),
(182,-13,cs),
(287,-13,o),
(344,28,o),
(379,78,c),
(418,16,o),
(488,-15,o),
(577,-15,cs),
(706,-15,o),
(795,57,o),
(825,153,c),
(669,153,l),
(653,117,o),
(619,101,o),
(581,101,cs),
(508,101,o),
(487,150,o),
(486,214,c),
(839,214,l),
(858,341,o),
(829,441,o),
(749,493,cs),
(714,515,o),
(671,527,o),
(614,527,cs),
(550,527,o),
(498,506,o),
(458,470,c),
(427,509,o),
(371,526,o),
(298,526,cs)
);
},
{
closed = 1;
nodes = (
(149,208,o),
(206,210,o),
(247,217,cs),
(285,223,o),
(311,229,o),
(334,240,c),
(323,182,ls),
(310,121,o),
(270,91,o),
(215,91,cs),
(176,91,o),
(149,109,o),
(149,149,cs)
);
},
{
closed = 1;
nodes = (
(671,412,o),
(696,366,o),
(694,311,c),
(499,311,l),
(517,373,o),
(555,412,o),
(610,412,cs)
);
}
);
width = 859;
}
);
note = ae;
unicode = 230;
},
{
glyphname = oslash;
kernLeft = c;
kernRight = o;
layers = (
{
hints = (
{
horizontal = 1;
place = (-16, 114);
place = (-16, 114);
type = Stem;
},
{
horizontal = 1;
place = (412, 114);
place = (412, 114);
type = Stem;
},
{
place = (13, 158);
place = (13, 158);
type = Stem;
},
{
place = (394, 159);
place = (394, 159);
type = Stem;
},
{
horizontal = 1;
place = (-16, 21);
target = up;
type = BottomGhost;
}
);
layerId = m01;
shapes = (
{
closed = 1;
nodes = (
(51,-36,l),
(109,26,l),
(151,-2,o),
(204,-16,o),
(260,-16,cs),
(438,-16,o),
(553,123,o),
(553,293,cs),
(552,356,o),
(533,406,o),
(502,444,c),
(557,502,l),
(514,543,l),
(458,484,l),
(416,512,o),
(363,526,o),
(307,526,cs),
(129,526,o),
(13,387,o),
(13,219,cs),
(13,154,o),
(32,103,o),
(64,65,c),
(8,6,l)
);
},
{
closed = 1;
nodes = (
(170,294,o),
(209,412,o),
(301,412,cs),
(329,412,o),
(351,402,o),
(366,386,c),
(172,181,l),
(171,189,o),
(171,198,o),
(171,208,cs)
);
},
{
closed = 1;
nodes = (
(234,98,o),
(213,107,o),
(199,122,c),
(392,327,l),
(393,318,o),
(394,310,o),
(394,301,cs),
(395,214,o),
(356,98,o),
(263,98,cs)
);
}
);
width = 567;
}
);
note = oslash;
unicode = 248;
},
{
glyphname = questiondown;
kernRight = questiondown;
layers = (
{
hints = (
{
horizontal = 1;
place = (-140, 134);
place = (-140, 134);
type = Stem;
},
{
horizontal = 1;
place = (420, 168);
place = (420, 168);
type = Stem;
},
{
place = (-24, 169);
place = (-24, 169);
type = Stem;
}
);
layerId = m01;
shapes = (
{
closed = 1;
nodes = (
(227,354,l),
(222,325,o),
(214,306,o),
(195,290,cs),
(176,274,o),
(148,261,o),
(99,234,cs),
(19,190,o),
(-24,132,o),
(-24,46,cs),
(-24,-91,o),
(96,-140,o),
(210,-140,cs),
(361,-140,o),
(471,-57,o),
(497,98,c),
(336,98,l),
(324,27,o),
(278,-6,o),
(223,-6,cs),
(176,-6,o),
(145,17,o),
(145,62,cs),
(145,126,o),
(219,149,o),
(269,183,cs),
(322,219,o),
(351,250,o),
(371,354,c)
);
},
{
closed = 1;
nodes = (
(430,588,l),
(262,588,l),
(229,420,l),
(397,420,l)
);
}
);
width = 538;
}
);
note = questiondown;
unicode = 191;
},
{
glyphname = exclamdown;
kernRight = exclamdown;
layers = (
{
hints = (
{
horizontal = 1;
place = (420, 168);
place = (420, 168);
type = Stem;
},
{
place = (-29, 305);
place = (-29, 305);
type = Stem;
}
);
layerId = m01;
shapes = (
{
closed = 1;
nodes = (
(190,354,l),
(108,354,l),
(5,50,l),
(-29,-127,l),
(137,-127,l),
(169,39,l)
);
},
{
closed = 1;
nodes = (
(276,588,l),
(108,588,l),
(75,420,l),
(243,420,l)
);
}
);
width = 260;
}
);
note = exclamdown;
unicode = 161;
},
{
glyphname = logicalnot;
layers = (
{
hints = (
{
horizontal = 1;
place = (301, 129);
place = (301, 129);
type = Stem;
},
{
place = (47, 448);
place = (47, 448);
type = Stem;
}
);
layerId = m01;
shapes = (
{
closed = 1;
nodes = (
(300,134,l),
(437,134,l),
(495,430,l),
(72,430,l),
(47,301,l),
(332,301,l)
);
}
);
width = 516;
}
);
note = logicalnot;
unicode = 172;
},
{
glyphname = radical;
layers = (
{
hints = (
{
horizontal = 1;
place = (200, 138);
place = (200, 138);
type = Stem;
},
{
horizontal = 1;
place = (715, -20);
target = down;
type = TopGhost;
},
{
place = (25, 631);
place = (25, 631);
type = Stem;
}
);
layerId = m01;
shapes = (
{
closed = 1;
nodes = (
(230,-100,l),
(387,-100,l),
(656,715,l),
(494,715,l),
(333,215,ls),
(314,157,o),
(302,102,o),
(302,102,c),
(300,102,l),
(300,102,o),
(284,156,o),
(261,214,cs),
(212,338,l),
(25,338,l),
(25,200,l),
(100,200,l)
);
}
);
width = 622;
}
);
note = radical;
unicode = 8730;
},
{
glyphname = florin;
layers = (
{
hints = (
{
horizontal = 1;
place = (315, 102);
place = (315, 102);
type = Stem;
},
{
horizontal = 1;
place = (579, 119);
place = (579, 119);
type = Stem;
},
{
place = (-44, 499);
place = (-44, 499);
type = Stem;
},
{
horizontal = 1;
place = (693, -20);
target = down;
type = TopGhost;
}
);
layerId = m01;
shapes = (
{
closed = 1;
nodes = (
(64,417,l),
(44,315,l),
(123,315,l),
(56,8,ls),
(45,-46,o),
(24,-48,o),
(-23,-45,c),
(-44,-151,l),
(31,-161,o),
(113,-163,o),
(162,-118,cs),
(190,-93,o),
(206,-59,o),
(216,-11,cs),
(287,315,l),
(390,315,l),
(410,417,l),
(309,417,l),
(334,528,ls),
(346,582,o),
(372,583,o),
(433,579,c),
(455,693,l),
(375,703,o),
(292,703,o),
(240,662,cs),
(207,636,o),
(186,599,o),
(175,546,cs),
(146,417,l)
);
}
);
width = 418;
}
);
note = florin;
unicode = 402;
},
{
glyphname = approxequal;
layers = (
{
hints = (
{
horizontal = 1;
place = (125, 169);
place = (125, 169);
type = Stem;
},
{
horizontal = 1;
place = (339, 163);
place = (339, 163);
type = Stem;
},
{
place = (17, 529);
place = (17, 529);
type = Stem;
},
{
horizontal = 1;
place = (130, 163);
place = (130, 163);
type = Stem;
},
{
horizontal = 1;
place = (334, 168);
place = (334, 168);
type = Stem;
}
);
layerId = m01;
shapes = (
{
closed = 1;
nodes = (
(121,125,l),
(127,150,o),
(140,162,o),
(161,162,cs),
(205,162,o),
(294,130,o),
(367,130,cs),
(456,130,o),
(500,190,o),
(512,293,c),
(407,293,l),
(402,271,o),
(393,260,o),
(368,260,cs),
(325,260,o),
(235,294,o),
(167,294,cs),
(88,294,o),
(29,244,o),
(17,125,c)
);
},
{
closed = 1;
nodes = (
(154,334,l),
(161,359,o),
(174,371,o),
(195,371,cs),
(239,371,o),
(328,339,o),
(401,339,cs),
(490,339,o),
(534,398,o),
(546,502,c),
(440,502,l),
(436,479,o),
(427,469,o),
(402,469,cs),
(359,469,o),
(268,502,o),
(201,502,cs),
(121,502,o),
(63,453,o),
(49,334,c)
);
}
);
width = 537;
}
);
note = approxequal;
unicode = 8776;
},
{
glyphname = Delta;
layers = (
{
hints = (
{
horizontal = 1;
place = (0, 132);
place = (0, 132);
type = Stem;
},
{
horizontal = 1;
place = (715, -20);
target = down;
type = TopGhost;
},
{
place = (-29, 645);
place = (-29, 645);
type = Stem;
},
{
horizontal = 1;
place = (544, 171);
place = (544, 171);
type = Stem;
}
);
layerId = m01;
shapes = (
{
closed = 1;
nodes = (
(173,132,l),
(330,437,ls),
(349,473,o),
(379,544,o),
(379,544,c),
(380,544,l),
(380,544,o),
(386,471,o),
(393,432,cs),
(442,132,l)
);
},
{
closed = 1;
nodes = (
(-29,0,l),
(595,0,l),
(616,111,l),
(498,715,l),
(320,715,l),
(-8,110,l)
);
}
);
width = 666;
}
);
note = Delta;
unicode = 8710;
},
{
glyphname = guillemotleft;
kernLeft = guillemotleft;
kernRight = guillemotleft;
layers = (
{
hints = (
{
horizontal = 1;
place = (42, 419);
place = (42, 419);
type = Stem;
},
{
place = (28, 394);
place = (28, 394);
type = Stem;
}
);
layerId = m01;
shapes = (
{
closed = 1;
nodes = (
(153,42,l),
(179,178,l),
(112,246,l),
(112,248,l),
(205,315,l),
(234,461,l),
(58,334,l),
(28,178,l)
);
},
{
closed = 1;
nodes = (
(341,42,l),
(367,178,l),
(303,246,l),
(303,248,l),
(394,315,l),
(422,461,l),
(248,334,l),
(218,178,l)
);
}
);
width = 433;
}
);
note = guillemotleft;
unicode = 171;
},
{
glyphname = guillemotright;
kernLeft = guillemotright;
kernRight = guillemotright;
layers = (
{
hints = (
{
horizontal = 1;
place = (42, 419);
place = (42, 419);
type = Stem;
},
{
place = (7, 395);
place = (7, 395);
type = Stem;
}
);
layerId = m01;
shapes = (
{
closed = 1;
nodes = (
(7,42,l),
(181,169,l),
(211,325,l),
(88,461,l),
(62,325,l),
(127,257,l),
(127,255,l),
(36,188,l)
);
},
{
closed = 1;
nodes = (
(196,42,l),
(372,169,l),
(402,325,l),
(277,461,l),
(251,325,l),
(317,257,l),
(317,255,l),
(224,188,l)
);
}
);
width = 433;
}
);
note = guillemotright;
unicode = 187;
},
{
glyphname = ellipsis;
kernLeft = comma;
kernRight = comma;
layers = (
{
hints = (
{
horizontal = 1;
place = (0, 168);
place = (0, 168);
type = Stem;
},
{
place = (-19, 714);
place = (-19, 714);
type = Stem;
}
);
layerId = m01;
shapes = (
{
closed = 1;
nodes = (
(-19,0,l),
(149,0,l),
(182,168,l),
(14,168,l)
);
},
{
closed = 1;
nodes = (
(238,0,l),
(406,0,l),
(439,168,l),
(271,168,l)
);
},
{
closed = 1;
nodes = (
(495,0,l),
(663,0,l),
(695,168,l),
(527,168,l)
);
}
);
width = 744;
}
);
note = ellipsis;
unicode = 8230;
},
{
glyphname = Agrave;
kernLeft = A;
kernRight = A;
layers = (
{
hints = (
{
horizontal = 1;
place = (0, 21);
target = up;
type = BottomGhost;
},
{
horizontal = 1;
place = (130, 126);
place = (130, 126);
type = Stem;
},
{
horizontal = 1;
place = (715, -20);
target = down;
type = TopGhost;
},
{
horizontal = 1;
place = (750, 130);
place = (750, 130);
type = Stem;
},
{
place = (-52, 681);
place = (-52, 681);
type = Stem;
}
);
layerId = m01;
shapes = (
{
closed = 1;
nodes = (
(-52,0,l),
(125,0,l),
(188,130,l),
(430,130,l),
(448,0,l),
(629,0,l),
(504,715,l),
(326,715,l)
);
},
{
closed = 1;
nodes = (
(334,429,ls),
(351,465,o),
(379,531,o),
(379,531,c),
(381,531,l),
(381,531,o),
(386,466,o),
(391,428,cs),
(414,256,l),
(250,256,l)
);
},
{
closed = 1;
nodes = (
(369,750,l),
(490,750,l),
(461,880,l),
(286,880,l)
);
}
);
width = 676;
}
);
note = Agrave;
unicode = 192;
},
{
glyphname = Atilde;
kernLeft = A;
kernRight = A;
layers = (
{
hints = (
{
horizontal = 1;
place = (0, 21);
target = up;
type = BottomGhost;
},
{
horizontal = 1;
place = (130, 126);
place = (130, 126);
type = Stem;
},
{
horizontal = 1;
place = (715, -20);
target = down;
type = TopGhost;
},
{
horizontal = 1;
place = (752, 132);
place = (752, 132);
type = Stem;
},
{
place = (-52, 681);
place = (-52, 681);
type = Stem;
},
{
horizontal = 1;
place = (787, 99);
place = (787, 99);
type = Stem;
}
);
layerId = m01;
shapes = (
{
closed = 1;
nodes = (
(-52,0,l),
(125,0,l),
(188,130,l),
(430,130,l),
(448,0,l),
(629,0,l),
(504,715,l),
(326,715,l)
);
},
{
closed = 1;
nodes = (
(546,752,o),
(586,806,o),
(599,884,c),
(516,884,l),
(510,863,o),
(501,849,o),
(480,849,cs),
(451,849,o),
(420,886,o),
(367,886,cs),
(311,886,o),
(262,841,o),
(247,751,c),
(330,751,l),
(335,774,o),
(349,787,o),
(365,787,cs),
(395,787,o),
(426,752,o),
(482,752,cs)
);
},
{
closed = 1;
nodes = (
(334,429,ls),
(351,465,o),
(379,531,o),
(379,531,c),
(381,531,l),
(381,531,o),
(386,466,o),
(391,428,cs),
(414,256,l),
(250,256,l)
);
}
);
width = 676;
}
);
note = Atilde;
unicode = 195;
},
{
glyphname = Otilde;
kernLeft = C;
kernRight = O;
layers = (
{
hints = (
{
horizontal = 1;
place = (-17, 143);
place = (-17, 143);
type = Stem;
},
{
horizontal = 1;
place = (587, 142);
place = (587, 142);
type = Stem;
},
{
horizontal = 1;
place = (752, 132);
place = (752, 132);
type = Stem;
},
{
place = (32, 177);
place = (32, 177);
type = Stem;
},
{
place = (556, 177);
place = (556, 177);
type = Stem;
},
{
horizontal = 1;
place = (787, 99);
place = (787, 99);
type = Stem;
}
);
layerId = m01;
shapes = (
{
closed = 1;
nodes = (
(558,752,o),
(598,806,o),
(611,884,c),
(528,884,l),
(522,863,o),
(513,849,o),
(492,849,cs),
(463,849,o),
(432,886,o),
(379,886,cs),
(323,886,o),
(274,841,o),
(259,751,c),
(342,751,l),
(347,774,o),
(361,787,o),
(377,787,cs),
(407,787,o),
(438,752,o),
(494,752,cs)
);
},
{
closed = 1;
nodes = (
(251,126,o),
(209,203,o),
(209,297,cs),
(209,427,o),
(266,586,o),
(408,587,cs),
(514,587,o),
(556,509,o),
(556,409,cs),
(556,281,o),
(501,126,o),
(359,126,cs)
);
},
{
closed = 1;
nodes = (
(592,-16,o),
(733,184,o),
(733,411,cs),
(733,610,o),
(607,729,o),
(416,729,cs),
(178,729,o),
(33,527,o),
(32,295,cs),
(31,93,o),
(169,-17,o),
(354,-17,cs)
);
}
);
width = 727;
}
);
note = Otilde;
unicode = 213;
},
{
glyphname = OE;
kernLeft = C;
kernRight = E;
layers = (
{
hints = (
{
horizontal = 1;
place = (-17, 143);
place = (-17, 143);
type = Stem;
},
{
horizontal = 1;
place = (304, 136);
place = (304, 136);
type = Stem;
},
{
horizontal = 1;
place = (571, 144);
place = (571, 144);
type = Stem;
},
{
place = (32, 177);
place = (32, 177);
type = Stem;
},
{
horizontal = 1;
place = (0, 149);
place = (0, 149);
type = Stem;
},
{
horizontal = 1;
place = (587, 142);
place = (587, 142);
type = Stem;
}
);
layerId = m01;
shapes = (
{
closed = 1;
nodes = (
(383,-17,o),
(444,9,o),
(494,53,c),
(484,0,l),
(978,0,l),
(1007,149,l),
(664,149,l),
(694,304,l),
(978,304,l),
(1004,440,l),
(721,440,l),
(746,571,l),
(1077,571,l),
(1105,715,l),
(599,715,l),
(586,650,l),
(546,704,o),
(486,729,o),
(409,729,cs),
(180,729,o),
(33,523,o),
(32,295,cs),
(31,89,o),
(139,-17,o),
(317,-17,cs)
);
},
{
closed = 1;
nodes = (
(249,126,o),
(209,194,o),
(209,297,cs),
(209,429,o),
(271,586,o),
(408,587,cs),
(493,587,o),
(539,538,o),
(552,470,c),
(505,226,l),
(471,168,o),
(417,126,o),
(342,126,cs)
);
}
);
width = 1058;
}
);
note = OE;
unicode = 338;
},
{
glyphname = oe;
kernLeft = c;
kernRight = e;
layers = (
{
hints = (
{
horizontal = 1;
place = (-16, 114);
place = (-16, 114);
type = Stem;
},
{
horizontal = 1;
place = (214, 97);
place = (214, 97);
type = Stem;
},
{
horizontal = 1;
place = (412, 114);
place = (412, 114);
type = Stem;
},
{
place = (13, 161);
place = (13, 161);
type = Stem;
},
{
place = (389, 149);
place = (389, 149);
type = Stem;
},
{
place = (745, 150);
place = (745, 150);
type = Stem;
},
{
horizontal = 1;
place = (-15, 116);
place = (-15, 116);
type = Stem;
},
{
horizontal = 1;
place = (-15, 168);
place = (-15, 168);
type = Stem;
},
{
horizontal = 1;
place = (412, 115);
place = (412, 115);
type = Stem;
}
);
layerId = m01;
shapes = (
{
closed = 1;
nodes = (
(340,-16,o),
(403,14,o),
(447,64,c),
(485,10,o),
(549,-15,o),
(629,-15,cs),
(754,-15,o),
(845,54,o),
(877,153,c),
(721,153,l),
(705,117,o),
(671,101,o),
(633,101,cs),
(560,101,o),
(539,150,o),
(538,214,c),
(890,214,l),
(909,341,o),
(881,441,o),
(801,493,cs),
(765,515,o),
(724,527,o),
(667,527,cs),
(589,527,o),
(528,495,o),
(484,446,c),
(446,500,o),
(382,526,o),
(302,526,cs),
(127,526,o),
(14,386,o),
(13,218,cs),
(13,60,o),
(127,-16,o),
(258,-16,cs)
);
},
{
closed = 1;
nodes = (
(173,294,o),
(209,412,o),
(301,412,cs),
(366,412,o),
(389,357,o),
(389,301,cs),
(389,214,o),
(356,98,o),
(263,98,cs),
(197,98,o),
(174,151,o),
(174,208,cs)
);
},
{
closed = 1;
nodes = (
(723,412,o),
(747,366,o),
(745,311,c),
(551,311,l),
(569,373,o),
(606,412,o),
(661,412,cs)
);
}
);
width = 911;
}
);
note = oe;
unicode = 339;
},
{
glyphname = endash;
kernLeft = hyphen;
kernRight = hyphen;
layers = (
{
hints = (
{
horizontal = 1;
place = (186, 138);
place = (186, 138);
type = Stem;
},
{
place = (28, 503);
place = (28, 503);
type = Stem;
}
);
layerId = m01;
shapes = (
{
closed = 1;
nodes = (
(28,186,l),
(504,186,l),
(531,324,l),
(55,324,l)
);
}
);
width = 561;
}
);
note = endash;
unicode = 8211;
},
{
glyphname = emdash;
kernLeft = hyphen;
kernRight = hyphen;
layers = (
{
hints = (
{
horizontal = 1;
place = (186, 138);
place = (186, 138);
type = Stem;
},
{
place = (28, 860);
place = (28, 860);
type = Stem;
}
);
layerId = m01;
shapes = (
{
closed = 1;
nodes = (
(28,186,l),
(861,186,l),
(888,324,l),
(55,324,l)
);
}
);
width = 918;
}
);
note = emdash;
unicode = 8212;
},
{
glyphname = quotedblleft;
kernLeft = quotedblleft;
kernRight = quotedblleft;
layers = (
{
hints = (
{
horizontal = 1;
place = (421, 149);
place = (421, 149);
type = Stem;
},
{
horizontal = 1;
place = (718, -20);
target = down;
type = TopGhost;
},
{
place = (65, 414);
place = (65, 414);
type = Stem;
}
);
layerId = m01;
shapes = (
{
closed = 1;
nodes = (
(65,421,l),
(211,421,l),
(240,570,l),
(173,570,l),
(181,622,o),
(216,653,o),
(260,660,c),
(272,718,l),
(224,715,o),
(181,701,o),
(150,673,cs),
(121,648,o),
(101,611,o),
(91,558,cs)
);
},
{
closed = 1;
nodes = (
(272,421,l),
(418,421,l),
(447,570,l),
(380,570,l),
(388,622,o),
(423,653,o),
(467,660,c),
(479,718,l),
(431,715,o),
(388,701,o),
(357,673,cs),
(328,648,o),
(308,611,o),
(298,558,cs)
);
}
);
width = 421;
}
);
note = quotedblleft;
unicode = 8220;
},
{
glyphname = quotedblright;
kernLeft = quotedblright;
kernRight = quotedblright;
layers = (
{
hints = (
{
horizontal = 1;
place = (566, 149);
place = (566, 149);
type = Stem;
},
{
place = (62, 414);
place = (62, 414);
type = Stem;
}
);
layerId = m01;
shapes = (
{
closed = 1;
nodes = (
(62,418,l),
(109,420,o),
(152,435,o),
(183,462,cs),
(213,488,o),
(232,525,o),
(242,578,cs),
(269,715,l),
(122,715,l),
(94,566,l),
(160,566,l),
(152,514,o),
(117,483,o),
(74,476,c)
);
},
{
closed = 1;
nodes = (
(269,418,l),
(316,420,o),
(359,435,o),
(390,462,cs),
(420,488,o),
(439,525,o),
(449,578,cs),
(476,715,l),
(329,715,l),
(301,566,l),
(367,566,l),
(359,514,o),
(324,483,o),
(281,476,c)
);
}
);
width = 421;
}
);
note = quotedblright;
unicode = 8221;
},
{
glyphname = quoteleft;
kernLeft = quotedblleft;
kernRight = quotedblleft;
layers = (
{
hints = (
{
horizontal = 1;
place = (421, 149);
place = (421, 149);
type = Stem;
},
{
horizontal = 1;
place = (718, -20);
target = down;
type = TopGhost;
},
{
place = (65, 207);
place = (65, 207);
type = Stem;
}
);
layerId = m01;
shapes = (
{
closed = 1;
nodes = (
(65,421,l),
(211,421,l),
(240,570,l),
(173,570,l),
(181,622,o),
(216,653,o),
(260,660,c),
(272,718,l),
(224,715,o),
(181,701,o),
(150,673,cs),
(121,648,o),
(101,611,o),
(91,558,cs)
);
}
);
width = 214;
}
);
note = quoteleft;
unicode = 8216;
},
{
glyphname = quoteright;
kernLeft = quotedblright;
kernRight = quotedblright;
layers = (
{
hints = (
{
horizontal = 1;
place = (566, 149);
place = (566, 149);
type = Stem;
},
{
place = (62, 207);
place = (62, 207);
type = Stem;
}
);
layerId = m01;
shapes = (
{
closed = 1;
nodes = (
(62,418,l),
(109,420,o),
(152,435,o),
(183,462,cs),
(213,488,o),
(232,525,o),
(242,578,cs),
(269,715,l),
(122,715,l),
(94,566,l),
(160,566,l),
(152,514,o),
(117,483,o),
(74,476,c)
);
}
);
width = 214;
}
);
note = quoteright;
unicode = 8217;
},
{
glyphname = divide;
kernLeft = minus;
kernRight = minus;
layers = (
{
hints = (
{
place = (59, 149);
place = (59, 149);
type = Stem;
},
{
place = (267, 125);
place = (267, 125);
type = Stem;
},
{
place = (451, 149);
place = (451, 149);
type = Stem;
},
{
place = (41, 503);
place = (41, 503);
type = Stem;
}
);
layerId = m01;
shapes = (
{
closed = 1;
nodes = (
(156,59,l),
(323,59,l),
(352,208,l),
(185,208,l)
);
},
{
closed = 1;
nodes = (
(41,267,l),
(519,267,l),
(544,392,l),
(65,392,l)
);
},
{
closed = 1;
nodes = (
(232,451,l),
(399,451,l),
(428,600,l),
(261,600,l)
);
}
);
width = 557;
}
);
note = divide;
unicode = 247;
},
{
glyphname = lozenge;
layers = (
{
hints = (
{
horizontal = 1;
place = (0, 139);
place = (0, 139);
type = Stem;
},
{
horizontal = 1;
place = (577, 138);
place = (577, 138);
type = Stem;
},
{
place = (34, 564);
place = (34, 564);
type = Stem;
}
);
layerId = m01;
shapes = (
{
closed = 1;
nodes = (
(316,139,l),
(201,360,l),
(314,577,l),
(316,577,l),
(431,354,l),
(318,139,l)
);
},
{
closed = 1;
nodes = (
(236,0,l),
(397,0,l),
(598,357,l),
(396,715,l),
(235,715,l),
(34,358,l)
);
}
);
width = 596;
}
);
note = lozenge;
unicode = 9674;
},
{
glyphname = ydieresis;
kernLeft = yacute;
kernRight = yacute;
layers = (
{
hints = (
{
horizontal = 1;
place = (-169, 126);
place = (-169, 126);
type = Stem;
},
{
horizontal = 1;
place = (512, -20);
target = down;
type = TopGhost;
},
{
horizontal = 1;
place = (577, 128);
place = (577, 128);
type = Stem;
},
{
place = (-15, 584);
place = (-15, 584);
type = Stem;
}
);
layerId = m01;
shapes = (
{
closed = 1;
nodes = (
(-15,-169,l),
(93,-169,ls),
(193,-169,o),
(249,-125,o),
(299,-26,cs),
(569,512,l),
(408,512,l),
(307,293,ls),
(283,242,o),
(257,172,o),
(257,172,c),
(255,172,l),
(255,172,o),
(249,246,o),
(243,296,cs),
(215,512,l),
(48,512,l),
(126,118,ls),
(134,80,o),
(139,50,o),
(139,30,cs),
(139,-22,o),
(109,-43,o),
(64,-43,cs),
(10,-43,l)
);
},
{
closed = 1;
nodes = (
(131,577,l),
(281,577,l),
(306,705,l),
(156,705,l)
);
},
{
closed = 1;
nodes = (
(352,577,l),
(502,577,l),
(527,705,l),
(377,705,l)
);
}
);
width = 521;
}
);
note = ydieresis;
unicode = 255;
},
{
glyphname = Ydieresis;
kernLeft = Yacute;
kernRight = Yacute;
layers = (
{
hints = (
{
horizontal = 1;
place = (0, 21);
target = up;
type = BottomGhost;
},
{
horizontal = 1;
place = (715, -20);
target = down;
type = TopGhost;
},
{
horizontal = 1;
place = (753, 128);
place = (753, 128);
type = Stem;
},
{
place = (86, 643);
place = (86, 643);
type = Stem;
}
);
layerId = m01;
shapes = (
{
closed = 1;
nodes = (
(180,0,l),
(355,0,l),
(405,261,l),
(729,715,l),
(540,715,l),
(416,531,ls),
(383,481,o),
(348,422,o),
(348,422,c),
(346,422,l),
(346,422,o),
(335,484,o),
(321,533,cs),
(269,715,l),
(86,715,l),
(231,267,l)
);
},
{
closed = 1;
nodes = (
(224,753,l),
(375,753,l),
(400,881,l),
(249,881,l)
);
},
{
closed = 1;
nodes = (
(436,753,l),
(587,753,l),
(612,881,l),
(461,881,l)
);
}
);
width = 639;
}
);
note = Ydieresis;
unicode = 376;
},
{
glyphname = fraction;
layers = (
{
hints = (
{
horizontal = 1;
place = (0, 21);
target = up;
type = BottomGhost;
},
{
horizontal = 1;
place = (715, -20);
target = down;
type = TopGhost;
},
{
place = (-208, 733);
place = (-208, 733);
type = Stem;
}
);
layerId = m01;
shapes = (
{
closed = 1;
nodes = (
(-208,0,l),
(-107,0,l),
(525,715,l),
(425,715,l)
);
}
);
width = 280;
}
);
note = fraction;
unicode = 8260;
},
{
glyphname = Euro;
layers = (
{
hints = (
{
horizontal = 1;
place = (-16, 134);
place = (-16, 134);
type = Stem;
},
{
horizontal = 1;
place = (245, 64);
place = (245, 64);
type = Stem;
},
{
horizontal = 1;
place = (366, 64);
place = (366, 64);
type = Stem;
},
{
horizontal = 1;
place = (567, 133);
place = (567, 133);
type = Stem;
},
{
place = (500, 161);
place = (500, 161);
type = Stem;
}
);
layerId = m01;
shapes = (
{
closed = 1;
nodes = (
(36,366,l),
(76,366,l),
(73,347,o),
(71,328,o),
(69,309,c),
(25,309,l),
(13,245,l),
(68,245,l),
(76,75,o),
(181,-16,o),
(338,-16,cs),
(492,-16,o),
(601,78,o),
(635,243,c),
(474,243,l),
(454,166,o),
(408,117,o),
(343,118,cs),
(268,118,o),
(240,172,o),
(238,245,c),
(387,245,l),
(399,309,l),
(240,309,l),
(241,329,o),
(244,348,o),
(247,366,c),
(410,366,l),
(422,430,l),
(263,430,l),
(294,521,o),
(349,567,o),
(408,567,cs),
(482,567,o),
(501,511,o),
(500,454,c),
(661,454,l),
(661,612,o),
(577,700,o),
(415,700,cs),
(276,700,o),
(144,601,o),
(91,430,c),
(48,430,l)
);
}
);
width = 641;
}
);
note = Euro;
unicode = 8364;
},
{
glyphname = guilsinglleft;
kernLeft = guillemotleft;
kernRight = guillemotleft;
layers = (
{
hints = (
{
horizontal = 1;
place = (34, 435);
place = (34, 435);
type = Stem;
},
{
place = (27, 225);
place = (27, 225);
type = Stem;
}
);
layerId = m01;
shapes = (
{
closed = 1;
nodes = (
(168,34,l),
(196,177,l),
(124,245,l),
(124,247,l),
(222,315,l),
(252,469,l),
(57,332,l),
(27,179,l)
);
}
);
width = 261;
}
);
note = guilsinglleft;
unicode = 8249;
},
{
glyphname = guilsinglright;
kernLeft = guillemotright;
kernRight = guillemotright;
layers = (
{
hints = (
{
horizontal = 1;
place = (34, 435);
place = (34, 435);
type = Stem;
},
{
place = (6, 225);
place = (6, 225);
type = Stem;
}
);
layerId = m01;
shapes = (
{
closed = 1;
nodes = (
(6,34,l),
(201,171,l),
(231,324,l),
(90,469,l),
(62,326,l),
(134,258,l),
(134,256,l),
(36,188,l)
);
}
);
width = 261;
}
);
note = guilsinglright;
unicode = 8250;
},
{
glyphname = fi;
kernLeft = f;
kernRight = d;
layers = (
{
hints = (
{
horizontal = 1;
place = (0, 21);
target = up;
type = BottomGhost;
},
{
horizontal = 1;
place = (408, 104);
place = (408, 104);
type = Stem;
},
{
horizontal = 1;
place = (583, 132);
place = (583, 132);
type = Stem;
},
{
place = (25, 602);
place = (25, 602);
type = Stem;
},
{
horizontal = 1;
place = (599, 117);
place = (599, 117);
type = Stem;
}
);
layerId = m01;
shapes = (
{
closed = 1;
nodes = (
(329,0,l),
(489,0,l),
(588,512,l),
(428,512,l)
);
},
{
closed = 1;
nodes = (
(442,583,l),
(602,583,l),
(627,715,l),
(467,715,l)
);
},
{
closed = 1;
nodes = (
(25,0,l),
(184,0,l),
(263,408,l),
(356,408,l),
(377,512,l),
(283,512,l),
(289,542,ls),
(297,587,o),
(322,599,o),
(361,599,cs),
(371,599,o),
(381,598,o),
(393,597,c),
(415,710,l),
(389,714,o),
(362,716,o),
(333,716,cs),
(281,716,o),
(233,706,o),
(196,678,cs),
(165,654,o),
(144,614,o),
(133,560,cs),
(124,512,l),
(59,512,l),
(39,408,l),
(104,408,l)
);
}
);
width = 578;
}
);
note = fi;
unicode = 64257;
},
{
glyphname = fl;
kernLeft = f;
kernRight = d;
layers = (
{
hints = (
{
horizontal = 1;
place = (0, 21);
target = up;
type = BottomGhost;
},
{
horizontal = 1;
place = (408, 104);
place = (408, 104);
type = Stem;
},
{
horizontal = 1;
place = (599, 117);
place = (599, 117);
type = Stem;
},
{
place = (25, 606);
place = (25, 606);
type = Stem;
}
);
layerId = m01;
shapes = (
{
closed = 1;
nodes = (
(330,0,l),
(493,0,l),
(631,715,l),
(468,715,l)
);
},
{
closed = 1;
nodes = (
(25,0,l),
(184,0,l),
(263,408,l),
(356,408,l),
(377,512,l),
(283,512,l),
(289,542,ls),
(297,587,o),
(322,599,o),
(361,599,cs),
(371,599,o),
(381,598,o),
(393,597,c),
(415,710,l),
(389,714,o),
(362,716,o),
(333,716,cs),
(281,716,o),
(233,706,o),
(196,678,cs),
(165,654,o),
(144,614,o),
(133,560,cs),
(124,512,l),
(59,512,l),
(39,408,l),
(104,408,l)
);
}
);
width = 582;
}
);
note = fl;
unicode = 64258;
},
{
glyphname = daggerdbl;
layers = (
{
hints = (
{
horizontal = 1;
place = (58, 133);
place = (58, 133);
type = Stem;
},
{
horizontal = 1;
place = (382, 132);
place = (382, 132);
type = Stem;
},
{
horizontal = 1;
place = (715, -20);
target = down;
type = TopGhost;
},
{
place = (-6, 602);
place = (-6, 602);
type = Stem;
}
);
layerId = m01;
shapes = (
{
closed = 1;
nodes = (
(129,-143,l),
(295,-143,l),
(334,58,l),
(508,58,l),
(534,191,l),
(360,191,l),
(397,382,l),
(570,382,l),
(596,514,l),
(423,514,l),
(461,715,l),
(295,715,l),
(256,514,l),
(83,514,l),
(57,382,l),
(230,382,l),
(194,191,l),
(20,191,l),
(-6,58,l),
(167,58,l)
);
}
);
width = 580;
}
);
note = daggerdbl;
unicode = 8225;
},
{
glyphname = periodcentered;
layers = (
{
hints = (
{
horizontal = 1;
place = (234, 168);
place = (234, 168);
type = Stem;
},
{
place = (27, 200);
place = (27, 200);
type = Stem;
}
);
layerId = m01;
shapes = (
{
closed = 1;
nodes = (
(27,234,l),
(194,234,l),
(227,402,l),
(59,402,l)
);
}
);
width = 231;
}
);
note = periodcentered;
unicode = 183;
},
{
glyphname = quotesinglbase;
kernRight = quotesinglbase;
layers = (
{
hints = (
{
horizontal = 1;
place = (0, 149);
place = (0, 149);
type = Stem;
},
{
place = (-48, 207);
place = (-48, 207);
type = Stem;
}
);
layerId = m01;
shapes = (
{
closed = 1;
nodes = (
(-48,-149,l),
(-1,-146,o),
(43,-131,o),
(74,-104,cs),
(103,-78,o),
(123,-41,o),
(133,12,cs),
(159,149,l),
(13,149,l),
(-16,0,l),
(51,0,l),
(43,-53,o),
(8,-83,o),
(-36,-90,c)
);
}
);
width = 214;
}
);
note = quotesinglbase;
unicode = 8218;
},
{
glyphname = quotedblbase;
kernRight = quotesinglbase;
layers = (
{
hints = (
{
horizontal = 1;
place = (0, 149);
place = (0, 149);
type = Stem;
},
{
place = (-48, 414);
place = (-48, 414);
type = Stem;
}
);
layerId = m01;
shapes = (
{
closed = 1;
nodes = (
(-48,-149,l),
(-1,-146,o),
(43,-131,o),
(74,-104,cs),
(103,-78,o),
(123,-41,o),
(133,12,cs),
(159,149,l),
(13,149,l),
(-16,0,l),
(51,0,l),
(43,-53,o),
(8,-83,o),
(-36,-90,c)
);
},
{
closed = 1;
nodes = (
(159,-149,l),
(206,-146,o),
(250,-131,o),
(281,-104,cs),
(310,-78,o),
(330,-41,o),
(340,12,cs),
(366,149,l),
(220,149,l),
(191,0,l),
(258,0,l),
(250,-53,o),
(215,-83,o),
(171,-90,c)
);
}
);
width = 421;
}
);
note = quotedblbase;
unicode = 8222;
},
{
glyphname = perthousand;
kernLeft = percent;
layers = (
{
hints = (
{
horizontal = 1;
place = (-17, 86);
place = (-17, 86);
type = Stem;
},
{
horizontal = 1;
place = (300, 84);
place = (300, 84);
type = Stem;
},
{
horizontal = 1;
place = (615, 85);
place = (615, 85);
type = Stem;
},
{
place = (59, 119);
place = (59, 119);
type = Stem;
},
{
place = (305, 119);
place = (305, 119);
type = Stem;
},
{
place = (694, 120);
place = (694, 120);
type = Stem;
},
{
place = (1085, 119);
place = (1085, 119);
type = Stem;
},
{
horizontal = 1;
place = (0, 21);
target = up;
type = BottomGhost;
},
{
horizontal = 1;
place = (686, -20);
target = down;
type = TopGhost;
},
{
place = (449, 118);
place = (449, 118);
type = Stem;
},
{
place = (839, 119);
place = (839, 119);
type = Stem;
}
);
layerId = m01;
shapes = (
{
closed = 1;
nodes = (
(186,385,o),
(178,421,o),
(178,455,cs),
(178,517,o),
(201,615,o),
(258,615,cs),
(293,615,o),
(305,583,o),
(305,547,cs),
(305,484,o),
(283,385,o),
(226,385,cs)
);
},
{
closed = 1;
nodes = (
(347,299,o),
(424,409,o),
(424,535,cs),
(424,635,o),
(360,700,o),
(262,700,cs),
(138,700,o),
(59,590,o),
(59,464,cs),
(59,369,o),
(120,299,o),
(221,299,cs)
);
},
{
closed = 1;
nodes = (
(136,0,l),
(231,0,l),
(738,686,l),
(643,686,l)
);
},
{
closed = 1;
nodes = (
(575,69,o),
(567,106,o),
(567,139,cs),
(567,201,o),
(590,300,o),
(647,300,cs),
(683,300,o),
(694,267,o),
(694,231,cs),
(694,168,o),
(672,69,o),
(615,69,cs)
);
},
{
closed = 1;
nodes = (
(737,-17,o),
(814,94,o),
(814,220,cs),
(814,319,o),
(750,384,o),
(651,384,cs),
(527,384,o),
(449,274,o),
(449,148,cs),
(449,53,o),
(510,-17,o),
(610,-17,cs)
);
},
{
closed = 1;
nodes = (
(966,69,o),
(958,106,o),
(958,139,cs),
(958,201,o),
(981,300,o),
(1038,300,cs),
(1073,300,o),
(1085,267,o),
(1085,231,cs),
(1085,168,o),
(1063,69,o),
(1006,69,cs)
);
},
{
closed = 1;
nodes = (
(1127,-17,o),
(1204,94,o),
(1204,220,cs),
(1204,319,o),
(1140,384,o),
(1042,384,cs),
(918,384,o),
(839,274,o),
(839,148,cs),
(839,53,o),
(900,-17,o),
(1001,-17,cs)
);
}
);
width = 1233;
}
);
note = perthousand;
unicode = 8240;
},
{
glyphname = Acircumflex;
kernLeft = A;
kernRight = A;
layers = (
{
hints = (
{
horizontal = 1;
place = (0, 21);
target = up;
type = BottomGhost;
},
{
horizontal = 1;
place = (130, 126);
place = (130, 126);
type = Stem;
},
{
horizontal = 1;
place = (715, -20);
target = down;
type = TopGhost;
},
{
horizontal = 1;
place = (750, 125);
place = (750, 125);
type = Stem;
},
{
place = (-52, 681);
place = (-52, 681);
type = Stem;
}
);
layerId = m01;
shapes = (
{
closed = 1;
nodes = (
(-52,0,l),
(125,0,l),
(188,130,l),
(430,130,l),
(448,0,l),
(629,0,l),
(504,715,l),
(326,715,l)
);
},
{
closed = 1;
nodes = (
(232,750,l),
(374,750,l),
(426,805,l),
(428,805,l),
(464,750,l),
(595,750,l),
(511,875,l),
(357,875,l)
);
},
{
closed = 1;
nodes = (
(334,429,ls),
(351,465,o),
(379,531,o),
(379,531,c),
(381,531,l),
(381,531,o),
(386,466,o),
(391,428,cs),
(414,256,l),
(250,256,l)
);
}
);
width = 676;
}
);
note = Acircumflex;
unicode = 194;
},
{
glyphname = Ecircumflex;
kernRight = E;
layers = (
{
hints = (
{
horizontal = 1;
place = (0, 149);
place = (0, 149);
type = Stem;
},
{
horizontal = 1;
place = (304, 136);
place = (304, 136);
type = Stem;
},
{
horizontal = 1;
place = (571, 144);
place = (571, 144);
type = Stem;
},
{
horizontal = 1;
place = (750, 125);
place = (750, 125);
type = Stem;
},
{
place = (-2, 657);
place = (-2, 657);
type = Stem;
}
);
layerId = m01;
shapes = (
{
closed = 1;
nodes = (
(-2,0,l),
(528,0,l),
(557,149,l),
(201,149,l),
(231,304,l),
(528,304,l),
(554,440,l),
(258,440,l),
(283,571,l),
(627,571,l),
(655,715,l),
(136,715,l)
);
},
{
closed = 1;
nodes = (
(224,750,l),
(366,750,l),
(418,805,l),
(420,805,l),
(456,750,l),
(587,750,l),
(503,875,l),
(349,875,l)
);
}
);
width = 608;
}
);
note = Ecircumflex;
unicode = 202;
},
{
glyphname = Aacute;
kernLeft = A;
kernRight = A;
layers = (
{
hints = (
{
horizontal = 1;
place = (0, 21);
target = up;
type = BottomGhost;
},
{
horizontal = 1;
place = (130, 126);
place = (130, 126);
type = Stem;
},
{
horizontal = 1;
place = (715, -20);
target = down;
type = TopGhost;
},
{
horizontal = 1;
place = (750, 130);
place = (750, 130);
type = Stem;
},
{
place = (-52, 681);
place = (-52, 681);
type = Stem;
}
);
layerId = m01;
shapes = (
{
closed = 1;
nodes = (
(-52,0,l),
(125,0,l),
(188,130,l),
(430,130,l),
(448,0,l),
(629,0,l),
(504,715,l),
(326,715,l)
);
},
{
closed = 1;
nodes = (
(334,429,ls),
(351,465,o),
(379,531,o),
(379,531,c),
(381,531,l),
(381,531,o),
(386,466,o),
(391,428,cs),
(414,256,l),
(250,256,l)
);
},
{
closed = 1;
nodes = (
(356,750,l),
(478,750,l),
(599,880,l),
(418,880,l)
);
}
);
width = 676;
}
);
note = Aacute;
unicode = 193;
},
{
glyphname = Edieresis;
kernRight = E;
layers = (
{
hints = (
{
horizontal = 1;
place = (0, 149);
place = (0, 149);
type = Stem;
},
{
horizontal = 1;
place = (304, 136);
place = (304, 136);
type = Stem;
},
{
horizontal = 1;
place = (571, 144);
place = (571, 144);
type = Stem;
},
{
horizontal = 1;
place = (753, 128);
place = (753, 128);
type = Stem;
},
{
place = (-2, 657);
place = (-2, 657);
type = Stem;
}
);
layerId = m01;
shapes = (
{
closed = 1;
nodes = (
(224,753,l),
(375,753,l),
(400,881,l),
(249,881,l)
);
},
{
closed = 1;
nodes = (
(436,753,l),
(587,753,l),
(612,881,l),
(461,881,l)
);
},
{
closed = 1;
nodes = (
(-2,0,l),
(528,0,l),
(557,149,l),
(201,149,l),
(231,304,l),
(528,304,l),
(554,440,l),
(258,440,l),
(283,571,l),
(627,571,l),
(655,715,l),
(136,715,l)
);
}
);
width = 608;
}
);
note = Edieresis;
unicode = 203;
},
{
glyphname = Egrave;
kernRight = E;
layers = (
{
hints = (
{
horizontal = 1;
place = (0, 149);
place = (0, 149);
type = Stem;
},
{
horizontal = 1;
place = (304, 136);
place = (304, 136);
type = Stem;
},
{
horizontal = 1;
place = (571, 144);
place = (571, 144);
type = Stem;
},
{
horizontal = 1;
place = (750, 130);
place = (750, 130);
type = Stem;
},
{
place = (-2, 657);
place = (-2, 657);
type = Stem;
}
);
layerId = m01;
shapes = (
{
closed = 1;
nodes = (
(357,750,l),
(478,750,l),
(449,880,l),
(274,880,l)
);
},
{
closed = 1;
nodes = (
(-2,0,l),
(528,0,l),
(557,149,l),
(201,149,l),
(231,304,l),
(528,304,l),
(554,440,l),
(258,440,l),
(283,571,l),
(627,571,l),
(655,715,l),
(136,715,l)
);
}
);
width = 608;
}
);
note = Egrave;
unicode = 200;
},
{
glyphname = Iacute;
layers = (
{
hints = (
{
horizontal = 1;
place = (0, 21);
target = up;
type = BottomGhost;
},
{
horizontal = 1;
place = (715, -20);
target = down;
type = TopGhost;
},
{
horizontal = 1;
place = (750, 130);
place = (750, 130);
type = Stem;
},
{
place = (-2, 402);
place = (-2, 402);
type = Stem;
}
);
layerId = m01;
shapes = (
{
closed = 1;
nodes = (
(-2,0,l),
(173,0,l),
(311,715,l),
(137,715,l)
);
},
{
closed = 1;
nodes = (
(157,750,l),
(279,750,l),
(400,880,l),
(219,880,l)
);
}
);
width = 272;
}
);
note = Iacute;
unicode = 205;
},
{
glyphname = Icircumflex;
layers = (
{
hints = (
{
horizontal = 1;
place = (0, 21);
target = up;
type = BottomGhost;
},
{
horizontal = 1;
place = (715, -20);
target = down;
type = TopGhost;
},
{
horizontal = 1;
place = (750, 125);
place = (750, 125);
type = Stem;
},
{
place = (-2, 405);
place = (-2, 405);
type = Stem;
}
);
layerId = m01;
shapes = (
{
closed = 1;
nodes = (
(-2,0,l),
(173,0,l),
(311,715,l),
(137,715,l)
);
},
{
closed = 1;
nodes = (
(40,750,l),
(182,750,l),
(234,805,l),
(236,805,l),
(272,750,l),
(403,750,l),
(319,875,l),
(165,875,l)
);
}
);
width = 272;
}
);
note = Icircumflex;
unicode = 206;
},
{
glyphname = Idieresis;
layers = (
{
hints = (
{
horizontal = 1;
place = (0, 21);
target = up;
type = BottomGhost;
},
{
horizontal = 1;
place = (715, -20);
target = down;
type = TopGhost;
},
{
horizontal = 1;
place = (753, 128);
place = (753, 128);
type = Stem;
},
{
place = (-2, 438);
place = (-2, 438);
type = Stem;
}
);
layerId = m01;
shapes = (
{
closed = 1;
nodes = (
(-2,0,l),
(173,0,l),
(311,715,l),
(137,715,l)
);
},
{
closed = 1;
nodes = (
(48,753,l),
(199,753,l),
(224,881,l),
(73,881,l)
);
},
{
closed = 1;
nodes = (
(260,753,l),
(411,753,l),
(436,881,l),
(285,881,l)
);
}
);
width = 272;
}
);
note = Idieresis;
unicode = 207;
},
{
glyphname = Igrave;
layers = (
{
hints = (
{
horizontal = 1;
place = (0, 21);
target = up;
type = BottomGhost;
},
{
horizontal = 1;
place = (715, -20);
target = down;
type = TopGhost;
},
{
horizontal = 1;
place = (750, 130);
place = (750, 130);
type = Stem;
},
{
place = (-2, 313);
place = (-2, 313);
type = Stem;
}
);
layerId = m01;
shapes = (
{
closed = 1;
nodes = (
(-2,0,l),
(173,0,l),
(311,715,l),
(137,715,l)
);
},
{
closed = 1;
nodes = (
(175,750,l),
(296,750,l),
(267,880,l),
(92,880,l)
);
}
);
width = 272;
}
);
note = Igrave;
unicode = 204;
},
{
glyphname = Oacute;
kernLeft = C;
kernRight = O;
layers = (
{
hints = (
{
horizontal = 1;
place = (-17, 143);
place = (-17, 143);
type = Stem;
},
{
horizontal = 1;
place = (587, 142);
place = (587, 142);
type = Stem;
},
{
place = (32, 177);
place = (32, 177);
type = Stem;
},
{
place = (556, 177);
place = (556, 177);
type = Stem;
},
{
horizontal = 1;
place = (750, 130);
place = (750, 130);
type = Stem;
}
);
layerId = m01;
shapes = (
{
closed = 1;
nodes = (
(369,750,l),
(491,750,l),
(612,880,l),
(431,880,l)
);
},
{
closed = 1;
nodes = (
(251,126,o),
(209,203,o),
(209,297,cs),
(209,427,o),
(266,586,o),
(408,587,cs),
(514,587,o),
(556,509,o),
(556,409,cs),
(556,281,o),
(501,126,o),
(359,126,cs)
);
},
{
closed = 1;
nodes = (
(592,-16,o),
(733,184,o),
(733,411,cs),
(733,610,o),
(607,729,o),
(416,729,cs),
(178,729,o),
(33,527,o),
(32,295,cs),
(31,93,o),
(169,-17,o),
(354,-17,cs)
);
}
);
width = 727;
}
);
note = Oacute;
unicode = 211;
},
{
glyphname = Ocircumflex;
kernLeft = C;
kernRight = O;
layers = (
{
hints = (
{
horizontal = 1;
place = (-17, 143);
place = (-17, 143);
type = Stem;
},
{
horizontal = 1;
place = (587, 142);
place = (587, 142);
type = Stem;
},
{
place = (32, 177);
place = (32, 177);
type = Stem;
},
{
place = (556, 177);
place = (556, 177);
type = Stem;
},
{
horizontal = 1;
place = (750, 125);
place = (750, 125);
type = Stem;
}
);
layerId = m01;
shapes = (
{
closed = 1;
nodes = (
(251,126,o),
(209,203,o),
(209,297,cs),
(209,427,o),
(266,586,o),
(408,587,cs),
(514,587,o),
(556,509,o),
(556,409,cs),
(556,281,o),
(501,126,o),
(359,126,cs)
);
},
{
closed = 1;
nodes = (
(592,-16,o),
(733,184,o),
(733,411,cs),
(733,610,o),
(607,729,o),
(416,729,cs),
(178,729,o),
(33,527,o),
(32,295,cs),
(31,93,o),
(169,-17,o),
(354,-17,cs)
);
},
{
closed = 1;
nodes = (
(251,750,l),
(393,750,l),
(445,805,l),
(447,805,l),
(483,750,l),
(614,750,l),
(530,875,l),
(376,875,l)
);
}
);
width = 727;
}
);
note = Ocircumflex;
unicode = 212;
},
{
glyphname = Ograve;
kernLeft = C;
kernRight = O;
layers = (
{
hints = (
{
horizontal = 1;
place = (-17, 143);
place = (-17, 143);
type = Stem;
},
{
horizontal = 1;
place = (587, 142);
place = (587, 142);
type = Stem;
},
{
place = (32, 177);
place = (32, 177);
type = Stem;
},
{
place = (556, 177);
place = (556, 177);
type = Stem;
},
{
horizontal = 1;
place = (750, 130);
place = (750, 130);
type = Stem;
}
);
layerId = m01;
shapes = (
{
closed = 1;
nodes = (
(378,750,l),
(499,750,l),
(470,880,l),
(295,880,l)
);
},
{
closed = 1;
nodes = (
(251,126,o),
(209,203,o),
(209,297,cs),
(209,427,o),
(266,586,o),
(408,587,cs),
(514,587,o),
(556,509,o),
(556,409,cs),
(556,281,o),
(501,126,o),
(359,126,cs)
);
},
{
closed = 1;
nodes = (
(592,-16,o),
(733,184,o),
(733,411,cs),
(733,610,o),
(607,729,o),
(416,729,cs),
(178,729,o),
(33,527,o),
(32,295,cs),
(31,93,o),
(169,-17,o),
(354,-17,cs)
);
}
);
width = 727;
}
);
note = Ograve;
unicode = 210;
},
{
glyphname = Uacute;
kernLeft = U;
kernRight = U;
layers = (
{
hints = (
{
horizontal = 1;
place = (-13, 141);
place = (-13, 141);
type = Stem;
},
{
horizontal = 1;
place = (715, -20);
target = down;
type = TopGhost;
},
{
horizontal = 1;
place = (750, 130);
place = (750, 130);
type = Stem;
},
{
place = (38, 175);
place = (38, 175);
type = Stem;
}
);
layerId = m01;
shapes = (
{
closed = 1;
nodes = (
(364,750,l),
(486,750,l),
(607,880,l),
(426,880,l)
);
},
{
closed = 1;
nodes = (
(495,-13,o),
(594,74,o),
(624,231,cs),
(718,715,l),
(544,715,l),
(452,240,ls),
(439,171,o),
(401,128,o),
(324,128,cs),
(234,128,o),
(201,177,o),
(216,256,cs),
(305,715,l),
(131,715,l),
(45,274,ls),
(7,74,o),
(135,-13,o),
(319,-13,cs)
);
}
);
width = 673;
}
);
note = Uacute;
unicode = 218;
},
{
glyphname = Ucircumflex;
kernLeft = U;
kernRight = U;
layers = (
{
hints = (
{
horizontal = 1;
place = (-13, 141);
place = (-13, 141);
type = Stem;
},
{
horizontal = 1;
place = (715, -20);
target = down;
type = TopGhost;
},
{
horizontal = 1;
place = (750, 125);
place = (750, 125);
type = Stem;
},
{
place = (38, 175);
place = (38, 175);
type = Stem;
}
);
layerId = m01;
shapes = (
{
closed = 1;
nodes = (
(495,-13,o),
(594,74,o),
(624,231,cs),
(718,715,l),
(544,715,l),
(452,240,ls),
(439,171,o),
(401,128,o),
(324,128,cs),
(234,128,o),
(201,177,o),
(216,256,cs),
(305,715,l),
(131,715,l),
(45,274,ls),
(7,74,o),
(135,-13,o),
(319,-13,cs)
);
},
{
closed = 1;
nodes = (
(242,750,l),
(384,750,l),
(436,805,l),
(438,805,l),
(474,750,l),
(605,750,l),
(521,875,l),
(367,875,l)
);
}
);
width = 673;
}
);
note = Ucircumflex;
unicode = 219;
},
{
glyphname = Ugrave;
kernLeft = U;
kernRight = U;
layers = (
{
hints = (
{
horizontal = 1;
place = (-13, 141);
place = (-13, 141);
type = Stem;
},
{
horizontal = 1;
place = (715, -20);
target = down;
type = TopGhost;
},
{
horizontal = 1;
place = (750, 130);
place = (750, 130);
type = Stem;
},
{
place = (38, 175);
place = (38, 175);
type = Stem;
}
);
layerId = m01;
shapes = (
{
closed = 1;
nodes = (
(374,750,l),
(495,750,l),
(466,880,l),
(291,880,l)
);
},
{
closed = 1;
nodes = (
(495,-13,o),
(594,74,o),
(624,231,cs),
(718,715,l),
(544,715,l),
(452,240,ls),
(439,171,o),
(401,128,o),
(324,128,cs),
(234,128,o),
(201,177,o),
(216,256,cs),
(305,715,l),
(131,715,l),
(45,274,ls),
(7,74,o),
(135,-13,o),
(319,-13,cs)
);
}
);
width = 673;
}
);
note = Ugrave;
unicode = 217;
},
{
glyphname = dotlessi;
kernLeft = m;
kernRight = u;
layers = (
{
hints = (
{
horizontal = 1;
place = (0, 21);
target = up;
type = BottomGhost;
},
{
horizontal = 1;
place = (512, -20);
target = down;
type = TopGhost;
},
{
place = (-12, 259);
place = (-12, 259);
type = Stem;
}
);
layerId = m01;
shapes = (
{
closed = 1;
nodes = (
(-12,0,l),
(148,0,l),
(247,512,l),
(87,512,l)
);
}
);
width = 237;
}
);
note = dotlessi;
unicode = 305;
},
{
glyphname = circumflex;
layers = (
{
hints = (
{
horizontal = 1;
place = (574, 137);
place = (574, 137);
type = Stem;
},
{
place = (126, 364);
place = (126, 364);
type = Stem;
}
);
layerId = m01;
shapes = (
{
closed = 1;
nodes = (
(126,574,l),
(267,574,l),
(322,640,l),
(324,640,l),
(358,574,l),
(490,574,l),
(407,711,l),
(253,711,l)
);
}
);
width = 492;
}
);
note = circumflex;
unicode = 710;
},
{
glyphname = tilde;
layers = (
{
hints = (
{
horizontal = 1;
place = (572, 132);
place = (572, 132);
type = Stem;
},
{
place = (146, 346);
place = (146, 346);
type = Stem;
},
{
horizontal = 1;
place = (607, 99);
place = (607, 99);
type = Stem;
}
);
layerId = m01;
shapes = (
{
closed = 1;
nodes = (
(440,572,o),
(479,626,o),
(492,704,c),
(410,704,l),
(404,683,o),
(395,669,o),
(374,669,cs),
(345,669,o),
(319,706,o),
(266,706,cs),
(210,706,o),
(161,661,o),
(146,571,c),
(229,571,l),
(234,594,o),
(248,607,o),
(264,607,cs),
(294,607,o),
(320,572,o),
(375,572,cs)
);
}
);
width = 492;
}
);
note = tilde;
unicode = 732;
},
{
glyphname = macron;
layers = (
{
hints = (
{
horizontal = 1;
place = (587, 100);
place = (587, 100);
type = Stem;
},
{
place = (172, 302);
place = (172, 302);
type = Stem;
}
);
layerId = m01;
shapes = (
{
closed = 1;
nodes = (
(172,587,l),
(454,587,l),
(474,687,l),
(192,687,l)
);
}
);
width = 492;
}
);
note = macron;
unicode = 175;
},
{
glyphname = breve;
layers = (
{
hints = (
{
horizontal = 1;
place = (566, 145);
place = (566, 145);
type = Stem;
},
{
place = (190, 317);
place = (190, 317);
type = Stem;
}
);
layerId = m01;
shapes = (
{
closed = 1;
nodes = (
(429,566,o),
(494,621,o),
(507,711,c),
(417,711,l),
(410,686,o),
(384,664,o),
(344,664,cs),
(302,664,o),
(282,683,o),
(280,711,c),
(190,711,l),
(188,622,o),
(247,566,o),
(342,566,cs)
);
}
);
width = 492;
}
);
note = breve;
unicode = 728;
},
{
glyphname = dotaccent;
layers = (
{
hints = (
{
horizontal = 1;
place = (583, 132);
place = (583, 132);
type = Stem;
},
{
place = (229, 185);
place = (229, 185);
type = Stem;
}
);
layerId = m01;
shapes = (
{
closed = 1;
nodes = (
(229,583,l),
(389,583,l),
(414,715,l),
(254,715,l)
);
}
);
width = 492;
}
);
note = dotaccent;
unicode = 729;
},
{
glyphname = ring;
layers = (
{
hints = (
{
horizontal = 1;
place = (558, 56);
place = (558, 56);
type = Stem;
},
{
horizontal = 1;
place = (699, 56);
place = (699, 56);
type = Stem;
},
{
place = (222, 60);
place = (222, 60);
type = Stem;
},
{
place = (365, 61);
place = (365, 61);
type = Stem;
}
);
layerId = m01;
shapes = (
{
closed = 1;
nodes = (
(299,614,o),
(282,633,o),
(282,656,cs),
(282,679,o),
(299,699,o),
(324,699,cs),
(348,699,o),
(365,679,o),
(365,656,cs),
(365,633,o),
(348,614,o),
(324,614,cs)
);
},
{
closed = 1;
nodes = (
(379,558,o),
(426,601,o),
(426,656,cs),
(426,711,o),
(379,755,o),
(324,755,cs),
(268,755,o),
(222,711,o),
(222,656,cs),
(222,601,o),
(268,558,o),
(324,558,cs)
);
}
);
width = 492;
}
);
note = ring;
unicode = 730;
},
{
glyphname = cedilla;
layers = (
{
hints = (
{
horizontal = 1;
place = (-193, 49);
place = (-193, 49);
type = Stem;
},
{
horizontal = 1;
place = (-47, 47);
place = (-47, 47);
type = Stem;
},
{
place = (181, 92);
place = (181, 92);
type = Stem;
},
{
horizontal = 1;
place = (-88, 39);
place = (-88, 39);
type = Stem;
}
);
layerId = m01;
shapes = (
{
closed = 1;
nodes = (
(212,-193,o),
(273,-168,o),
(273,-110,cs),
(273,-64,o),
(232,-44,o),
(177,-49,c),
(177,-47,l),
(234,0,l),
(172,0,l),
(99,-71,l),
(113,-95,l),
(123,-91,o),
(136,-88,o),
(148,-88,cs),
(168,-88,o),
(181,-95,o),
(181,-112,cs),
(181,-138,o),
(150,-144,o),
(126,-144,cs),
(102,-144,o),
(77,-138,o),
(59,-129,c),
(37,-164,l),
(64,-182,o),
(97,-193,o),
(148,-193,cs)
);
}
);
width = 492;
}
);
note = cedilla;
unicode = 184;
},
{
glyphname = hungarumlaut;
layers = (
{
hints = (
{
horizontal = 1;
place = (572, 148);
place = (572, 148);
type = Stem;
},
{
place = (155, 411);
place = (155, 411);
type = Stem;
}
);
layerId = m01;
shapes = (
{
closed = 1;
nodes = (
(155,572,l),
(255,572,l),
(374,720,l),
(219,720,l)
);
},
{
closed = 1;
nodes = (
(347,572,l),
(447,572,l),
(566,720,l),
(411,720,l)
);
}
);
width = 492;
}
);
note = hungarumlaut;
unicode = 733;
},
{
glyphname = ogonek;
layers = (
{
hints = (
{
horizontal = 1;
place = (-177, 177);
place = (-177, 177);
type = Stem;
},
{
place = (84, 135);
place = (84, 135);
type = Stem;
},
{
horizontal = 1;
place = (-177, 89);
place = (-177, 89);
type = Stem;
}
);
layerId = m01;
shapes = (
{
closed = 1;
nodes = (
(221,-177,o),
(240,-173,o),
(253,-168,c),
(269,-84,l),
(268,-84,l),
(262,-86,o),
(254,-88,o),
(245,-88,cs),
(228,-88,o),
(219,-80,o),
(219,-66,cs),
(219,-40,o),
(257,-13,o),
(276,0,c),
(173,0,l),
(129,-20,o),
(84,-48,o),
(84,-97,cs),
(84,-148,o),
(128,-177,o),
(197,-177,cs)
);
}
);
width = 492;
}
);
note = ogonek;
unicode = 731;
},
{
glyphname = caron;
layers = (
{
hints = (
{
horizontal = 1;
place = (571, 138);
place = (571, 138);
type = Stem;
},
{
place = (150, 364);
place = (150, 364);
type = Stem;
}
);
layerId = m01;
shapes = (
{
closed = 1;
nodes = (
(233,571,l),
(387,571,l),
(514,709,l),
(373,709,l),
(318,643,l),
(316,643,l),
(282,709,l),
(150,709,l)
);
}
);
width = 492;
}
);
note = caron;
unicode = 711;
},
{
glyphname = Amacron;
kernLeft = A;
kernRight = A;
layers = (
{
hints = (
{
horizontal = 1;
place = (0, 21);
target = up;
type = BottomGhost;
},
{
horizontal = 1;
place = (130, 126);
place = (130, 126);
type = Stem;
},
{
horizontal = 1;
place = (715, -20);
target = down;
type = TopGhost;
},
{
horizontal = 1;
place = (762, 100);
place = (762, 100);
type = Stem;
},
{
place = (-52, 681);
place = (-52, 681);
type = Stem;
}
);
layerId = m01;
shapes = (
{
closed = 1;
nodes = (
(-52,0,l),
(125,0,l),
(188,130,l),
(430,130,l),
(448,0,l),
(629,0,l),
(504,715,l),
(326,715,l)
);
},
{
closed = 1;
nodes = (
(276,762,l),
(558,762,l),
(578,862,l),
(296,862,l)
);
},
{
closed = 1;
nodes = (
(334,429,ls),
(351,465,o),
(379,531,o),
(379,531,c),
(381,531,l),
(381,531,o),
(386,466,o),
(391,428,cs),
(414,256,l),
(250,256,l)
);
}
);
width = 676;
}
);
note = Amacron;
unicode = 256;
},
{
glyphname = Abreve;
kernLeft = A;
kernRight = A;
layers = (
{
hints = (
{
horizontal = 1;
place = (0, 21);
target = up;
type = BottomGhost;
},
{
horizontal = 1;
place = (130, 126);
place = (130, 126);
type = Stem;
},
{
horizontal = 1;
place = (715, -20);
target = down;
type = TopGhost;
},
{
place = (-52, 681);
place = (-52, 681);
type = Stem;
},
{
horizontal = 1;
place = (744, 145);
place = (744, 145);
type = Stem;
}
);
layerId = m01;
shapes = (
{
closed = 1;
nodes = (
(-52,0,l),
(125,0,l),
(188,130,l),
(430,130,l),
(448,0,l),
(629,0,l),
(504,715,l),
(326,715,l)
);
},
{
closed = 1;
nodes = (
(511,744,o),
(576,799,o),
(590,889,c),
(499,889,l),
(492,864,o),
(466,842,o),
(426,842,cs),
(384,842,o),
(364,861,o),
(362,889,c),
(272,889,l),
(271,800,o),
(329,744,o),
(424,744,cs)
);
},
{
closed = 1;
nodes = (
(334,429,ls),
(351,465,o),
(379,531,o),
(379,531,c),
(381,531,l),
(381,531,o),
(386,466,o),
(391,428,cs),
(414,256,l),
(250,256,l)
);
}
);
width = 676;
}
);
note = Abreve;
unicode = 258;
},
